M48
METRIC
T1C0.700
T2C0.800
T3C0.900
T4C1.100
T5C1.320
%
G90
G05
T1
X40.894Y29.29
X40.894Y36.91
X40.894Y67.941
X40.894Y75.56
X60.198Y49.356
X60.198Y56.976
X72.136Y77.296
X79.756Y77.296
X91.948Y56.214
X99.568Y56.214
T2
X33.02Y29.544
X33.02Y37.164
X33.02Y67.644
X33.02Y75.264
X45.169Y53.42
X52.789Y53.42
X72.347Y68.406
X73.462Y43.688
X76.411Y56.214
X76.962Y43.688
X79.968Y68.406
X84.031Y56.214
X88.263Y43.942
X91.763Y43.942
T3
X46.223Y71.496
X46.736Y33.1
X48.763Y71.496
X49.276Y33.1
X66.548Y55.118
X69.088Y55.118
X88.392Y71.962
X90.932Y71.962
X105.156Y50.88
X107.696Y50.88
T4
X80.01Y31.505
X82.55Y31.505
X85.09Y31.505
T5
X32.258Y50.96
X32.258Y55.96
X56.671Y33.862
X56.693Y72.004
X61.671Y33.862
X61.693Y72.004
X105.156Y67.818
X105.156Y72.818
X106.172Y33.02
X106.172Y38.02
T0
M30
