ISO-10303-21;
HEADER;
/* Generated by software containing ST-Developer
 * from STEP Tools, Inc. (www.steptools.com) 
 */

FILE_DESCRIPTION(
/* description */ (''),
/* implementation_level */ '2;1');

FILE_NAME(
/* name */ 'BMS_Handle.step',
/* time_stamp */ '2024-03-30T13:52:32+05:30',
/* author */ (''),
/* organization */ (''),
/* preprocessor_version */ 'ST-DEVELOPER v20',
/* originating_system */ 'Autodesk Translation Framework v12.20.1.177',

/* authorisation */ '');

FILE_SCHEMA (('AUTOMOTIVE_DESIGN { 1 0 10303 214 3 1 1 }','TECHNICAL_DATA_PACKAGING'));
ENDSEC;

DATA;
#10=MECHANICAL_DESIGN_GEOMETRIC_PRESENTATION_REPRESENTATION('',(#13),#326);
#11=SHAPE_REPRESENTATION_RELATIONSHIP('SRR','None',#333,#12);
#12=ADVANCED_BREP_SHAPE_REPRESENTATION('',(#14),#325);
#13=STYLED_ITEM('',(#342),#14);
#14=MANIFOLD_SOLID_BREP('Body1',#174);
#15=FACE_BOUND('',#57,.T.);
#16=FACE_BOUND('',#60,.T.);
#17=FACE_BOUND('',#65,.T.);
#18=PLANE('',#195);
#19=PLANE('',#202);
#20=PLANE('',#208);
#21=PLANE('',#209);
#22=PLANE('',#210);
#23=PLANE('',#212);
#24=LINE('',#286,#31);
#25=LINE('',#292,#32);
#26=LINE('',#305,#33);
#27=LINE('',#310,#34);
#28=LINE('',#317,#35);
#29=LINE('',#320,#36);
#30=LINE('',#321,#37);
#31=VECTOR('',#228,9.);
#32=VECTOR('',#235,10.);
#33=VECTOR('',#252,20.);
#34=VECTOR('',#257,10.);
#35=VECTOR('',#266,10.);
#36=VECTOR('',#271,10.);
#37=VECTOR('',#272,10.);
#38=CYLINDRICAL_SURFACE('',#193,9.);
#39=CYLINDRICAL_SURFACE('',#203,20.);
#40=CYLINDRICAL_SURFACE('',#205,10.);
#41=CYLINDRICAL_SURFACE('',#213,2.16666666666667);
#42=FACE_OUTER_BOUND('',#54,.T.);
#43=FACE_OUTER_BOUND('',#55,.T.);
#44=FACE_OUTER_BOUND('',#56,.T.);
#45=FACE_OUTER_BOUND('',#58,.T.);
#46=FACE_OUTER_BOUND('',#59,.T.);
#47=FACE_OUTER_BOUND('',#61,.T.);
#48=FACE_OUTER_BOUND('',#62,.T.);
#49=FACE_OUTER_BOUND('',#63,.T.);
#50=FACE_OUTER_BOUND('',#64,.T.);
#51=FACE_OUTER_BOUND('',#66,.T.);
#52=FACE_OUTER_BOUND('',#67,.T.);
#53=FACE_OUTER_BOUND('',#68,.T.);
#54=EDGE_LOOP('',(#118,#119,#120,#121,#122));
#55=EDGE_LOOP('',(#123,#124,#125,#126,#127));
#56=EDGE_LOOP('',(#128));
#57=EDGE_LOOP('',(#129,#130));
#58=EDGE_LOOP('',(#131,#132,#133,#134,#135));
#59=EDGE_LOOP('',(#136));
#60=EDGE_LOOP('',(#137));
#61=EDGE_LOOP('',(#138,#139,#140,#141,#142));
#62=EDGE_LOOP('',(#143,#144,#145,#146));
#63=EDGE_LOOP('',(#147));
#64=EDGE_LOOP('',(#148));
#65=EDGE_LOOP('',(#149));
#66=EDGE_LOOP('',(#150,#151));
#67=EDGE_LOOP('',(#152,#153,#154,#155));
#68=EDGE_LOOP('',(#156,#157,#158,#159));
#69=CIRCLE('',#189,8.);
#70=CIRCLE('',#190,1.);
#71=CIRCLE('',#191,9.);
#72=CIRCLE('',#192,9.);
#73=CIRCLE('',#194,9.);
#74=CIRCLE('',#196,2.16666666666667);
#75=CIRCLE('',#198,20.);
#76=CIRCLE('',#199,5.);
#77=CIRCLE('',#200,15.);
#78=CIRCLE('',#201,20.);
#79=CIRCLE('',#204,20.);
#80=CIRCLE('',#206,10.);
#81=CIRCLE('',#207,10.);
#82=CIRCLE('',#211,2.16666666666667);
#83=VERTEX_POINT('',#277);
#84=VERTEX_POINT('',#279);
#85=VERTEX_POINT('',#281);
#86=VERTEX_POINT('',#285);
#87=VERTEX_POINT('',#289);
#88=VERTEX_POINT('',#290);
#89=VERTEX_POINT('',#294);
#90=VERTEX_POINT('',#295);
#91=VERTEX_POINT('',#297);
#92=VERTEX_POINT('',#303);
#93=VERTEX_POINT('',#307);
#94=VERTEX_POINT('',#309);
#95=VERTEX_POINT('',#315);
#96=VERTEX_POINT('',#316);
#97=EDGE_CURVE('',#83,#83,#69,.T.);
#98=EDGE_CURVE('',#83,#84,#70,.T.);
#99=EDGE_CURVE('',#84,#85,#71,.T.);
#100=EDGE_CURVE('',#85,#84,#72,.T.);
#101=EDGE_CURVE('',#85,#86,#24,.T.);
#102=EDGE_CURVE('',#86,#86,#73,.T.);
#103=EDGE_CURVE('',#87,#88,#74,.T.);
#104=EDGE_CURVE('',#88,#87,#25,.T.);
#105=EDGE_CURVE('',#89,#90,#75,.T.);
#106=EDGE_CURVE('',#90,#91,#76,.T.);
#107=EDGE_CURVE('',#91,#91,#77,.T.);
#108=EDGE_CURVE('',#90,#89,#78,.T.);
#109=EDGE_CURVE('',#92,#92,#79,.T.);
#110=EDGE_CURVE('',#92,#89,#26,.T.);
#111=EDGE_CURVE('',#93,#93,#80,.T.);
#112=EDGE_CURVE('',#93,#94,#27,.T.);
#113=EDGE_CURVE('',#94,#94,#81,.T.);
#114=EDGE_CURVE('',#95,#96,#28,.T.);
#115=EDGE_CURVE('',#96,#95,#82,.T.);
#116=EDGE_CURVE('',#95,#87,#29,.T.);
#117=EDGE_CURVE('',#96,#88,#30,.T.);
#118=ORIENTED_EDGE('',*,*,#97,.T.);
#119=ORIENTED_EDGE('',*,*,#98,.T.);
#120=ORIENTED_EDGE('',*,*,#99,.T.);
#121=ORIENTED_EDGE('',*,*,#100,.T.);
#122=ORIENTED_EDGE('',*,*,#98,.F.);
#123=ORIENTED_EDGE('',*,*,#100,.F.);
#124=ORIENTED_EDGE('',*,*,#101,.T.);
#125=ORIENTED_EDGE('',*,*,#102,.F.);
#126=ORIENTED_EDGE('',*,*,#101,.F.);
#127=ORIENTED_EDGE('',*,*,#99,.F.);
#128=ORIENTED_EDGE('',*,*,#97,.F.);
#129=ORIENTED_EDGE('',*,*,#103,.T.);
#130=ORIENTED_EDGE('',*,*,#104,.T.);
#131=ORIENTED_EDGE('',*,*,#105,.T.);
#132=ORIENTED_EDGE('',*,*,#106,.T.);
#133=ORIENTED_EDGE('',*,*,#107,.T.);
#134=ORIENTED_EDGE('',*,*,#106,.F.);
#135=ORIENTED_EDGE('',*,*,#108,.T.);
#136=ORIENTED_EDGE('',*,*,#107,.F.);
#137=ORIENTED_EDGE('',*,*,#102,.T.);
#138=ORIENTED_EDGE('',*,*,#109,.F.);
#139=ORIENTED_EDGE('',*,*,#110,.T.);
#140=ORIENTED_EDGE('',*,*,#108,.F.);
#141=ORIENTED_EDGE('',*,*,#105,.F.);
#142=ORIENTED_EDGE('',*,*,#110,.F.);
#143=ORIENTED_EDGE('',*,*,#111,.F.);
#144=ORIENTED_EDGE('',*,*,#112,.T.);
#145=ORIENTED_EDGE('',*,*,#113,.T.);
#146=ORIENTED_EDGE('',*,*,#112,.F.);
#147=ORIENTED_EDGE('',*,*,#113,.F.);
#148=ORIENTED_EDGE('',*,*,#109,.T.);
#149=ORIENTED_EDGE('',*,*,#111,.T.);
#150=ORIENTED_EDGE('',*,*,#114,.T.);
#151=ORIENTED_EDGE('',*,*,#115,.T.);
#152=ORIENTED_EDGE('',*,*,#114,.F.);
#153=ORIENTED_EDGE('',*,*,#116,.T.);
#154=ORIENTED_EDGE('',*,*,#104,.F.);
#155=ORIENTED_EDGE('',*,*,#117,.F.);
#156=ORIENTED_EDGE('',*,*,#115,.F.);
#157=ORIENTED_EDGE('',*,*,#117,.T.);
#158=ORIENTED_EDGE('',*,*,#103,.F.);
#159=ORIENTED_EDGE('',*,*,#116,.F.);
#160=TOROIDAL_SURFACE('',#188,8.,1.);
#161=TOROIDAL_SURFACE('',#197,15.,5.);
#162=ADVANCED_FACE('',(#42),#160,.T.);
#163=ADVANCED_FACE('',(#43),#38,.T.);
#164=ADVANCED_FACE('',(#44,#15),#18,.F.);
#165=ADVANCED_FACE('',(#45),#161,.T.);
#166=ADVANCED_FACE('',(#46,#16),#19,.F.);
#167=ADVANCED_FACE('',(#47),#39,.T.);
#168=ADVANCED_FACE('',(#48),#40,.F.);
#169=ADVANCED_FACE('',(#49),#20,.T.);
#170=ADVANCED_FACE('',(#50,#17),#21,.T.);
#171=ADVANCED_FACE('',(#51),#22,.F.);
#172=ADVANCED_FACE('',(#52),#23,.T.);
#173=ADVANCED_FACE('',(#53),#41,.F.);
#174=CLOSED_SHELL('',(#162,#163,#164,#165,#166,#167,#168,#169,#170,#171,
#172,#173));
#175=DERIVED_UNIT_ELEMENT(#177,1.);
#176=DERIVED_UNIT_ELEMENT(#328,-3.);
#177=(
MASS_UNIT()
NAMED_UNIT(*)
SI_UNIT(.KILO.,.GRAM.)
);
#178=DERIVED_UNIT((#175,#176));
#179=MEASURE_REPRESENTATION_ITEM('density measure',
POSITIVE_RATIO_MEASURE(7850.),#178);
#180=PROPERTY_DEFINITION_REPRESENTATION(#185,#182);
#181=PROPERTY_DEFINITION_REPRESENTATION(#186,#183);
#182=REPRESENTATION('material name',(#184),#325);
#183=REPRESENTATION('density',(#179),#325);
#184=DESCRIPTIVE_REPRESENTATION_ITEM('Steel','Steel');
#185=PROPERTY_DEFINITION('material property','material name',#335);
#186=PROPERTY_DEFINITION('material property','density of part',#335);
#187=AXIS2_PLACEMENT_3D('',#275,#214,#215);
#188=AXIS2_PLACEMENT_3D('',#276,#216,#217);
#189=AXIS2_PLACEMENT_3D('',#278,#218,#219);
#190=AXIS2_PLACEMENT_3D('',#280,#220,#221);
#191=AXIS2_PLACEMENT_3D('',#282,#222,#223);
#192=AXIS2_PLACEMENT_3D('',#283,#224,#225);
#193=AXIS2_PLACEMENT_3D('',#284,#226,#227);
#194=AXIS2_PLACEMENT_3D('',#287,#229,#230);
#195=AXIS2_PLACEMENT_3D('',#288,#231,#232);
#196=AXIS2_PLACEMENT_3D('',#291,#233,#234);
#197=AXIS2_PLACEMENT_3D('',#293,#236,#237);
#198=AXIS2_PLACEMENT_3D('',#296,#238,#239);
#199=AXIS2_PLACEMENT_3D('',#298,#240,#241);
#200=AXIS2_PLACEMENT_3D('',#299,#242,#243);
#201=AXIS2_PLACEMENT_3D('',#300,#244,#245);
#202=AXIS2_PLACEMENT_3D('',#301,#246,#247);
#203=AXIS2_PLACEMENT_3D('',#302,#248,#249);
#204=AXIS2_PLACEMENT_3D('',#304,#250,#251);
#205=AXIS2_PLACEMENT_3D('',#306,#253,#254);
#206=AXIS2_PLACEMENT_3D('',#308,#255,#256);
#207=AXIS2_PLACEMENT_3D('',#311,#258,#259);
#208=AXIS2_PLACEMENT_3D('',#312,#260,#261);
#209=AXIS2_PLACEMENT_3D('',#313,#262,#263);
#210=AXIS2_PLACEMENT_3D('',#314,#264,#265);
#211=AXIS2_PLACEMENT_3D('',#318,#267,#268);
#212=AXIS2_PLACEMENT_3D('',#319,#269,#270);
#213=AXIS2_PLACEMENT_3D('',#322,#273,#274);
#214=DIRECTION('axis',(0.,0.,1.));
#215=DIRECTION('refdir',(1.,0.,0.));
#216=DIRECTION('center_axis',(0.,0.,-1.));
#217=DIRECTION('ref_axis',(-1.,0.,0.));
#218=DIRECTION('center_axis',(0.,0.,1.));
#219=DIRECTION('ref_axis',(1.,0.,0.));
#220=DIRECTION('center_axis',(-1.2335811384724E-16,-1.,0.));
#221=DIRECTION('ref_axis',(1.,-1.2335811384724E-16,0.));
#222=DIRECTION('center_axis',(0.,0.,-1.));
#223=DIRECTION('ref_axis',(1.,0.,0.));
#224=DIRECTION('center_axis',(0.,0.,-1.));
#225=DIRECTION('ref_axis',(1.,0.,0.));
#226=DIRECTION('center_axis',(0.,0.,-1.));
#227=DIRECTION('ref_axis',(1.,0.,0.));
#228=DIRECTION('',(0.,0.,1.));
#229=DIRECTION('center_axis',(0.,0.,1.));
#230=DIRECTION('ref_axis',(1.,0.,0.));
#231=DIRECTION('center_axis',(0.,0.,1.));
#232=DIRECTION('ref_axis',(-1.,0.,0.));
#233=DIRECTION('center_axis',(0.,0.,1.));
#234=DIRECTION('ref_axis',(0.923076923076923,-0.384615384615385,0.));
#235=DIRECTION('',(1.,-4.16333634234434E-16,0.));
#236=DIRECTION('center_axis',(0.,0.,1.));
#237=DIRECTION('ref_axis',(1.,0.,0.));
#238=DIRECTION('center_axis',(0.,0.,-1.));
#239=DIRECTION('ref_axis',(-1.,0.,0.));
#240=DIRECTION('center_axis',(1.21430643318376E-16,-1.,0.));
#241=DIRECTION('ref_axis',(-1.,-1.21430643318376E-16,0.));
#242=DIRECTION('center_axis',(0.,0.,1.));
#243=DIRECTION('ref_axis',(-1.,0.,0.));
#244=DIRECTION('center_axis',(0.,0.,-1.));
#245=DIRECTION('ref_axis',(-1.,0.,0.));
#246=DIRECTION('center_axis',(0.,0.,1.));
#247=DIRECTION('ref_axis',(-1.,0.,0.));
#248=DIRECTION('center_axis',(0.,0.,1.));
#249=DIRECTION('ref_axis',(-1.,0.,0.));
#250=DIRECTION('center_axis',(0.,0.,1.));
#251=DIRECTION('ref_axis',(-1.,0.,0.));
#252=DIRECTION('',(0.,0.,-1.));
#253=DIRECTION('center_axis',(0.,0.,-1.));
#254=DIRECTION('ref_axis',(-1.,0.,0.));
#255=DIRECTION('center_axis',(0.,0.,-1.));
#256=DIRECTION('ref_axis',(-1.,0.,0.));
#257=DIRECTION('',(0.,0.,-1.));
#258=DIRECTION('center_axis',(0.,0.,-1.));
#259=DIRECTION('ref_axis',(-1.,0.,0.));
#260=DIRECTION('center_axis',(0.,0.,1.));
#261=DIRECTION('ref_axis',(-1.,0.,0.));
#262=DIRECTION('center_axis',(0.,0.,1.));
#263=DIRECTION('ref_axis',(-1.,0.,0.));
#264=DIRECTION('center_axis',(0.,0.,1.));
#265=DIRECTION('ref_axis',(-1.,0.,0.));
#266=DIRECTION('',(-1.,4.16333634234434E-16,0.));
#267=DIRECTION('center_axis',(0.,0.,-1.));
#268=DIRECTION('ref_axis',(0.923076923076923,-0.384615384615385,0.));
#269=DIRECTION('center_axis',(4.16333634234434E-16,1.,0.));
#270=DIRECTION('ref_axis',(1.,-4.16333634234434E-16,0.));
#271=DIRECTION('',(0.,0.,-1.));
#272=DIRECTION('',(0.,0.,-1.));
#273=DIRECTION('center_axis',(0.,0.,-1.));
#274=DIRECTION('ref_axis',(7.04564611781349E-16,1.,0.));
#275=CARTESIAN_POINT('',(0.,0.,0.));
#276=CARTESIAN_POINT('Origin',(3.60822483003176E-16,0.500000000000001,-4.));
#277=CARTESIAN_POINT('',(8.,0.5,-5.));
#278=CARTESIAN_POINT('Origin',(3.60822483003176E-16,0.500000000000001,-5.));
#279=CARTESIAN_POINT('',(9.,0.5,-4.));
#280=CARTESIAN_POINT('Origin',(8.,0.5,-4.));
#281=CARTESIAN_POINT('',(-9.,0.500000000000002,-4.));
#282=CARTESIAN_POINT('Origin',(3.60822483003176E-16,0.500000000000001,-4.));
#283=CARTESIAN_POINT('Origin',(3.60822483003176E-16,0.500000000000001,-4.));
#284=CARTESIAN_POINT('Origin',(3.60822483003176E-16,0.500000000000001,40.));
#285=CARTESIAN_POINT('',(-9.,0.500000000000002,40.));
#286=CARTESIAN_POINT('',(-9.,0.500000000000002,40.));
#287=CARTESIAN_POINT('Origin',(3.60822483003176E-16,0.500000000000001,40.));
#288=CARTESIAN_POINT('Origin',(5.55111512312578E-16,1.5,-5.));
#289=CARTESIAN_POINT('',(2.,1.38777878078145E-16,-5.));
#290=CARTESIAN_POINT('',(-2.,3.05311331771918E-15,-5.));
#291=CARTESIAN_POINT('Origin',(0.,0.833333333333334,-5.));
#292=CARTESIAN_POINT('',(-2.,1.66533453693773E-15,-5.));
#293=CARTESIAN_POINT('Origin',(3.60822483003176E-16,0.500000000000001,45.));
#294=CARTESIAN_POINT('',(20.,0.499999999999999,45.));
#295=CARTESIAN_POINT('',(-20.,0.499999999999999,45.));
#296=CARTESIAN_POINT('Origin',(3.60822483003176E-16,0.500000000000001,45.));
#297=CARTESIAN_POINT('',(-15.,0.499999999999999,40.));
#298=CARTESIAN_POINT('Origin',(-15.,0.499999999999999,45.));
#299=CARTESIAN_POINT('Origin',(3.60822483003176E-16,0.500000000000001,40.));
#300=CARTESIAN_POINT('Origin',(3.60822483003176E-16,0.500000000000001,45.));
#301=CARTESIAN_POINT('Origin',(0.,0.500000000000003,40.));
#302=CARTESIAN_POINT('Origin',(3.60822483003176E-16,0.500000000000001,40.));
#303=CARTESIAN_POINT('',(20.,0.500000000000003,140.));
#304=CARTESIAN_POINT('Origin',(3.60822483003176E-16,0.500000000000001,140.));
#305=CARTESIAN_POINT('',(20.,0.500000000000003,40.));
#306=CARTESIAN_POINT('Origin',(3.60822483003176E-16,0.500000000000001,140.));
#307=CARTESIAN_POINT('',(10.,0.500000000000002,140.));
#308=CARTESIAN_POINT('Origin',(3.60822483003176E-16,0.500000000000001,140.));
#309=CARTESIAN_POINT('',(10.,0.500000000000002,45.));
#310=CARTESIAN_POINT('',(10.,0.5,140.));
#311=CARTESIAN_POINT('Origin',(3.60822483003176E-16,0.500000000000001,45.));
#312=CARTESIAN_POINT('Origin',(0.,0.5,45.));
#313=CARTESIAN_POINT('Origin',(0.,0.500000000000003,140.));
#314=CARTESIAN_POINT('Origin',(0.,0.5,20.));
#315=CARTESIAN_POINT('',(2.,1.38777878078145E-16,20.));
#316=CARTESIAN_POINT('',(-2.,3.05311331771918E-15,20.));
#317=CARTESIAN_POINT('',(-2.,1.66533453693773E-15,20.));
#318=CARTESIAN_POINT('Origin',(0.,0.833333333333334,20.));
#319=CARTESIAN_POINT('Origin',(-2.,1.66533453693773E-15,20.));
#320=CARTESIAN_POINT('',(2.,1.38777878078145E-16,20.));
#321=CARTESIAN_POINT('',(-2.,3.05311331771918E-15,20.));
#322=CARTESIAN_POINT('Origin',(0.,0.833333333333334,20.));
#323=UNCERTAINTY_MEASURE_WITH_UNIT(LENGTH_MEASURE(0.01),#327,
'DISTANCE_ACCURACY_VALUE',
'Maximum model space distance between geometric entities at asserted c
onnectivities');
#324=UNCERTAINTY_MEASURE_WITH_UNIT(LENGTH_MEASURE(0.01),#327,
'DISTANCE_ACCURACY_VALUE',
'Maximum model space distance between geometric entities at asserted c
onnectivities');
#325=(
GEOMETRIC_REPRESENTATION_CONTEXT(3)
GLOBAL_UNCERTAINTY_ASSIGNED_CONTEXT((#323))
GLOBAL_UNIT_ASSIGNED_CONTEXT((#327,#329,#330))
REPRESENTATION_CONTEXT('','3D')
);
#326=(
GEOMETRIC_REPRESENTATION_CONTEXT(3)
GLOBAL_UNCERTAINTY_ASSIGNED_CONTEXT((#324))
GLOBAL_UNIT_ASSIGNED_CONTEXT((#327,#329,#330))
REPRESENTATION_CONTEXT('','3D')
);
#327=(
LENGTH_UNIT()
NAMED_UNIT(*)
SI_UNIT(.MILLI.,.METRE.)
);
#328=(
LENGTH_UNIT()
NAMED_UNIT(*)
SI_UNIT($,.METRE.)
);
#329=(
NAMED_UNIT(*)
PLANE_ANGLE_UNIT()
SI_UNIT($,.RADIAN.)
);
#330=(
NAMED_UNIT(*)
SI_UNIT($,.STERADIAN.)
SOLID_ANGLE_UNIT()
);
#331=SHAPE_DEFINITION_REPRESENTATION(#332,#333);
#332=PRODUCT_DEFINITION_SHAPE('',$,#335);
#333=SHAPE_REPRESENTATION('',(#187),#325);
#334=PRODUCT_DEFINITION_CONTEXT('part definition',#339,'design');
#335=PRODUCT_DEFINITION('FusionComponent','FusionComponent',#336,#334);
#336=PRODUCT_DEFINITION_FORMATION('',$,#341);
#337=PRODUCT_RELATED_PRODUCT_CATEGORY('FusionComponent',
'FusionComponent',(#341));
#338=APPLICATION_PROTOCOL_DEFINITION('international standard',
'automotive_design',2009,#339);
#339=APPLICATION_CONTEXT(
'Core Data for Automotive Mechanical Design Process');
#340=PRODUCT_CONTEXT('part definition',#339,'mechanical');
#341=PRODUCT('FusionComponent','FusionComponent',$,(#340));
#342=PRESENTATION_STYLE_ASSIGNMENT((#343));
#343=SURFACE_STYLE_USAGE(.BOTH.,#344);
#344=SURFACE_SIDE_STYLE('',(#345));
#345=SURFACE_STYLE_FILL_AREA(#346);
#346=FILL_AREA_STYLE('Steel - Satin',(#347));
#347=FILL_AREA_STYLE_COLOUR('Steel - Satin',#348);
#348=COLOUR_RGB('Steel - Satin',0.627450980392157,0.627450980392157,0.627450980392157);
ENDSEC;
END-ISO-10303-21;
