ISO-10303-21;
HEADER;
/* Generated by software containing ST-Developer
 * from STEP Tools, Inc. (www.steptools.com) 
 */

FILE_DESCRIPTION(
/* description */ (''),
/* implementation_level */ '2;1');

FILE_NAME(
/* name */ 'Join 3 .step',
/* time_stamp */ '2024-03-30T14:12:35+05:30',
/* author */ (''),
/* organization */ (''),
/* preprocessor_version */ 'ST-DEVELOPER v20',
/* originating_system */ 'Autodesk Translation Framework v12.20.1.177',

/* authorisation */ '');

FILE_SCHEMA (('AUTOMOTIVE_DESIGN { 1 0 10303 214 3 1 1 }'));
ENDSEC;

DATA;
#10=MECHANICAL_DESIGN_GEOMETRIC_PRESENTATION_REPRESENTATION('',(#13),#1564);
#11=SHAPE_REPRESENTATION_RELATIONSHIP('SRR','None',#1571,#12);
#12=ADVANCED_BREP_SHAPE_REPRESENTATION('',(#846),#1563);
#13=STYLED_ITEM('',(#1580),#846);
#14=B_SPLINE_CURVE_WITH_KNOTS('',3,(#1378,#1379,#1380,#1381,#1382,#1383,
#1384,#1385,#1386,#1387,#1388,#1389,#1390,#1391),.UNSPECIFIED.,.F.,.F.,
(4,2,2,2,2,2,4),(4.74182210360595,5.06531235270353,5.42022185227662,5.77513135184971,
6.1300408514228,6.48495035099589,6.80844060009348),.UNSPECIFIED.);
#15=B_SPLINE_CURVE_WITH_KNOTS('',3,(#1395,#1396,#1397,#1398,#1399,#1400,
#1401,#1402,#1403,#1404,#1405,#1406,#1407,#1408),.UNSPECIFIED.,.F.,.F.,
(4,2,2,2,2,2,4),(4.74182210360595,5.06531235270353,5.42022185227662,5.77513135184971,
6.1300408514228,6.48495035099589,6.80844060009348),.UNSPECIFIED.);
#16=B_SPLINE_CURVE_WITH_KNOTS('',3,(#1416,#1417,#1418,#1419,#1420,#1421,
#1422,#1423,#1424,#1425,#1426,#1427,#1428,#1429),.UNSPECIFIED.,.F.,.F.,
(4,2,2,2,2,2,4),(4.74182210360594,5.06531235270353,5.42022185227662,5.77513135184971,
6.1300408514228,6.48495035099589,6.80844060009348),.UNSPECIFIED.);
#17=B_SPLINE_CURVE_WITH_KNOTS('',3,(#1433,#1434,#1435,#1436,#1437,#1438,
#1439,#1440,#1441,#1442,#1443,#1444,#1445,#1446),.UNSPECIFIED.,.F.,.F.,
(4,2,2,2,2,2,4),(4.74182210360595,5.06531235270353,5.42022185227662,5.77513135184971,
6.1300408514228,6.48495035099589,6.80844060009348),.UNSPECIFIED.);
#18=FACE_BOUND('',#235,.T.);
#19=FACE_BOUND('',#239,.T.);
#20=FACE_BOUND('',#240,.T.);
#21=FACE_BOUND('',#241,.T.);
#22=FACE_BOUND('',#242,.T.);
#23=FACE_BOUND('',#243,.T.);
#24=FACE_BOUND('',#244,.T.);
#25=FACE_BOUND('',#245,.T.);
#26=FACE_BOUND('',#261,.T.);
#27=FACE_BOUND('',#262,.T.);
#28=FACE_BOUND('',#263,.T.);
#29=FACE_BOUND('',#264,.T.);
#30=FACE_BOUND('',#265,.T.);
#31=FACE_BOUND('',#278,.T.);
#32=FACE_BOUND('',#279,.T.);
#33=FACE_BOUND('',#280,.T.);
#34=FACE_BOUND('',#281,.T.);
#35=FACE_BOUND('',#282,.T.);
#36=FACE_BOUND('',#283,.T.);
#37=TOROIDAL_SURFACE('',#890,14.,4.);
#38=TOROIDAL_SURFACE('',#900,11.5,1.5);
#39=TOROIDAL_SURFACE('',#914,20.25,10.25);
#40=TOROIDAL_SURFACE('',#919,20.25,10.25);
#41=ORIENTED_CLOSED_SHELL('',*,#839,.F.);
#42=ORIENTED_CLOSED_SHELL('',*,#840,.F.);
#43=ORIENTED_CLOSED_SHELL('',*,#841,.F.);
#44=ORIENTED_CLOSED_SHELL('',*,#842,.F.);
#45=ORIENTED_CLOSED_SHELL('',*,#843,.F.);
#46=ORIENTED_CLOSED_SHELL('',*,#844,.F.);
#47=LINE('',#1276,#88);
#48=LINE('',#1284,#89);
#49=LINE('',#1292,#90);
#50=LINE('',#1300,#91);
#51=LINE('',#1308,#92);
#52=LINE('',#1316,#93);
#53=LINE('',#1326,#94);
#54=LINE('',#1335,#95);
#55=LINE('',#1338,#96);
#56=LINE('',#1349,#97);
#57=LINE('',#1354,#98);
#58=LINE('',#1356,#99);
#59=LINE('',#1358,#100);
#60=LINE('',#1359,#101);
#61=LINE('',#1466,#102);
#62=LINE('',#1469,#103);
#63=LINE('',#1473,#104);
#64=LINE('',#1477,#105);
#65=LINE('',#1481,#106);
#66=LINE('',#1485,#107);
#67=LINE('',#1487,#108);
#68=LINE('',#1488,#109);
#69=LINE('',#1491,#110);
#70=LINE('',#1493,#111);
#71=LINE('',#1494,#112);
#72=LINE('',#1501,#113);
#73=LINE('',#1502,#114);
#74=LINE('',#1504,#115);
#75=LINE('',#1505,#116);
#76=LINE('',#1512,#117);
#77=LINE('',#1518,#118);
#78=LINE('',#1525,#119);
#79=LINE('',#1530,#120);
#80=LINE('',#1533,#121);
#81=LINE('',#1535,#122);
#82=LINE('',#1550,#123);
#83=LINE('',#1552,#124);
#84=LINE('',#1554,#125);
#85=LINE('',#1556,#126);
#86=LINE('',#1558,#127);
#87=LINE('',#1560,#128);
#88=VECTOR('',#992,1.);
#89=VECTOR('',#1003,1.);
#90=VECTOR('',#1014,1.);
#91=VECTOR('',#1025,1.);
#92=VECTOR('',#1036,1.);
#93=VECTOR('',#1047,1.);
#94=VECTOR('',#1060,10.);
#95=VECTOR('',#1069,10.);
#96=VECTOR('',#1072,10.);
#97=VECTOR('',#1085,10.);
#98=VECTOR('',#1090,10.);
#99=VECTOR('',#1091,10.);
#100=VECTOR('',#1092,10.);
#101=VECTOR('',#1093,10.);
#102=VECTOR('',#1150,2.9);
#103=VECTOR('',#1153,1.1);
#104=VECTOR('',#1158,1.1);
#105=VECTOR('',#1163,1.1);
#106=VECTOR('',#1168,1.1);
#107=VECTOR('',#1173,10.);
#108=VECTOR('',#1174,10.);
#109=VECTOR('',#1175,10.);
#110=VECTOR('',#1178,10.);
#111=VECTOR('',#1179,10.);
#112=VECTOR('',#1180,10.);
#113=VECTOR('',#1193,10.);
#114=VECTOR('',#1194,10.);
#115=VECTOR('',#1197,10.);
#116=VECTOR('',#1198,10.);
#117=VECTOR('',#1207,10.);
#118=VECTOR('',#1214,10.);
#119=VECTOR('',#1223,10.);
#120=VECTOR('',#1228,10.);
#121=VECTOR('',#1233,10.);
#122=VECTOR('',#1236,10.);
#123=VECTOR('',#1253,1.);
#124=VECTOR('',#1256,1.);
#125=VECTOR('',#1259,1.);
#126=VECTOR('',#1262,1.);
#127=VECTOR('',#1265,1.);
#128=VECTOR('',#1268,1.);
#129=CYLINDRICAL_SURFACE('',#862,1.);
#130=CYLINDRICAL_SURFACE('',#867,1.);
#131=CYLINDRICAL_SURFACE('',#872,1.);
#132=CYLINDRICAL_SURFACE('',#877,1.);
#133=CYLINDRICAL_SURFACE('',#882,1.);
#134=CYLINDRICAL_SURFACE('',#887,1.);
#135=CYLINDRICAL_SURFACE('',#894,10.);
#136=CYLINDRICAL_SURFACE('',#905,10.);
#137=CYLINDRICAL_SURFACE('',#934,2.9);
#138=CYLINDRICAL_SURFACE('',#936,1.1);
#139=CYLINDRICAL_SURFACE('',#938,1.1);
#140=CYLINDRICAL_SURFACE('',#940,1.1);
#141=CYLINDRICAL_SURFACE('',#942,1.1);
#142=CYLINDRICAL_SURFACE('',#949,20.25);
#143=CYLINDRICAL_SURFACE('',#950,20.25);
#144=CYLINDRICAL_SURFACE('',#951,20.25);
#145=CYLINDRICAL_SURFACE('',#952,20.25);
#146=CYLINDRICAL_SURFACE('',#955,6.);
#147=CYLINDRICAL_SURFACE('',#962,6.);
#148=CYLINDRICAL_SURFACE('',#967,72.8310951698741);
#149=CYLINDRICAL_SURFACE('',#975,72.831095169874);
#150=CYLINDRICAL_SURFACE('',#976,1.);
#151=CYLINDRICAL_SURFACE('',#977,1.);
#152=CYLINDRICAL_SURFACE('',#978,1.);
#153=CYLINDRICAL_SURFACE('',#979,1.);
#154=CYLINDRICAL_SURFACE('',#980,1.);
#155=CYLINDRICAL_SURFACE('',#981,1.);
#156=FACE_OUTER_BOUND('',#214,.T.);
#157=FACE_OUTER_BOUND('',#215,.T.);
#158=FACE_OUTER_BOUND('',#216,.T.);
#159=FACE_OUTER_BOUND('',#217,.T.);
#160=FACE_OUTER_BOUND('',#218,.T.);
#161=FACE_OUTER_BOUND('',#219,.T.);
#162=FACE_OUTER_BOUND('',#220,.T.);
#163=FACE_OUTER_BOUND('',#221,.T.);
#164=FACE_OUTER_BOUND('',#222,.T.);
#165=FACE_OUTER_BOUND('',#223,.T.);
#166=FACE_OUTER_BOUND('',#224,.T.);
#167=FACE_OUTER_BOUND('',#225,.T.);
#168=FACE_OUTER_BOUND('',#226,.T.);
#169=FACE_OUTER_BOUND('',#227,.T.);
#170=FACE_OUTER_BOUND('',#228,.T.);
#171=FACE_OUTER_BOUND('',#229,.T.);
#172=FACE_OUTER_BOUND('',#230,.T.);
#173=FACE_OUTER_BOUND('',#231,.T.);
#174=FACE_OUTER_BOUND('',#232,.T.);
#175=FACE_OUTER_BOUND('',#233,.T.);
#176=FACE_OUTER_BOUND('',#234,.T.);
#177=FACE_OUTER_BOUND('',#236,.T.);
#178=FACE_OUTER_BOUND('',#237,.T.);
#179=FACE_OUTER_BOUND('',#238,.T.);
#180=FACE_OUTER_BOUND('',#246,.T.);
#181=FACE_OUTER_BOUND('',#247,.T.);
#182=FACE_OUTER_BOUND('',#248,.T.);
#183=FACE_OUTER_BOUND('',#249,.T.);
#184=FACE_OUTER_BOUND('',#250,.T.);
#185=FACE_OUTER_BOUND('',#251,.T.);
#186=FACE_OUTER_BOUND('',#252,.T.);
#187=FACE_OUTER_BOUND('',#253,.T.);
#188=FACE_OUTER_BOUND('',#254,.T.);
#189=FACE_OUTER_BOUND('',#255,.T.);
#190=FACE_OUTER_BOUND('',#256,.T.);
#191=FACE_OUTER_BOUND('',#257,.T.);
#192=FACE_OUTER_BOUND('',#258,.T.);
#193=FACE_OUTER_BOUND('',#259,.T.);
#194=FACE_OUTER_BOUND('',#260,.T.);
#195=FACE_OUTER_BOUND('',#266,.T.);
#196=FACE_OUTER_BOUND('',#267,.T.);
#197=FACE_OUTER_BOUND('',#268,.T.);
#198=FACE_OUTER_BOUND('',#269,.T.);
#199=FACE_OUTER_BOUND('',#270,.T.);
#200=FACE_OUTER_BOUND('',#271,.T.);
#201=FACE_OUTER_BOUND('',#272,.T.);
#202=FACE_OUTER_BOUND('',#273,.T.);
#203=FACE_OUTER_BOUND('',#274,.T.);
#204=FACE_OUTER_BOUND('',#275,.T.);
#205=FACE_OUTER_BOUND('',#276,.T.);
#206=FACE_OUTER_BOUND('',#277,.T.);
#207=FACE_OUTER_BOUND('',#284,.T.);
#208=FACE_OUTER_BOUND('',#285,.T.);
#209=FACE_OUTER_BOUND('',#286,.T.);
#210=FACE_OUTER_BOUND('',#287,.T.);
#211=FACE_OUTER_BOUND('',#288,.T.);
#212=FACE_OUTER_BOUND('',#289,.T.);
#213=FACE_OUTER_BOUND('',#290,.T.);
#214=EDGE_LOOP('',(#536));
#215=EDGE_LOOP('',(#537,#538,#539,#540));
#216=EDGE_LOOP('',(#541));
#217=EDGE_LOOP('',(#542));
#218=EDGE_LOOP('',(#543,#544,#545,#546));
#219=EDGE_LOOP('',(#547));
#220=EDGE_LOOP('',(#548));
#221=EDGE_LOOP('',(#549,#550,#551,#552));
#222=EDGE_LOOP('',(#553));
#223=EDGE_LOOP('',(#554));
#224=EDGE_LOOP('',(#555,#556,#557,#558));
#225=EDGE_LOOP('',(#559));
#226=EDGE_LOOP('',(#560));
#227=EDGE_LOOP('',(#561,#562,#563,#564));
#228=EDGE_LOOP('',(#565));
#229=EDGE_LOOP('',(#566));
#230=EDGE_LOOP('',(#567,#568,#569,#570));
#231=EDGE_LOOP('',(#571));
#232=EDGE_LOOP('',(#572,#573,#574,#575));
#233=EDGE_LOOP('',(#576,#577,#578,#579,#580));
#234=EDGE_LOOP('',(#581,#582,#583,#584));
#235=EDGE_LOOP('',(#585));
#236=EDGE_LOOP('',(#586,#587,#588,#589,#590));
#237=EDGE_LOOP('',(#591,#592,#593,#594,#595));
#238=EDGE_LOOP('',(#596,#597,#598,#599));
#239=EDGE_LOOP('',(#600));
#240=EDGE_LOOP('',(#601));
#241=EDGE_LOOP('',(#602));
#242=EDGE_LOOP('',(#603));
#243=EDGE_LOOP('',(#604));
#244=EDGE_LOOP('',(#605));
#245=EDGE_LOOP('',(#606));
#246=EDGE_LOOP('',(#607,#608,#609,#610,#611,#612,#613,#614));
#247=EDGE_LOOP('',(#615,#616,#617,#618,#619,#620,#621,#622,#623));
#248=EDGE_LOOP('',(#624));
#249=EDGE_LOOP('',(#625));
#250=EDGE_LOOP('',(#626));
#251=EDGE_LOOP('',(#627));
#252=EDGE_LOOP('',(#628));
#253=EDGE_LOOP('',(#629,#630,#631,#632));
#254=EDGE_LOOP('',(#633,#634,#635,#636));
#255=EDGE_LOOP('',(#637,#638,#639,#640));
#256=EDGE_LOOP('',(#641,#642,#643,#644));
#257=EDGE_LOOP('',(#645,#646,#647,#648));
#258=EDGE_LOOP('',(#649,#650,#651,#652));
#259=EDGE_LOOP('',(#653,#654,#655,#656));
#260=EDGE_LOOP('',(#657,#658,#659,#660));
#261=EDGE_LOOP('',(#661));
#262=EDGE_LOOP('',(#662));
#263=EDGE_LOOP('',(#663));
#264=EDGE_LOOP('',(#664));
#265=EDGE_LOOP('',(#665));
#266=EDGE_LOOP('',(#666,#667,#668,#669));
#267=EDGE_LOOP('',(#670,#671,#672,#673));
#268=EDGE_LOOP('',(#674,#675,#676,#677,#678));
#269=EDGE_LOOP('',(#679,#680,#681,#682,#683));
#270=EDGE_LOOP('',(#684,#685,#686,#687));
#271=EDGE_LOOP('',(#688,#689,#690,#691));
#272=EDGE_LOOP('',(#692,#693,#694,#695));
#273=EDGE_LOOP('',(#696,#697,#698,#699,#700,#701));
#274=EDGE_LOOP('',(#702,#703,#704,#705));
#275=EDGE_LOOP('',(#706,#707,#708,#709,#710,#711));
#276=EDGE_LOOP('',(#712,#713,#714,#715));
#277=EDGE_LOOP('',(#716,#717,#718,#719));
#278=EDGE_LOOP('',(#720));
#279=EDGE_LOOP('',(#721));
#280=EDGE_LOOP('',(#722));
#281=EDGE_LOOP('',(#723));
#282=EDGE_LOOP('',(#724));
#283=EDGE_LOOP('',(#725));
#284=EDGE_LOOP('',(#726,#727,#728,#729));
#285=EDGE_LOOP('',(#730,#731,#732,#733));
#286=EDGE_LOOP('',(#734,#735,#736,#737));
#287=EDGE_LOOP('',(#738,#739,#740,#741));
#288=EDGE_LOOP('',(#742,#743,#744,#745));
#289=EDGE_LOOP('',(#746,#747,#748,#749));
#290=EDGE_LOOP('',(#750,#751,#752,#753));
#291=CIRCLE('',#861,1.);
#292=CIRCLE('',#863,1.);
#293=CIRCLE('',#866,1.);
#294=CIRCLE('',#868,1.);
#295=CIRCLE('',#871,1.);
#296=CIRCLE('',#873,1.);
#297=CIRCLE('',#876,1.);
#298=CIRCLE('',#878,1.);
#299=CIRCLE('',#881,1.);
#300=CIRCLE('',#883,1.);
#301=CIRCLE('',#886,1.);
#302=CIRCLE('',#888,1.);
#303=CIRCLE('',#891,10.);
#304=CIRCLE('',#892,4.);
#305=CIRCLE('',#893,14.);
#306=CIRCLE('',#895,10.);
#307=CIRCLE('',#896,10.);
#308=CIRCLE('',#898,20.25);
#309=CIRCLE('',#899,20.25);
#310=CIRCLE('',#901,10.);
#311=CIRCLE('',#902,1.5);
#312=CIRCLE('',#903,11.5);
#313=CIRCLE('',#904,10.);
#314=CIRCLE('',#906,10.);
#315=CIRCLE('',#908,1.);
#316=CIRCLE('',#909,1.);
#317=CIRCLE('',#910,1.);
#318=CIRCLE('',#911,1.);
#319=CIRCLE('',#912,1.);
#320=CIRCLE('',#913,1.);
#321=CIRCLE('',#915,10.25);
#322=CIRCLE('',#916,20.25);
#323=CIRCLE('',#917,20.25);
#324=CIRCLE('',#918,20.25);
#325=CIRCLE('',#920,10.25);
#326=CIRCLE('',#921,20.25);
#327=CIRCLE('',#922,20.25);
#328=CIRCLE('',#923,20.25);
#329=CIRCLE('',#925,1.1);
#330=CIRCLE('',#927,1.1);
#331=CIRCLE('',#929,1.1);
#332=CIRCLE('',#931,1.1);
#333=CIRCLE('',#933,2.9);
#334=CIRCLE('',#935,2.9);
#335=CIRCLE('',#937,1.1);
#336=CIRCLE('',#939,1.1);
#337=CIRCLE('',#941,1.1);
#338=CIRCLE('',#943,1.1);
#339=CIRCLE('',#947,20.25);
#340=CIRCLE('',#948,20.25);
#341=CIRCLE('',#956,6.);
#342=CIRCLE('',#957,6.);
#343=CIRCLE('',#959,72.831095169874);
#344=CIRCLE('',#960,72.8310951698741);
#345=CIRCLE('',#961,6.);
#346=CIRCLE('',#963,6.);
#347=CIRCLE('',#965,72.8310951698741);
#348=CIRCLE('',#966,72.831095169874);
#349=CIRCLE('',#969,1.);
#350=CIRCLE('',#970,1.);
#351=CIRCLE('',#971,1.);
#352=CIRCLE('',#972,1.);
#353=CIRCLE('',#973,1.);
#354=CIRCLE('',#974,1.);
#355=VERTEX_POINT('',#1271);
#356=VERTEX_POINT('',#1274);
#357=VERTEX_POINT('',#1279);
#358=VERTEX_POINT('',#1282);
#359=VERTEX_POINT('',#1287);
#360=VERTEX_POINT('',#1290);
#361=VERTEX_POINT('',#1295);
#362=VERTEX_POINT('',#1298);
#363=VERTEX_POINT('',#1303);
#364=VERTEX_POINT('',#1306);
#365=VERTEX_POINT('',#1311);
#366=VERTEX_POINT('',#1314);
#367=VERTEX_POINT('',#1319);
#368=VERTEX_POINT('',#1321);
#369=VERTEX_POINT('',#1325);
#370=VERTEX_POINT('',#1327);
#371=VERTEX_POINT('',#1331);
#372=VERTEX_POINT('',#1332);
#373=VERTEX_POINT('',#1334);
#374=VERTEX_POINT('',#1336);
#375=VERTEX_POINT('',#1340);
#376=VERTEX_POINT('',#1341);
#377=VERTEX_POINT('',#1343);
#378=VERTEX_POINT('',#1348);
#379=VERTEX_POINT('',#1352);
#380=VERTEX_POINT('',#1353);
#381=VERTEX_POINT('',#1355);
#382=VERTEX_POINT('',#1357);
#383=VERTEX_POINT('',#1360);
#384=VERTEX_POINT('',#1362);
#385=VERTEX_POINT('',#1364);
#386=VERTEX_POINT('',#1366);
#387=VERTEX_POINT('',#1368);
#388=VERTEX_POINT('',#1370);
#389=VERTEX_POINT('',#1373);
#390=VERTEX_POINT('',#1375);
#391=VERTEX_POINT('',#1377);
#392=VERTEX_POINT('',#1392);
#393=VERTEX_POINT('',#1394);
#394=VERTEX_POINT('',#1411);
#395=VERTEX_POINT('',#1413);
#396=VERTEX_POINT('',#1415);
#397=VERTEX_POINT('',#1430);
#398=VERTEX_POINT('',#1432);
#399=VERTEX_POINT('',#1449);
#400=VERTEX_POINT('',#1452);
#401=VERTEX_POINT('',#1455);
#402=VERTEX_POINT('',#1458);
#403=VERTEX_POINT('',#1461);
#404=VERTEX_POINT('',#1464);
#405=VERTEX_POINT('',#1468);
#406=VERTEX_POINT('',#1472);
#407=VERTEX_POINT('',#1476);
#408=VERTEX_POINT('',#1480);
#409=VERTEX_POINT('',#1484);
#410=VERTEX_POINT('',#1486);
#411=VERTEX_POINT('',#1490);
#412=VERTEX_POINT('',#1492);
#413=VERTEX_POINT('',#1509);
#414=VERTEX_POINT('',#1511);
#415=VERTEX_POINT('',#1515);
#416=VERTEX_POINT('',#1517);
#417=VERTEX_POINT('',#1519);
#418=VERTEX_POINT('',#1523);
#419=VERTEX_POINT('',#1527);
#420=VERTEX_POINT('',#1529);
#421=VERTEX_POINT('',#1536);
#422=VERTEX_POINT('',#1538);
#423=VERTEX_POINT('',#1540);
#424=VERTEX_POINT('',#1542);
#425=VERTEX_POINT('',#1544);
#426=VERTEX_POINT('',#1546);
#427=EDGE_CURVE('',#355,#355,#291,.T.);
#428=EDGE_CURVE('',#356,#356,#292,.T.);
#429=EDGE_CURVE('',#356,#355,#47,.T.);
#430=EDGE_CURVE('',#357,#357,#293,.T.);
#431=EDGE_CURVE('',#358,#358,#294,.T.);
#432=EDGE_CURVE('',#358,#357,#48,.T.);
#433=EDGE_CURVE('',#359,#359,#295,.T.);
#434=EDGE_CURVE('',#360,#360,#296,.T.);
#435=EDGE_CURVE('',#360,#359,#49,.T.);
#436=EDGE_CURVE('',#361,#361,#297,.T.);
#437=EDGE_CURVE('',#362,#362,#298,.T.);
#438=EDGE_CURVE('',#362,#361,#50,.T.);
#439=EDGE_CURVE('',#363,#363,#299,.T.);
#440=EDGE_CURVE('',#364,#364,#300,.T.);
#441=EDGE_CURVE('',#364,#363,#51,.T.);
#442=EDGE_CURVE('',#365,#365,#301,.T.);
#443=EDGE_CURVE('',#366,#366,#302,.T.);
#444=EDGE_CURVE('',#366,#365,#52,.T.);
#445=EDGE_CURVE('',#367,#367,#303,.T.);
#446=EDGE_CURVE('',#367,#368,#304,.T.);
#447=EDGE_CURVE('',#368,#368,#305,.T.);
#448=EDGE_CURVE('',#367,#369,#53,.T.);
#449=EDGE_CURVE('',#370,#369,#306,.T.);
#450=EDGE_CURVE('',#369,#370,#307,.T.);
#451=EDGE_CURVE('',#371,#372,#308,.T.);
#452=EDGE_CURVE('',#373,#372,#54,.T.);
#453=EDGE_CURVE('',#373,#374,#309,.T.);
#454=EDGE_CURVE('',#371,#374,#55,.T.);
#455=EDGE_CURVE('',#375,#376,#310,.T.);
#456=EDGE_CURVE('',#376,#377,#311,.T.);
#457=EDGE_CURVE('',#377,#377,#312,.T.);
#458=EDGE_CURVE('',#376,#375,#313,.T.);
#459=EDGE_CURVE('',#375,#378,#56,.T.);
#460=EDGE_CURVE('',#378,#378,#314,.T.);
#461=EDGE_CURVE('',#379,#380,#57,.T.);
#462=EDGE_CURVE('',#381,#379,#58,.T.);
#463=EDGE_CURVE('',#382,#381,#59,.T.);
#464=EDGE_CURVE('',#380,#382,#60,.T.);
#465=EDGE_CURVE('',#383,#383,#315,.T.);
#466=EDGE_CURVE('',#384,#384,#316,.T.);
#467=EDGE_CURVE('',#385,#385,#317,.T.);
#468=EDGE_CURVE('',#386,#386,#318,.T.);
#469=EDGE_CURVE('',#387,#387,#319,.T.);
#470=EDGE_CURVE('',#388,#388,#320,.T.);
#471=EDGE_CURVE('',#378,#389,#321,.T.);
#472=EDGE_CURVE('',#389,#390,#322,.T.);
#473=EDGE_CURVE('',#391,#390,#14,.F.);
#474=EDGE_CURVE('',#391,#392,#323,.T.);
#475=EDGE_CURVE('',#393,#392,#15,.F.);
#476=EDGE_CURVE('',#393,#389,#324,.T.);
#477=EDGE_CURVE('',#370,#394,#325,.T.);
#478=EDGE_CURVE('',#394,#395,#326,.T.);
#479=EDGE_CURVE('',#396,#395,#16,.F.);
#480=EDGE_CURVE('',#396,#397,#327,.T.);
#481=EDGE_CURVE('',#398,#397,#17,.F.);
#482=EDGE_CURVE('',#398,#394,#328,.T.);
#483=EDGE_CURVE('',#399,#399,#329,.T.);
#484=EDGE_CURVE('',#400,#400,#330,.T.);
#485=EDGE_CURVE('',#401,#401,#331,.T.);
#486=EDGE_CURVE('',#402,#402,#332,.T.);
#487=EDGE_CURVE('',#403,#403,#333,.T.);
#488=EDGE_CURVE('',#404,#404,#334,.T.);
#489=EDGE_CURVE('',#404,#403,#61,.T.);
#490=EDGE_CURVE('',#402,#405,#62,.T.);
#491=EDGE_CURVE('',#405,#405,#335,.T.);
#492=EDGE_CURVE('',#401,#406,#63,.T.);
#493=EDGE_CURVE('',#406,#406,#336,.T.);
#494=EDGE_CURVE('',#400,#407,#64,.T.);
#495=EDGE_CURVE('',#407,#407,#337,.T.);
#496=EDGE_CURVE('',#399,#408,#65,.T.);
#497=EDGE_CURVE('',#408,#408,#338,.T.);
#498=EDGE_CURVE('',#409,#371,#66,.T.);
#499=EDGE_CURVE('',#374,#410,#67,.T.);
#500=EDGE_CURVE('',#410,#409,#68,.T.);
#501=EDGE_CURVE('',#372,#411,#69,.T.);
#502=EDGE_CURVE('',#411,#412,#70,.T.);
#503=EDGE_CURVE('',#412,#373,#71,.T.);
#504=EDGE_CURVE('',#411,#409,#339,.T.);
#505=EDGE_CURVE('',#410,#412,#340,.T.);
#506=EDGE_CURVE('',#390,#396,#72,.T.);
#507=EDGE_CURVE('',#397,#393,#73,.T.);
#508=EDGE_CURVE('',#395,#391,#74,.T.);
#509=EDGE_CURVE('',#392,#398,#75,.T.);
#510=EDGE_CURVE('',#380,#413,#341,.T.);
#511=EDGE_CURVE('',#413,#414,#76,.T.);
#512=EDGE_CURVE('',#414,#379,#342,.T.);
#513=EDGE_CURVE('',#415,#414,#343,.T.);
#514=EDGE_CURVE('',#415,#416,#77,.T.);
#515=EDGE_CURVE('',#416,#417,#344,.T.);
#516=EDGE_CURVE('',#381,#417,#345,.T.);
#517=EDGE_CURVE('',#418,#382,#346,.T.);
#518=EDGE_CURVE('',#417,#418,#78,.T.);
#519=EDGE_CURVE('',#418,#419,#347,.T.);
#520=EDGE_CURVE('',#419,#420,#79,.T.);
#521=EDGE_CURVE('',#413,#420,#348,.T.);
#522=EDGE_CURVE('',#416,#419,#80,.T.);
#523=EDGE_CURVE('',#420,#415,#81,.T.);
#524=EDGE_CURVE('',#421,#421,#349,.T.);
#525=EDGE_CURVE('',#422,#422,#350,.T.);
#526=EDGE_CURVE('',#423,#423,#351,.T.);
#527=EDGE_CURVE('',#424,#424,#352,.T.);
#528=EDGE_CURVE('',#425,#425,#353,.T.);
#529=EDGE_CURVE('',#426,#426,#354,.T.);
#530=EDGE_CURVE('',#421,#387,#82,.T.);
#531=EDGE_CURVE('',#423,#388,#83,.T.);
#532=EDGE_CURVE('',#425,#383,#84,.T.);
#533=EDGE_CURVE('',#426,#384,#85,.T.);
#534=EDGE_CURVE('',#424,#385,#86,.T.);
#535=EDGE_CURVE('',#422,#386,#87,.T.);
#536=ORIENTED_EDGE('',*,*,#427,.F.);
#537=ORIENTED_EDGE('',*,*,#428,.T.);
#538=ORIENTED_EDGE('',*,*,#429,.T.);
#539=ORIENTED_EDGE('',*,*,#427,.T.);
#540=ORIENTED_EDGE('',*,*,#429,.F.);
#541=ORIENTED_EDGE('',*,*,#428,.F.);
#542=ORIENTED_EDGE('',*,*,#430,.F.);
#543=ORIENTED_EDGE('',*,*,#431,.T.);
#544=ORIENTED_EDGE('',*,*,#432,.T.);
#545=ORIENTED_EDGE('',*,*,#430,.T.);
#546=ORIENTED_EDGE('',*,*,#432,.F.);
#547=ORIENTED_EDGE('',*,*,#431,.F.);
#548=ORIENTED_EDGE('',*,*,#433,.F.);
#549=ORIENTED_EDGE('',*,*,#434,.T.);
#550=ORIENTED_EDGE('',*,*,#435,.T.);
#551=ORIENTED_EDGE('',*,*,#433,.T.);
#552=ORIENTED_EDGE('',*,*,#435,.F.);
#553=ORIENTED_EDGE('',*,*,#434,.F.);
#554=ORIENTED_EDGE('',*,*,#436,.F.);
#555=ORIENTED_EDGE('',*,*,#437,.T.);
#556=ORIENTED_EDGE('',*,*,#438,.T.);
#557=ORIENTED_EDGE('',*,*,#436,.T.);
#558=ORIENTED_EDGE('',*,*,#438,.F.);
#559=ORIENTED_EDGE('',*,*,#437,.F.);
#560=ORIENTED_EDGE('',*,*,#439,.F.);
#561=ORIENTED_EDGE('',*,*,#440,.T.);
#562=ORIENTED_EDGE('',*,*,#441,.T.);
#563=ORIENTED_EDGE('',*,*,#439,.T.);
#564=ORIENTED_EDGE('',*,*,#441,.F.);
#565=ORIENTED_EDGE('',*,*,#440,.F.);
#566=ORIENTED_EDGE('',*,*,#442,.F.);
#567=ORIENTED_EDGE('',*,*,#443,.T.);
#568=ORIENTED_EDGE('',*,*,#444,.T.);
#569=ORIENTED_EDGE('',*,*,#442,.T.);
#570=ORIENTED_EDGE('',*,*,#444,.F.);
#571=ORIENTED_EDGE('',*,*,#443,.F.);
#572=ORIENTED_EDGE('',*,*,#445,.T.);
#573=ORIENTED_EDGE('',*,*,#446,.T.);
#574=ORIENTED_EDGE('',*,*,#447,.T.);
#575=ORIENTED_EDGE('',*,*,#446,.F.);
#576=ORIENTED_EDGE('',*,*,#445,.F.);
#577=ORIENTED_EDGE('',*,*,#448,.T.);
#578=ORIENTED_EDGE('',*,*,#449,.F.);
#579=ORIENTED_EDGE('',*,*,#450,.F.);
#580=ORIENTED_EDGE('',*,*,#448,.F.);
#581=ORIENTED_EDGE('',*,*,#451,.T.);
#582=ORIENTED_EDGE('',*,*,#452,.F.);
#583=ORIENTED_EDGE('',*,*,#453,.T.);
#584=ORIENTED_EDGE('',*,*,#454,.F.);
#585=ORIENTED_EDGE('',*,*,#447,.F.);
#586=ORIENTED_EDGE('',*,*,#455,.T.);
#587=ORIENTED_EDGE('',*,*,#456,.T.);
#588=ORIENTED_EDGE('',*,*,#457,.T.);
#589=ORIENTED_EDGE('',*,*,#456,.F.);
#590=ORIENTED_EDGE('',*,*,#458,.T.);
#591=ORIENTED_EDGE('',*,*,#455,.F.);
#592=ORIENTED_EDGE('',*,*,#459,.T.);
#593=ORIENTED_EDGE('',*,*,#460,.F.);
#594=ORIENTED_EDGE('',*,*,#459,.F.);
#595=ORIENTED_EDGE('',*,*,#458,.F.);
#596=ORIENTED_EDGE('',*,*,#461,.F.);
#597=ORIENTED_EDGE('',*,*,#462,.F.);
#598=ORIENTED_EDGE('',*,*,#463,.F.);
#599=ORIENTED_EDGE('',*,*,#464,.F.);
#600=ORIENTED_EDGE('',*,*,#465,.F.);
#601=ORIENTED_EDGE('',*,*,#466,.F.);
#602=ORIENTED_EDGE('',*,*,#467,.F.);
#603=ORIENTED_EDGE('',*,*,#468,.F.);
#604=ORIENTED_EDGE('',*,*,#469,.F.);
#605=ORIENTED_EDGE('',*,*,#470,.F.);
#606=ORIENTED_EDGE('',*,*,#457,.F.);
#607=ORIENTED_EDGE('',*,*,#460,.T.);
#608=ORIENTED_EDGE('',*,*,#471,.T.);
#609=ORIENTED_EDGE('',*,*,#472,.T.);
#610=ORIENTED_EDGE('',*,*,#473,.F.);
#611=ORIENTED_EDGE('',*,*,#474,.T.);
#612=ORIENTED_EDGE('',*,*,#475,.F.);
#613=ORIENTED_EDGE('',*,*,#476,.T.);
#614=ORIENTED_EDGE('',*,*,#471,.F.);
#615=ORIENTED_EDGE('',*,*,#450,.T.);
#616=ORIENTED_EDGE('',*,*,#477,.T.);
#617=ORIENTED_EDGE('',*,*,#478,.T.);
#618=ORIENTED_EDGE('',*,*,#479,.F.);
#619=ORIENTED_EDGE('',*,*,#480,.T.);
#620=ORIENTED_EDGE('',*,*,#481,.F.);
#621=ORIENTED_EDGE('',*,*,#482,.T.);
#622=ORIENTED_EDGE('',*,*,#477,.F.);
#623=ORIENTED_EDGE('',*,*,#449,.T.);
#624=ORIENTED_EDGE('',*,*,#483,.T.);
#625=ORIENTED_EDGE('',*,*,#484,.T.);
#626=ORIENTED_EDGE('',*,*,#485,.T.);
#627=ORIENTED_EDGE('',*,*,#486,.T.);
#628=ORIENTED_EDGE('',*,*,#487,.T.);
#629=ORIENTED_EDGE('',*,*,#488,.T.);
#630=ORIENTED_EDGE('',*,*,#489,.T.);
#631=ORIENTED_EDGE('',*,*,#487,.F.);
#632=ORIENTED_EDGE('',*,*,#489,.F.);
#633=ORIENTED_EDGE('',*,*,#486,.F.);
#634=ORIENTED_EDGE('',*,*,#490,.T.);
#635=ORIENTED_EDGE('',*,*,#491,.F.);
#636=ORIENTED_EDGE('',*,*,#490,.F.);
#637=ORIENTED_EDGE('',*,*,#485,.F.);
#638=ORIENTED_EDGE('',*,*,#492,.T.);
#639=ORIENTED_EDGE('',*,*,#493,.F.);
#640=ORIENTED_EDGE('',*,*,#492,.F.);
#641=ORIENTED_EDGE('',*,*,#484,.F.);
#642=ORIENTED_EDGE('',*,*,#494,.T.);
#643=ORIENTED_EDGE('',*,*,#495,.F.);
#644=ORIENTED_EDGE('',*,*,#494,.F.);
#645=ORIENTED_EDGE('',*,*,#483,.F.);
#646=ORIENTED_EDGE('',*,*,#496,.T.);
#647=ORIENTED_EDGE('',*,*,#497,.F.);
#648=ORIENTED_EDGE('',*,*,#496,.F.);
#649=ORIENTED_EDGE('',*,*,#498,.T.);
#650=ORIENTED_EDGE('',*,*,#454,.T.);
#651=ORIENTED_EDGE('',*,*,#499,.T.);
#652=ORIENTED_EDGE('',*,*,#500,.T.);
#653=ORIENTED_EDGE('',*,*,#501,.T.);
#654=ORIENTED_EDGE('',*,*,#502,.T.);
#655=ORIENTED_EDGE('',*,*,#503,.T.);
#656=ORIENTED_EDGE('',*,*,#452,.T.);
#657=ORIENTED_EDGE('',*,*,#504,.T.);
#658=ORIENTED_EDGE('',*,*,#500,.F.);
#659=ORIENTED_EDGE('',*,*,#505,.T.);
#660=ORIENTED_EDGE('',*,*,#502,.F.);
#661=ORIENTED_EDGE('',*,*,#488,.F.);
#662=ORIENTED_EDGE('',*,*,#491,.T.);
#663=ORIENTED_EDGE('',*,*,#493,.T.);
#664=ORIENTED_EDGE('',*,*,#495,.T.);
#665=ORIENTED_EDGE('',*,*,#497,.T.);
#666=ORIENTED_EDGE('',*,*,#501,.F.);
#667=ORIENTED_EDGE('',*,*,#451,.F.);
#668=ORIENTED_EDGE('',*,*,#498,.F.);
#669=ORIENTED_EDGE('',*,*,#504,.F.);
#670=ORIENTED_EDGE('',*,*,#503,.F.);
#671=ORIENTED_EDGE('',*,*,#505,.F.);
#672=ORIENTED_EDGE('',*,*,#499,.F.);
#673=ORIENTED_EDGE('',*,*,#453,.F.);
#674=ORIENTED_EDGE('',*,*,#506,.F.);
#675=ORIENTED_EDGE('',*,*,#472,.F.);
#676=ORIENTED_EDGE('',*,*,#476,.F.);
#677=ORIENTED_EDGE('',*,*,#507,.F.);
#678=ORIENTED_EDGE('',*,*,#480,.F.);
#679=ORIENTED_EDGE('',*,*,#508,.F.);
#680=ORIENTED_EDGE('',*,*,#478,.F.);
#681=ORIENTED_EDGE('',*,*,#482,.F.);
#682=ORIENTED_EDGE('',*,*,#509,.F.);
#683=ORIENTED_EDGE('',*,*,#474,.F.);
#684=ORIENTED_EDGE('',*,*,#508,.T.);
#685=ORIENTED_EDGE('',*,*,#473,.T.);
#686=ORIENTED_EDGE('',*,*,#506,.T.);
#687=ORIENTED_EDGE('',*,*,#479,.T.);
#688=ORIENTED_EDGE('',*,*,#509,.T.);
#689=ORIENTED_EDGE('',*,*,#481,.T.);
#690=ORIENTED_EDGE('',*,*,#507,.T.);
#691=ORIENTED_EDGE('',*,*,#475,.T.);
#692=ORIENTED_EDGE('',*,*,#510,.T.);
#693=ORIENTED_EDGE('',*,*,#511,.T.);
#694=ORIENTED_EDGE('',*,*,#512,.T.);
#695=ORIENTED_EDGE('',*,*,#461,.T.);
#696=ORIENTED_EDGE('',*,*,#512,.F.);
#697=ORIENTED_EDGE('',*,*,#513,.F.);
#698=ORIENTED_EDGE('',*,*,#514,.T.);
#699=ORIENTED_EDGE('',*,*,#515,.T.);
#700=ORIENTED_EDGE('',*,*,#516,.F.);
#701=ORIENTED_EDGE('',*,*,#462,.T.);
#702=ORIENTED_EDGE('',*,*,#517,.T.);
#703=ORIENTED_EDGE('',*,*,#463,.T.);
#704=ORIENTED_EDGE('',*,*,#516,.T.);
#705=ORIENTED_EDGE('',*,*,#518,.T.);
#706=ORIENTED_EDGE('',*,*,#510,.F.);
#707=ORIENTED_EDGE('',*,*,#464,.T.);
#708=ORIENTED_EDGE('',*,*,#517,.F.);
#709=ORIENTED_EDGE('',*,*,#519,.T.);
#710=ORIENTED_EDGE('',*,*,#520,.T.);
#711=ORIENTED_EDGE('',*,*,#521,.F.);
#712=ORIENTED_EDGE('',*,*,#518,.F.);
#713=ORIENTED_EDGE('',*,*,#515,.F.);
#714=ORIENTED_EDGE('',*,*,#522,.T.);
#715=ORIENTED_EDGE('',*,*,#519,.F.);
#716=ORIENTED_EDGE('',*,*,#522,.F.);
#717=ORIENTED_EDGE('',*,*,#514,.F.);
#718=ORIENTED_EDGE('',*,*,#523,.F.);
#719=ORIENTED_EDGE('',*,*,#520,.F.);
#720=ORIENTED_EDGE('',*,*,#524,.F.);
#721=ORIENTED_EDGE('',*,*,#525,.F.);
#722=ORIENTED_EDGE('',*,*,#526,.F.);
#723=ORIENTED_EDGE('',*,*,#527,.F.);
#724=ORIENTED_EDGE('',*,*,#528,.F.);
#725=ORIENTED_EDGE('',*,*,#529,.F.);
#726=ORIENTED_EDGE('',*,*,#511,.F.);
#727=ORIENTED_EDGE('',*,*,#521,.T.);
#728=ORIENTED_EDGE('',*,*,#523,.T.);
#729=ORIENTED_EDGE('',*,*,#513,.T.);
#730=ORIENTED_EDGE('',*,*,#524,.T.);
#731=ORIENTED_EDGE('',*,*,#530,.T.);
#732=ORIENTED_EDGE('',*,*,#469,.T.);
#733=ORIENTED_EDGE('',*,*,#530,.F.);
#734=ORIENTED_EDGE('',*,*,#526,.T.);
#735=ORIENTED_EDGE('',*,*,#531,.T.);
#736=ORIENTED_EDGE('',*,*,#470,.T.);
#737=ORIENTED_EDGE('',*,*,#531,.F.);
#738=ORIENTED_EDGE('',*,*,#528,.T.);
#739=ORIENTED_EDGE('',*,*,#532,.T.);
#740=ORIENTED_EDGE('',*,*,#465,.T.);
#741=ORIENTED_EDGE('',*,*,#532,.F.);
#742=ORIENTED_EDGE('',*,*,#529,.T.);
#743=ORIENTED_EDGE('',*,*,#533,.T.);
#744=ORIENTED_EDGE('',*,*,#466,.T.);
#745=ORIENTED_EDGE('',*,*,#533,.F.);
#746=ORIENTED_EDGE('',*,*,#527,.T.);
#747=ORIENTED_EDGE('',*,*,#534,.T.);
#748=ORIENTED_EDGE('',*,*,#467,.T.);
#749=ORIENTED_EDGE('',*,*,#534,.F.);
#750=ORIENTED_EDGE('',*,*,#525,.T.);
#751=ORIENTED_EDGE('',*,*,#535,.T.);
#752=ORIENTED_EDGE('',*,*,#468,.T.);
#753=ORIENTED_EDGE('',*,*,#535,.F.);
#754=PLANE('',#860);
#755=PLANE('',#864);
#756=PLANE('',#865);
#757=PLANE('',#869);
#758=PLANE('',#870);
#759=PLANE('',#874);
#760=PLANE('',#875);
#761=PLANE('',#879);
#762=PLANE('',#880);
#763=PLANE('',#884);
#764=PLANE('',#885);
#765=PLANE('',#889);
#766=PLANE('',#897);
#767=PLANE('',#907);
#768=PLANE('',#924);
#769=PLANE('',#926);
#770=PLANE('',#928);
#771=PLANE('',#930);
#772=PLANE('',#932);
#773=PLANE('',#944);
#774=PLANE('',#945);
#775=PLANE('',#946);
#776=PLANE('',#953);
#777=PLANE('',#954);
#778=PLANE('',#958);
#779=PLANE('',#964);
#780=PLANE('',#968);
#781=ADVANCED_FACE('',(#156),#754,.T.);
#782=ADVANCED_FACE('',(#157),#129,.F.);
#783=ADVANCED_FACE('',(#158),#755,.F.);
#784=ADVANCED_FACE('',(#159),#756,.T.);
#785=ADVANCED_FACE('',(#160),#130,.F.);
#786=ADVANCED_FACE('',(#161),#757,.F.);
#787=ADVANCED_FACE('',(#162),#758,.T.);
#788=ADVANCED_FACE('',(#163),#131,.F.);
#789=ADVANCED_FACE('',(#164),#759,.F.);
#790=ADVANCED_FACE('',(#165),#760,.T.);
#791=ADVANCED_FACE('',(#166),#132,.F.);
#792=ADVANCED_FACE('',(#167),#761,.F.);
#793=ADVANCED_FACE('',(#168),#762,.T.);
#794=ADVANCED_FACE('',(#169),#133,.F.);
#795=ADVANCED_FACE('',(#170),#763,.F.);
#796=ADVANCED_FACE('',(#171),#764,.T.);
#797=ADVANCED_FACE('',(#172),#134,.F.);
#798=ADVANCED_FACE('',(#173),#765,.F.);
#799=ADVANCED_FACE('',(#174),#37,.F.);
#800=ADVANCED_FACE('',(#175),#135,.T.);
#801=ADVANCED_FACE('',(#176,#18),#766,.F.);
#802=ADVANCED_FACE('',(#177),#38,.F.);
#803=ADVANCED_FACE('',(#178),#136,.T.);
#804=ADVANCED_FACE('',(#179,#19,#20,#21,#22,#23,#24,#25),#767,.F.);
#805=ADVANCED_FACE('',(#180),#39,.F.);
#806=ADVANCED_FACE('',(#181),#40,.F.);
#807=ADVANCED_FACE('',(#182),#768,.F.);
#808=ADVANCED_FACE('',(#183),#769,.F.);
#809=ADVANCED_FACE('',(#184),#770,.F.);
#810=ADVANCED_FACE('',(#185),#771,.F.);
#811=ADVANCED_FACE('',(#186),#772,.F.);
#812=ADVANCED_FACE('',(#187),#137,.F.);
#813=ADVANCED_FACE('',(#188),#138,.F.);
#814=ADVANCED_FACE('',(#189),#139,.F.);
#815=ADVANCED_FACE('',(#190),#140,.F.);
#816=ADVANCED_FACE('',(#191),#141,.F.);
#817=ADVANCED_FACE('',(#192),#773,.T.);
#818=ADVANCED_FACE('',(#193),#774,.T.);
#819=ADVANCED_FACE('',(#194,#26,#27,#28,#29,#30),#775,.T.);
#820=ADVANCED_FACE('',(#195),#142,.T.);
#821=ADVANCED_FACE('',(#196),#143,.T.);
#822=ADVANCED_FACE('',(#197),#144,.T.);
#823=ADVANCED_FACE('',(#198),#145,.T.);
#824=ADVANCED_FACE('',(#199),#776,.T.);
#825=ADVANCED_FACE('',(#200),#777,.T.);
#826=ADVANCED_FACE('',(#201),#146,.T.);
#827=ADVANCED_FACE('',(#202),#778,.T.);
#828=ADVANCED_FACE('',(#203),#147,.T.);
#829=ADVANCED_FACE('',(#204),#779,.T.);
#830=ADVANCED_FACE('',(#205),#148,.T.);
#831=ADVANCED_FACE('',(#206,#31,#32,#33,#34,#35,#36),#780,.T.);
#832=ADVANCED_FACE('',(#207),#149,.T.);
#833=ADVANCED_FACE('',(#208),#150,.F.);
#834=ADVANCED_FACE('',(#209),#151,.F.);
#835=ADVANCED_FACE('',(#210),#152,.F.);
#836=ADVANCED_FACE('',(#211),#153,.F.);
#837=ADVANCED_FACE('',(#212),#154,.F.);
#838=ADVANCED_FACE('',(#213),#155,.F.);
#839=CLOSED_SHELL('',(#781,#782,#783));
#840=CLOSED_SHELL('',(#784,#785,#786));
#841=CLOSED_SHELL('',(#787,#788,#789));
#842=CLOSED_SHELL('',(#790,#791,#792));
#843=CLOSED_SHELL('',(#793,#794,#795));
#844=CLOSED_SHELL('',(#796,#797,#798));
#845=CLOSED_SHELL('',(#799,#800,#801,#802,#803,#804,#805,#806,#807,#808,
#809,#810,#811,#812,#813,#814,#815,#816,#817,#818,#819,#820,#821,#822,#823,
#824,#825,#826,#827,#828,#829,#830,#831,#832,#833,#834,#835,#836,#837,#838));
#846=BREP_WITH_VOIDS('Body1',#845,(#41,#42,#43,#44,#45,#46));
#847=DERIVED_UNIT_ELEMENT(#849,1.);
#848=DERIVED_UNIT_ELEMENT(#1566,-3.);
#849=(
MASS_UNIT()
NAMED_UNIT(*)
SI_UNIT(.KILO.,.GRAM.)
);
#850=DERIVED_UNIT((#847,#848));
#851=MEASURE_REPRESENTATION_ITEM('density measure',
POSITIVE_RATIO_MEASURE(7850.),#850);
#852=PROPERTY_DEFINITION_REPRESENTATION(#857,#854);
#853=PROPERTY_DEFINITION_REPRESENTATION(#858,#855);
#854=REPRESENTATION('material name',(#856),#1563);
#855=REPRESENTATION('density',(#851),#1563);
#856=DESCRIPTIVE_REPRESENTATION_ITEM('Steel','Steel');
#857=PROPERTY_DEFINITION('material property','material name',#1573);
#858=PROPERTY_DEFINITION('material property','density of part',#1573);
#859=AXIS2_PLACEMENT_3D('',#1269,#982,#983);
#860=AXIS2_PLACEMENT_3D('',#1270,#984,#985);
#861=AXIS2_PLACEMENT_3D('',#1272,#986,#987);
#862=AXIS2_PLACEMENT_3D('',#1273,#988,#989);
#863=AXIS2_PLACEMENT_3D('',#1275,#990,#991);
#864=AXIS2_PLACEMENT_3D('',#1277,#993,#994);
#865=AXIS2_PLACEMENT_3D('',#1278,#995,#996);
#866=AXIS2_PLACEMENT_3D('',#1280,#997,#998);
#867=AXIS2_PLACEMENT_3D('',#1281,#999,#1000);
#868=AXIS2_PLACEMENT_3D('',#1283,#1001,#1002);
#869=AXIS2_PLACEMENT_3D('',#1285,#1004,#1005);
#870=AXIS2_PLACEMENT_3D('',#1286,#1006,#1007);
#871=AXIS2_PLACEMENT_3D('',#1288,#1008,#1009);
#872=AXIS2_PLACEMENT_3D('',#1289,#1010,#1011);
#873=AXIS2_PLACEMENT_3D('',#1291,#1012,#1013);
#874=AXIS2_PLACEMENT_3D('',#1293,#1015,#1016);
#875=AXIS2_PLACEMENT_3D('',#1294,#1017,#1018);
#876=AXIS2_PLACEMENT_3D('',#1296,#1019,#1020);
#877=AXIS2_PLACEMENT_3D('',#1297,#1021,#1022);
#878=AXIS2_PLACEMENT_3D('',#1299,#1023,#1024);
#879=AXIS2_PLACEMENT_3D('',#1301,#1026,#1027);
#880=AXIS2_PLACEMENT_3D('',#1302,#1028,#1029);
#881=AXIS2_PLACEMENT_3D('',#1304,#1030,#1031);
#882=AXIS2_PLACEMENT_3D('',#1305,#1032,#1033);
#883=AXIS2_PLACEMENT_3D('',#1307,#1034,#1035);
#884=AXIS2_PLACEMENT_3D('',#1309,#1037,#1038);
#885=AXIS2_PLACEMENT_3D('',#1310,#1039,#1040);
#886=AXIS2_PLACEMENT_3D('',#1312,#1041,#1042);
#887=AXIS2_PLACEMENT_3D('',#1313,#1043,#1044);
#888=AXIS2_PLACEMENT_3D('',#1315,#1045,#1046);
#889=AXIS2_PLACEMENT_3D('',#1317,#1048,#1049);
#890=AXIS2_PLACEMENT_3D('',#1318,#1050,#1051);
#891=AXIS2_PLACEMENT_3D('',#1320,#1052,#1053);
#892=AXIS2_PLACEMENT_3D('',#1322,#1054,#1055);
#893=AXIS2_PLACEMENT_3D('',#1323,#1056,#1057);
#894=AXIS2_PLACEMENT_3D('',#1324,#1058,#1059);
#895=AXIS2_PLACEMENT_3D('',#1328,#1061,#1062);
#896=AXIS2_PLACEMENT_3D('',#1329,#1063,#1064);
#897=AXIS2_PLACEMENT_3D('',#1330,#1065,#1066);
#898=AXIS2_PLACEMENT_3D('',#1333,#1067,#1068);
#899=AXIS2_PLACEMENT_3D('',#1337,#1070,#1071);
#900=AXIS2_PLACEMENT_3D('',#1339,#1073,#1074);
#901=AXIS2_PLACEMENT_3D('',#1342,#1075,#1076);
#902=AXIS2_PLACEMENT_3D('',#1344,#1077,#1078);
#903=AXIS2_PLACEMENT_3D('',#1345,#1079,#1080);
#904=AXIS2_PLACEMENT_3D('',#1346,#1081,#1082);
#905=AXIS2_PLACEMENT_3D('',#1347,#1083,#1084);
#906=AXIS2_PLACEMENT_3D('',#1350,#1086,#1087);
#907=AXIS2_PLACEMENT_3D('',#1351,#1088,#1089);
#908=AXIS2_PLACEMENT_3D('',#1361,#1094,#1095);
#909=AXIS2_PLACEMENT_3D('',#1363,#1096,#1097);
#910=AXIS2_PLACEMENT_3D('',#1365,#1098,#1099);
#911=AXIS2_PLACEMENT_3D('',#1367,#1100,#1101);
#912=AXIS2_PLACEMENT_3D('',#1369,#1102,#1103);
#913=AXIS2_PLACEMENT_3D('',#1371,#1104,#1105);
#914=AXIS2_PLACEMENT_3D('',#1372,#1106,#1107);
#915=AXIS2_PLACEMENT_3D('',#1374,#1108,#1109);
#916=AXIS2_PLACEMENT_3D('',#1376,#1110,#1111);
#917=AXIS2_PLACEMENT_3D('',#1393,#1112,#1113);
#918=AXIS2_PLACEMENT_3D('',#1409,#1114,#1115);
#919=AXIS2_PLACEMENT_3D('',#1410,#1116,#1117);
#920=AXIS2_PLACEMENT_3D('',#1412,#1118,#1119);
#921=AXIS2_PLACEMENT_3D('',#1414,#1120,#1121);
#922=AXIS2_PLACEMENT_3D('',#1431,#1122,#1123);
#923=AXIS2_PLACEMENT_3D('',#1447,#1124,#1125);
#924=AXIS2_PLACEMENT_3D('',#1448,#1126,#1127);
#925=AXIS2_PLACEMENT_3D('',#1450,#1128,#1129);
#926=AXIS2_PLACEMENT_3D('',#1451,#1130,#1131);
#927=AXIS2_PLACEMENT_3D('',#1453,#1132,#1133);
#928=AXIS2_PLACEMENT_3D('',#1454,#1134,#1135);
#929=AXIS2_PLACEMENT_3D('',#1456,#1136,#1137);
#930=AXIS2_PLACEMENT_3D('',#1457,#1138,#1139);
#931=AXIS2_PLACEMENT_3D('',#1459,#1140,#1141);
#932=AXIS2_PLACEMENT_3D('',#1460,#1142,#1143);
#933=AXIS2_PLACEMENT_3D('',#1462,#1144,#1145);
#934=AXIS2_PLACEMENT_3D('',#1463,#1146,#1147);
#935=AXIS2_PLACEMENT_3D('',#1465,#1148,#1149);
#936=AXIS2_PLACEMENT_3D('',#1467,#1151,#1152);
#937=AXIS2_PLACEMENT_3D('',#1470,#1154,#1155);
#938=AXIS2_PLACEMENT_3D('',#1471,#1156,#1157);
#939=AXIS2_PLACEMENT_3D('',#1474,#1159,#1160);
#940=AXIS2_PLACEMENT_3D('',#1475,#1161,#1162);
#941=AXIS2_PLACEMENT_3D('',#1478,#1164,#1165);
#942=AXIS2_PLACEMENT_3D('',#1479,#1166,#1167);
#943=AXIS2_PLACEMENT_3D('',#1482,#1169,#1170);
#944=AXIS2_PLACEMENT_3D('',#1483,#1171,#1172);
#945=AXIS2_PLACEMENT_3D('',#1489,#1176,#1177);
#946=AXIS2_PLACEMENT_3D('',#1495,#1181,#1182);
#947=AXIS2_PLACEMENT_3D('',#1496,#1183,#1184);
#948=AXIS2_PLACEMENT_3D('',#1497,#1185,#1186);
#949=AXIS2_PLACEMENT_3D('',#1498,#1187,#1188);
#950=AXIS2_PLACEMENT_3D('',#1499,#1189,#1190);
#951=AXIS2_PLACEMENT_3D('',#1500,#1191,#1192);
#952=AXIS2_PLACEMENT_3D('',#1503,#1195,#1196);
#953=AXIS2_PLACEMENT_3D('',#1506,#1199,#1200);
#954=AXIS2_PLACEMENT_3D('',#1507,#1201,#1202);
#955=AXIS2_PLACEMENT_3D('',#1508,#1203,#1204);
#956=AXIS2_PLACEMENT_3D('',#1510,#1205,#1206);
#957=AXIS2_PLACEMENT_3D('',#1513,#1208,#1209);
#958=AXIS2_PLACEMENT_3D('',#1514,#1210,#1211);
#959=AXIS2_PLACEMENT_3D('',#1516,#1212,#1213);
#960=AXIS2_PLACEMENT_3D('',#1520,#1215,#1216);
#961=AXIS2_PLACEMENT_3D('',#1521,#1217,#1218);
#962=AXIS2_PLACEMENT_3D('',#1522,#1219,#1220);
#963=AXIS2_PLACEMENT_3D('',#1524,#1221,#1222);
#964=AXIS2_PLACEMENT_3D('',#1526,#1224,#1225);
#965=AXIS2_PLACEMENT_3D('',#1528,#1226,#1227);
#966=AXIS2_PLACEMENT_3D('',#1531,#1229,#1230);
#967=AXIS2_PLACEMENT_3D('',#1532,#1231,#1232);
#968=AXIS2_PLACEMENT_3D('',#1534,#1234,#1235);
#969=AXIS2_PLACEMENT_3D('',#1537,#1237,#1238);
#970=AXIS2_PLACEMENT_3D('',#1539,#1239,#1240);
#971=AXIS2_PLACEMENT_3D('',#1541,#1241,#1242);
#972=AXIS2_PLACEMENT_3D('',#1543,#1243,#1244);
#973=AXIS2_PLACEMENT_3D('',#1545,#1245,#1246);
#974=AXIS2_PLACEMENT_3D('',#1547,#1247,#1248);
#975=AXIS2_PLACEMENT_3D('',#1548,#1249,#1250);
#976=AXIS2_PLACEMENT_3D('',#1549,#1251,#1252);
#977=AXIS2_PLACEMENT_3D('',#1551,#1254,#1255);
#978=AXIS2_PLACEMENT_3D('',#1553,#1257,#1258);
#979=AXIS2_PLACEMENT_3D('',#1555,#1260,#1261);
#980=AXIS2_PLACEMENT_3D('',#1557,#1263,#1264);
#981=AXIS2_PLACEMENT_3D('',#1559,#1266,#1267);
#982=DIRECTION('axis',(0.,0.,1.));
#983=DIRECTION('refdir',(1.,0.,0.));
#984=DIRECTION('center_axis',(0.,-1.,7.2050072826113E-15));
#985=DIRECTION('ref_axis',(1.,0.,0.));
#986=DIRECTION('center_axis',(0.,1.,-7.2050072826113E-15));
#987=DIRECTION('ref_axis',(1.,0.,0.));
#988=DIRECTION('center_axis',(0.,1.,-7.19424519957101E-15));
#989=DIRECTION('ref_axis',(1.,0.,0.));
#990=DIRECTION('center_axis',(0.,-1.,2.22044604925031E-16));
#991=DIRECTION('ref_axis',(1.,0.,0.));
#992=DIRECTION('',(0.,1.,-7.19424519957102E-15));
#993=DIRECTION('center_axis',(0.,-1.,2.22044604925031E-16));
#994=DIRECTION('ref_axis',(1.,0.,0.));
#995=DIRECTION('center_axis',(0.,-1.,7.2050072826113E-15));
#996=DIRECTION('ref_axis',(1.,0.,0.));
#997=DIRECTION('center_axis',(0.,1.,-7.2050072826113E-15));
#998=DIRECTION('ref_axis',(1.,0.,0.));
#999=DIRECTION('center_axis',(0.,1.,-7.20534742981727E-15));
#1000=DIRECTION('ref_axis',(1.,0.,0.));
#1001=DIRECTION('center_axis',(0.,-1.,2.22044604925031E-16));
#1002=DIRECTION('ref_axis',(1.,0.,0.));
#1003=DIRECTION('',(0.,1.,-7.20534742981727E-15));
#1004=DIRECTION('center_axis',(0.,-1.,2.22044604925031E-16));
#1005=DIRECTION('ref_axis',(1.,0.,0.));
#1006=DIRECTION('center_axis',(0.,-1.,7.2050072826113E-15));
#1007=DIRECTION('ref_axis',(1.,0.,0.));
#1008=DIRECTION('center_axis',(0.,1.,-7.2050072826113E-15));
#1009=DIRECTION('ref_axis',(1.,0.,0.));
#1010=DIRECTION('center_axis',(0.,1.,-7.20534742981727E-15));
#1011=DIRECTION('ref_axis',(1.,0.,0.));
#1012=DIRECTION('center_axis',(0.,-1.,2.22044604925031E-16));
#1013=DIRECTION('ref_axis',(1.,0.,0.));
#1014=DIRECTION('',(0.,1.,-7.20534742981727E-15));
#1015=DIRECTION('center_axis',(0.,-1.,2.22044604925031E-16));
#1016=DIRECTION('ref_axis',(1.,0.,0.));
#1017=DIRECTION('center_axis',(0.,-1.,7.2050072826113E-15));
#1018=DIRECTION('ref_axis',(1.,0.,0.));
#1019=DIRECTION('center_axis',(0.,1.,-7.2050072826113E-15));
#1020=DIRECTION('ref_axis',(1.,0.,0.));
#1021=DIRECTION('center_axis',(0.,1.,-7.20534742981727E-15));
#1022=DIRECTION('ref_axis',(1.,0.,0.));
#1023=DIRECTION('center_axis',(0.,-1.,2.22044604925031E-16));
#1024=DIRECTION('ref_axis',(1.,0.,0.));
#1025=DIRECTION('',(0.,1.,-7.20534742981727E-15));
#1026=DIRECTION('center_axis',(0.,-1.,2.22044604925031E-16));
#1027=DIRECTION('ref_axis',(1.,0.,0.));
#1028=DIRECTION('center_axis',(0.,-1.,7.2050072826113E-15));
#1029=DIRECTION('ref_axis',(1.,0.,0.));
#1030=DIRECTION('center_axis',(0.,1.,-7.2050072826113E-15));
#1031=DIRECTION('ref_axis',(1.,0.,0.));
#1032=DIRECTION('center_axis',(0.,1.,-7.20534742981727E-15));
#1033=DIRECTION('ref_axis',(1.,0.,0.));
#1034=DIRECTION('center_axis',(0.,-1.,2.22044604925031E-16));
#1035=DIRECTION('ref_axis',(1.,0.,0.));
#1036=DIRECTION('',(0.,1.,-7.20534742981727E-15));
#1037=DIRECTION('center_axis',(0.,-1.,2.22044604925031E-16));
#1038=DIRECTION('ref_axis',(1.,0.,0.));
#1039=DIRECTION('center_axis',(0.,-1.,7.2050072826113E-15));
#1040=DIRECTION('ref_axis',(1.,0.,0.));
#1041=DIRECTION('center_axis',(0.,1.,-7.2050072826113E-15));
#1042=DIRECTION('ref_axis',(1.,0.,0.));
#1043=DIRECTION('center_axis',(0.,1.,-7.19424519957101E-15));
#1044=DIRECTION('ref_axis',(1.,0.,0.));
#1045=DIRECTION('center_axis',(0.,-1.,2.22044604925031E-16));
#1046=DIRECTION('ref_axis',(1.,0.,0.));
#1047=DIRECTION('',(0.,1.,-7.19424519957102E-15));
#1048=DIRECTION('center_axis',(0.,-1.,2.22044604925031E-16));
#1049=DIRECTION('ref_axis',(1.,0.,0.));
#1050=DIRECTION('center_axis',(0.,1.,-2.22044604925031E-16));
#1051=DIRECTION('ref_axis',(1.,0.,0.));
#1052=DIRECTION('center_axis',(0.,1.,-2.22044604925031E-16));
#1053=DIRECTION('ref_axis',(1.,0.,0.));
#1054=DIRECTION('center_axis',(0.,2.22044604925031E-16,1.));
#1055=DIRECTION('ref_axis',(-1.,0.,0.));
#1056=DIRECTION('center_axis',(0.,-1.,2.22044604925031E-16));
#1057=DIRECTION('ref_axis',(1.,0.,0.));
#1058=DIRECTION('center_axis',(0.,1.,-2.22044604925031E-16));
#1059=DIRECTION('ref_axis',(1.,0.,0.));
#1060=DIRECTION('',(0.,-1.,2.22044604925031E-16));
#1061=DIRECTION('center_axis',(0.,-1.,2.22044604925031E-16));
#1062=DIRECTION('ref_axis',(1.,0.,0.));
#1063=DIRECTION('center_axis',(0.,-1.,2.22044604925031E-16));
#1064=DIRECTION('ref_axis',(1.,0.,0.));
#1065=DIRECTION('center_axis',(0.,1.,-2.22044604925031E-16));
#1066=DIRECTION('ref_axis',(1.,0.,0.));
#1067=DIRECTION('center_axis',(0.,-1.,2.22044604925031E-16));
#1068=DIRECTION('ref_axis',(-1.,0.,0.));
#1069=DIRECTION('',(1.,0.,0.));
#1070=DIRECTION('center_axis',(0.,-1.,2.22044604925031E-16));
#1071=DIRECTION('ref_axis',(-1.,0.,0.));
#1072=DIRECTION('',(-1.,0.,0.));
#1073=DIRECTION('center_axis',(0.,-1.,2.22044604925031E-16));
#1074=DIRECTION('ref_axis',(-1.,0.,0.));
#1075=DIRECTION('center_axis',(0.,-1.,2.22044604925031E-16));
#1076=DIRECTION('ref_axis',(1.,0.,0.));
#1077=DIRECTION('center_axis',(0.,2.22044604925031E-16,1.));
#1078=DIRECTION('ref_axis',(1.,0.,0.));
#1079=DIRECTION('center_axis',(0.,1.,-2.22044604925031E-16));
#1080=DIRECTION('ref_axis',(1.,0.,0.));
#1081=DIRECTION('center_axis',(0.,-1.,2.22044604925031E-16));
#1082=DIRECTION('ref_axis',(1.,0.,0.));
#1083=DIRECTION('center_axis',(0.,-1.,2.22044604925031E-16));
#1084=DIRECTION('ref_axis',(1.,0.,0.));
#1085=DIRECTION('',(0.,1.,-2.22044604925031E-16));
#1086=DIRECTION('center_axis',(0.,1.,-2.22044604925031E-16));
#1087=DIRECTION('ref_axis',(1.,0.,0.));
#1088=DIRECTION('center_axis',(0.,-1.,2.22044604925031E-16));
#1089=DIRECTION('ref_axis',(-1.,0.,0.));
#1090=DIRECTION('',(0.,-2.22044604925031E-16,-1.));
#1091=DIRECTION('',(-1.,0.,0.));
#1092=DIRECTION('',(0.,2.22044604925031E-16,1.));
#1093=DIRECTION('',(1.,0.,0.));
#1094=DIRECTION('center_axis',(0.,1.,-2.22044604925031E-16));
#1095=DIRECTION('ref_axis',(1.,0.,0.));
#1096=DIRECTION('center_axis',(0.,1.,-2.22044604925031E-16));
#1097=DIRECTION('ref_axis',(1.,0.,0.));
#1098=DIRECTION('center_axis',(0.,1.,-2.22044604925031E-16));
#1099=DIRECTION('ref_axis',(1.,0.,0.));
#1100=DIRECTION('center_axis',(0.,1.,-2.22044604925031E-16));
#1101=DIRECTION('ref_axis',(1.,0.,0.));
#1102=DIRECTION('center_axis',(0.,1.,-2.22044604925031E-16));
#1103=DIRECTION('ref_axis',(1.,0.,0.));
#1104=DIRECTION('center_axis',(0.,1.,-2.22044604925031E-16));
#1105=DIRECTION('ref_axis',(1.,0.,0.));
#1106=DIRECTION('center_axis',(0.,1.,-2.22044604925031E-16));
#1107=DIRECTION('ref_axis',(1.,0.,0.));
#1108=DIRECTION('center_axis',(0.,2.22044604925031E-16,1.));
#1109=DIRECTION('ref_axis',(-1.,0.,0.));
#1110=DIRECTION('center_axis',(0.,-1.,2.22044604925031E-16));
#1111=DIRECTION('ref_axis',(-1.,0.,0.));
#1112=DIRECTION('center_axis',(0.,-1.,2.22044604925031E-16));
#1113=DIRECTION('ref_axis',(-1.,0.,0.));
#1114=DIRECTION('center_axis',(0.,-1.,2.22044604925031E-16));
#1115=DIRECTION('ref_axis',(-1.,0.,0.));
#1116=DIRECTION('center_axis',(0.,-1.,2.22044604925031E-16));
#1117=DIRECTION('ref_axis',(-1.,0.,0.));
#1118=DIRECTION('center_axis',(0.,2.22044604925031E-16,1.));
#1119=DIRECTION('ref_axis',(1.,0.,0.));
#1120=DIRECTION('center_axis',(0.,1.,-2.22044604925031E-16));
#1121=DIRECTION('ref_axis',(-1.,0.,0.));
#1122=DIRECTION('center_axis',(0.,1.,-2.22044604925031E-16));
#1123=DIRECTION('ref_axis',(-1.,0.,0.));
#1124=DIRECTION('center_axis',(0.,1.,-2.22044604925031E-16));
#1125=DIRECTION('ref_axis',(-1.,0.,0.));
#1126=DIRECTION('center_axis',(0.,-1.,2.22044604925031E-16));
#1127=DIRECTION('ref_axis',(1.,0.,0.));
#1128=DIRECTION('center_axis',(0.,1.,-2.22044604925031E-16));
#1129=DIRECTION('ref_axis',(-1.,0.,0.));
#1130=DIRECTION('center_axis',(0.,-1.,2.22044604925031E-16));
#1131=DIRECTION('ref_axis',(1.,0.,0.));
#1132=DIRECTION('center_axis',(0.,1.,-2.22044604925031E-16));
#1133=DIRECTION('ref_axis',(-1.,0.,0.));
#1134=DIRECTION('center_axis',(0.,-1.,2.22044604925031E-16));
#1135=DIRECTION('ref_axis',(1.,0.,0.));
#1136=DIRECTION('center_axis',(0.,1.,-2.22044604925031E-16));
#1137=DIRECTION('ref_axis',(-1.,0.,0.));
#1138=DIRECTION('center_axis',(0.,-1.,2.22044604925031E-16));
#1139=DIRECTION('ref_axis',(1.,0.,0.));
#1140=DIRECTION('center_axis',(0.,1.,-2.22044604925031E-16));
#1141=DIRECTION('ref_axis',(-1.,0.,0.));
#1142=DIRECTION('center_axis',(0.,-1.,2.22044604925031E-16));
#1143=DIRECTION('ref_axis',(1.,0.,0.));
#1144=DIRECTION('center_axis',(0.,1.,-2.22044604925031E-16));
#1145=DIRECTION('ref_axis',(-1.,0.,0.));
#1146=DIRECTION('center_axis',(0.,-1.,2.22044604925031E-16));
#1147=DIRECTION('ref_axis',(-1.,0.,0.));
#1148=DIRECTION('center_axis',(0.,1.,-2.22044604925031E-16));
#1149=DIRECTION('ref_axis',(-1.,0.,0.));
#1150=DIRECTION('',(0.,-1.,2.22044604925031E-16));
#1151=DIRECTION('center_axis',(0.,-1.,2.22044604925031E-16));
#1152=DIRECTION('ref_axis',(-1.,0.,0.));
#1153=DIRECTION('',(0.,1.,-2.22044604925031E-16));
#1154=DIRECTION('center_axis',(0.,-1.,2.22044604925031E-16));
#1155=DIRECTION('ref_axis',(-1.,0.,0.));
#1156=DIRECTION('center_axis',(0.,-1.,2.22044604925031E-16));
#1157=DIRECTION('ref_axis',(-1.,0.,0.));
#1158=DIRECTION('',(0.,1.,-2.22044604925031E-16));
#1159=DIRECTION('center_axis',(0.,-1.,2.22044604925031E-16));
#1160=DIRECTION('ref_axis',(-1.,0.,0.));
#1161=DIRECTION('center_axis',(0.,-1.,2.22044604925031E-16));
#1162=DIRECTION('ref_axis',(-1.,0.,0.));
#1163=DIRECTION('',(0.,1.,-2.22044604925031E-16));
#1164=DIRECTION('center_axis',(0.,-1.,2.22044604925031E-16));
#1165=DIRECTION('ref_axis',(-1.,0.,0.));
#1166=DIRECTION('center_axis',(0.,-1.,2.22044604925031E-16));
#1167=DIRECTION('ref_axis',(-1.,0.,0.));
#1168=DIRECTION('',(0.,1.,-2.22044604925031E-16));
#1169=DIRECTION('center_axis',(0.,-1.,2.22044604925031E-16));
#1170=DIRECTION('ref_axis',(-1.,0.,0.));
#1171=DIRECTION('center_axis',(0.,-2.22044604925031E-16,-1.));
#1172=DIRECTION('ref_axis',(-1.,0.,0.));
#1173=DIRECTION('',(0.,-1.,2.22044604925031E-16));
#1174=DIRECTION('',(0.,1.,-2.22044604925031E-16));
#1175=DIRECTION('',(1.,0.,0.));
#1176=DIRECTION('center_axis',(0.,2.22044604925031E-16,1.));
#1177=DIRECTION('ref_axis',(1.,0.,0.));
#1178=DIRECTION('',(0.,1.,-2.22044604925031E-16));
#1179=DIRECTION('',(-1.,0.,0.));
#1180=DIRECTION('',(0.,-1.,2.22044604925031E-16));
#1181=DIRECTION('center_axis',(0.,1.,-2.22044604925031E-16));
#1182=DIRECTION('ref_axis',(-1.,0.,0.));
#1183=DIRECTION('center_axis',(0.,1.,-2.22044604925031E-16));
#1184=DIRECTION('ref_axis',(-1.,0.,0.));
#1185=DIRECTION('center_axis',(0.,1.,-2.22044604925031E-16));
#1186=DIRECTION('ref_axis',(-1.,0.,0.));
#1187=DIRECTION('center_axis',(0.,-1.,2.22044604925031E-16));
#1188=DIRECTION('ref_axis',(1.,2.71926214689378E-32,1.22464679914735E-16));
#1189=DIRECTION('center_axis',(0.,-1.,2.22044604925031E-16));
#1190=DIRECTION('ref_axis',(-1.,0.,0.));
#1191=DIRECTION('center_axis',(0.,-1.,2.22044604925031E-16));
#1192=DIRECTION('ref_axis',(-1.,0.,0.));
#1193=DIRECTION('',(0.,1.,-2.22044604925031E-16));
#1194=DIRECTION('',(0.,-1.,2.22044604925031E-16));
#1195=DIRECTION('center_axis',(0.,-1.,2.22044604925031E-16));
#1196=DIRECTION('ref_axis',(1.,-2.71926214689378E-32,-1.22464679914735E-16));
#1197=DIRECTION('',(0.,-1.,2.22044604925031E-16));
#1198=DIRECTION('',(0.,1.,-2.22044604925031E-16));
#1199=DIRECTION('center_axis',(0.,-2.22044604925031E-16,-1.));
#1200=DIRECTION('ref_axis',(-1.,0.,0.));
#1201=DIRECTION('center_axis',(0.,2.22044604925031E-16,1.));
#1202=DIRECTION('ref_axis',(1.,0.,0.));
#1203=DIRECTION('center_axis',(0.,-2.22044604925031E-16,-1.));
#1204=DIRECTION('ref_axis',(-0.902892833293861,0.429865713434537,-9.54493625103886E-17));
#1205=DIRECTION('center_axis',(0.,2.22044604925031E-16,1.));
#1206=DIRECTION('ref_axis',(-0.902892833293861,0.429865713434537,-9.54493625103886E-17));
#1207=DIRECTION('',(0.,2.22044604925031E-16,1.));
#1208=DIRECTION('center_axis',(0.,-2.22044604925031E-16,-1.));
#1209=DIRECTION('ref_axis',(-0.902892833293861,0.429865713434537,-9.54493625103886E-17));
#1210=DIRECTION('center_axis',(0.,2.22044604925031E-16,1.));
#1211=DIRECTION('ref_axis',(1.,0.,0.));
#1212=DIRECTION('center_axis',(0.,-2.22044604925031E-16,-1.));
#1213=DIRECTION('ref_axis',(-0.725390366841832,-0.688337719214248,1.52841676917925E-16));
#1214=DIRECTION('',(1.,0.,0.));
#1215=DIRECTION('center_axis',(0.,2.22044604925031E-16,1.));
#1216=DIRECTION('ref_axis',(0.728822966604569,0.684702185880632,-1.5203442635517E-16));
#1217=DIRECTION('center_axis',(0.,-2.22044604925031E-16,-1.));
#1218=DIRECTION('ref_axis',(0.902892833293861,0.429865713434537,-9.54493625103886E-17));
#1219=DIRECTION('center_axis',(0.,-2.22044604925031E-16,-1.));
#1220=DIRECTION('ref_axis',(0.902892833293861,0.429865713434537,-9.54493625103886E-17));
#1221=DIRECTION('center_axis',(0.,2.22044604925031E-16,1.));
#1222=DIRECTION('ref_axis',(0.902892833293861,0.429865713434537,-9.54493625103886E-17));
#1223=DIRECTION('',(0.,-2.22044604925031E-16,-1.));
#1224=DIRECTION('center_axis',(0.,-2.22044604925031E-16,-1.));
#1225=DIRECTION('ref_axis',(-1.,0.,0.));
#1226=DIRECTION('center_axis',(0.,-2.22044604925031E-16,-1.));
#1227=DIRECTION('ref_axis',(0.728822966604569,0.684702185880632,-1.5203442635517E-16));
#1228=DIRECTION('',(-1.,0.,0.));
#1229=DIRECTION('center_axis',(0.,2.22044604925031E-16,1.));
#1230=DIRECTION('ref_axis',(-0.725390366841832,-0.688337719214248,1.52841676917925E-16));
#1231=DIRECTION('center_axis',(0.,2.22044604925031E-16,1.));
#1232=DIRECTION('ref_axis',(0.728822966604569,0.684702185880632,-1.5203442635517E-16));
#1233=DIRECTION('',(0.,-2.22044604925031E-16,-1.));
#1234=DIRECTION('center_axis',(0.,-1.,2.22044604925031E-16));
#1235=DIRECTION('ref_axis',(1.,0.,0.));
#1236=DIRECTION('',(0.,2.22044604925031E-16,1.));
#1237=DIRECTION('center_axis',(0.,-1.,2.22044604925031E-16));
#1238=DIRECTION('ref_axis',(1.,0.,0.));
#1239=DIRECTION('center_axis',(0.,-1.,2.22044604925031E-16));
#1240=DIRECTION('ref_axis',(1.,0.,0.));
#1241=DIRECTION('center_axis',(0.,-1.,2.22044604925031E-16));
#1242=DIRECTION('ref_axis',(1.,0.,0.));
#1243=DIRECTION('center_axis',(0.,-1.,2.22044604925031E-16));
#1244=DIRECTION('ref_axis',(1.,0.,0.));
#1245=DIRECTION('center_axis',(0.,-1.,2.22044604925031E-16));
#1246=DIRECTION('ref_axis',(1.,0.,0.));
#1247=DIRECTION('center_axis',(0.,-1.,2.22044604925031E-16));
#1248=DIRECTION('ref_axis',(1.,0.,0.));
#1249=DIRECTION('center_axis',(0.,2.22044604925031E-16,1.));
#1250=DIRECTION('ref_axis',(-0.725390366841832,-0.688337719214248,1.52841676917925E-16));
#1251=DIRECTION('center_axis',(0.,1.,-7.19424519957101E-15));
#1252=DIRECTION('ref_axis',(1.,0.,0.));
#1253=DIRECTION('',(0.,1.,-7.19424519957102E-15));
#1254=DIRECTION('center_axis',(0.,1.,-7.19424519957101E-15));
#1255=DIRECTION('ref_axis',(1.,0.,0.));
#1256=DIRECTION('',(0.,1.,-7.19424519957102E-15));
#1257=DIRECTION('center_axis',(0.,1.,-7.20534742981727E-15));
#1258=DIRECTION('ref_axis',(1.,0.,0.));
#1259=DIRECTION('',(0.,1.,-7.20534742981727E-15));
#1260=DIRECTION('center_axis',(0.,1.,-7.20534742981727E-15));
#1261=DIRECTION('ref_axis',(1.,0.,0.));
#1262=DIRECTION('',(0.,1.,-7.20534742981727E-15));
#1263=DIRECTION('center_axis',(0.,1.,-7.20534742981727E-15));
#1264=DIRECTION('ref_axis',(1.,0.,0.));
#1265=DIRECTION('',(0.,1.,-7.20534742981727E-15));
#1266=DIRECTION('center_axis',(0.,1.,-7.20534742981727E-15));
#1267=DIRECTION('ref_axis',(1.,0.,0.));
#1268=DIRECTION('',(0.,1.,-7.20534742981727E-15));
#1269=CARTESIAN_POINT('',(0.,0.,0.));
#1270=CARTESIAN_POINT('Origin',(0.,32.7499999999999,51.7499999999993));
#1271=CARTESIAN_POINT('',(-1.,32.7499999999999,51.7499999999993));
#1272=CARTESIAN_POINT('Origin',(5.95551847338047E-44,32.7499999999999,51.7499999999993));
#1273=CARTESIAN_POINT('Origin',(5.95551847338047E-44,-67.2500000000001,
51.75));
#1274=CARTESIAN_POINT('',(-1.,30.75,51.7500000000006));
#1275=CARTESIAN_POINT('Origin',(5.95551847338047E-44,30.75,51.7499999999993));
#1276=CARTESIAN_POINT('',(-1.,-67.2500000000001,51.75));
#1277=CARTESIAN_POINT('Origin',(-1.66533453693773E-15,30.75,51.7500000000006));
#1278=CARTESIAN_POINT('Origin',(11.691342951,32.7499999999999,58.4999999999993));
#1279=CARTESIAN_POINT('',(10.691342951,32.7499999999999,58.4999999999993));
#1280=CARTESIAN_POINT('Origin',(11.691342951,32.7499999999999,58.4999999999993));
#1281=CARTESIAN_POINT('Origin',(11.691342951,-67.2500000000001,58.5));
#1282=CARTESIAN_POINT('',(10.6913429510894,30.75,58.5000000000003));
#1283=CARTESIAN_POINT('Origin',(11.691342951,30.75,58.4999999999993));
#1284=CARTESIAN_POINT('',(10.691342951,-67.2500000000001,58.5));
#1285=CARTESIAN_POINT('Origin',(11.6913429510894,30.75,58.5000000000003));
#1286=CARTESIAN_POINT('Origin',(-11.691342951,32.75,71.9999999999993));
#1287=CARTESIAN_POINT('',(-12.691342951,32.75,71.9999999999993));
#1288=CARTESIAN_POINT('Origin',(-11.691342951,32.75,71.9999999999993));
#1289=CARTESIAN_POINT('Origin',(-11.691342951,-67.25,72.));
#1290=CARTESIAN_POINT('',(-12.6913429510894,30.75,71.9999999999997));
#1291=CARTESIAN_POINT('Origin',(-11.691342951,30.75,71.9999999999993));
#1292=CARTESIAN_POINT('',(-12.691342951,-67.25,72.));
#1293=CARTESIAN_POINT('Origin',(-11.6913429510894,30.75,71.9999999999997));
#1294=CARTESIAN_POINT('Origin',(11.691342951,32.75,71.9999999999993));
#1295=CARTESIAN_POINT('',(10.691342951,32.75,71.9999999999993));
#1296=CARTESIAN_POINT('Origin',(11.691342951,32.75,71.9999999999993));
#1297=CARTESIAN_POINT('Origin',(11.691342951,-67.25,72.));
#1298=CARTESIAN_POINT('',(10.6913429510894,30.75,71.9999999999997));
#1299=CARTESIAN_POINT('Origin',(11.691342951,30.75,71.9999999999993));
#1300=CARTESIAN_POINT('',(10.691342951,-67.25,72.));
#1301=CARTESIAN_POINT('Origin',(11.6913429510894,30.75,71.9999999999997));
#1302=CARTESIAN_POINT('Origin',(-11.691342951,32.7499999999999,58.4999999999993));
#1303=CARTESIAN_POINT('',(-12.691342951,32.7499999999999,58.4999999999993));
#1304=CARTESIAN_POINT('Origin',(-11.691342951,32.7499999999999,58.4999999999993));
#1305=CARTESIAN_POINT('Origin',(-11.691342951,-67.2500000000001,58.5));
#1306=CARTESIAN_POINT('',(-12.6913429510894,30.75,58.5000000000003));
#1307=CARTESIAN_POINT('Origin',(-11.691342951,30.75,58.4999999999993));
#1308=CARTESIAN_POINT('',(-12.691342951,-67.2500000000001,58.5));
#1309=CARTESIAN_POINT('Origin',(-11.6913429510894,30.75,58.5000000000003));
#1310=CARTESIAN_POINT('Origin',(0.,32.7500000000001,78.7499999999993));
#1311=CARTESIAN_POINT('',(-1.,32.7500000000001,78.7499999999993));
#1312=CARTESIAN_POINT('Origin',(5.95551847338047E-44,32.7500000000001,78.7499999999993));
#1313=CARTESIAN_POINT('Origin',(5.95551847338047E-44,-67.2499999999999,
78.75));
#1314=CARTESIAN_POINT('',(-1.,30.75,78.7499999999994));
#1315=CARTESIAN_POINT('Origin',(5.95551847338047E-44,30.75,78.7499999999993));
#1316=CARTESIAN_POINT('',(-1.,-67.2499999999999,78.75));
#1317=CARTESIAN_POINT('Origin',(0.,30.75,78.7499999999994));
#1318=CARTESIAN_POINT('Origin',(4.44089209850063E-15,16.75,65.25));
#1319=CARTESIAN_POINT('',(-10.,16.75,65.25));
#1320=CARTESIAN_POINT('Origin',(4.44089209850063E-15,16.75,65.25));
#1321=CARTESIAN_POINT('',(-14.,20.75,65.25));
#1322=CARTESIAN_POINT('Origin',(-14.,16.75,65.25));
#1323=CARTESIAN_POINT('Origin',(4.44089209850063E-15,20.75,65.25));
#1324=CARTESIAN_POINT('Origin',(4.44089209850063E-15,-10.25,65.25));
#1325=CARTESIAN_POINT('',(-10.,-1.77635683940025E-14,65.25));
#1326=CARTESIAN_POINT('',(-10.,-10.25,65.25));
#1327=CARTESIAN_POINT('',(10.,-1.77635683940025E-14,65.25));
#1328=CARTESIAN_POINT('Origin',(4.44089209850063E-15,-1.77635683940025E-14,
65.25));
#1329=CARTESIAN_POINT('Origin',(4.44089209850063E-15,-1.77635683940025E-14,
65.25));
#1330=CARTESIAN_POINT('Origin',(-8.88178419700125E-15,20.75,82.25));
#1331=CARTESIAN_POINT('',(11.0028405423327,20.75,48.25));
#1332=CARTESIAN_POINT('',(11.0028405423327,20.75,82.25));
#1333=CARTESIAN_POINT('Origin',(0.,20.75,65.25));
#1334=CARTESIAN_POINT('',(-11.0028405423327,20.75,82.25));
#1335=CARTESIAN_POINT('',(-37.625,20.75,82.25));
#1336=CARTESIAN_POINT('',(-11.0028405423327,20.75,48.25));
#1337=CARTESIAN_POINT('Origin',(0.,20.75,65.25));
#1338=CARTESIAN_POINT('',(27.5,20.75,48.25));
#1339=CARTESIAN_POINT('Origin',(0.,-49.75,65.25));
#1340=CARTESIAN_POINT('',(-10.,-49.75,65.25));
#1341=CARTESIAN_POINT('',(10.,-49.75,65.25));
#1342=CARTESIAN_POINT('Origin',(0.,-49.75,65.25));
#1343=CARTESIAN_POINT('',(11.5,-51.25,65.25));
#1344=CARTESIAN_POINT('Origin',(11.5,-49.75,65.25));
#1345=CARTESIAN_POINT('Origin',(0.,-51.25,65.25));
#1346=CARTESIAN_POINT('Origin',(0.,-49.75,65.25));
#1347=CARTESIAN_POINT('Origin',(0.,-20.2081889502561,65.25));
#1348=CARTESIAN_POINT('',(-10.,-30.4581889502561,65.25));
#1349=CARTESIAN_POINT('',(-10.,-20.2081889502561,65.25));
#1350=CARTESIAN_POINT('Origin',(0.,-30.4581889502561,65.25));
#1351=CARTESIAN_POINT('Origin',(20.,-51.25,82.25));
#1352=CARTESIAN_POINT('',(-19.0463516090877,-51.25,82.25));
#1353=CARTESIAN_POINT('',(-19.0463516090877,-51.25,48.25));
#1354=CARTESIAN_POINT('',(-19.0463516090877,-51.25,45.25));
#1355=CARTESIAN_POINT('',(19.0463516090877,-51.25,82.25));
#1356=CARTESIAN_POINT('',(-17.5,-51.25,82.25));
#1357=CARTESIAN_POINT('',(19.0463516090877,-51.25,48.25));
#1358=CARTESIAN_POINT('',(19.0463516090877,-51.25,45.25));
#1359=CARTESIAN_POINT('',(27.5,-51.25,48.25));
#1360=CARTESIAN_POINT('',(10.691342951,-51.2500000000002,58.4999999999999));
#1361=CARTESIAN_POINT('Origin',(11.691342951,-51.2500000000002,58.4999999999999));
#1362=CARTESIAN_POINT('',(10.691342951,-51.2500000000001,71.9999999999999));
#1363=CARTESIAN_POINT('Origin',(11.691342951,-51.2500000000001,71.9999999999999));
#1364=CARTESIAN_POINT('',(-12.691342951,-51.2500000000002,58.4999999999999));
#1365=CARTESIAN_POINT('Origin',(-11.691342951,-51.2500000000002,58.4999999999999));
#1366=CARTESIAN_POINT('',(-12.691342951,-51.2500000000001,71.9999999999999));
#1367=CARTESIAN_POINT('Origin',(-11.691342951,-51.2500000000001,71.9999999999999));
#1368=CARTESIAN_POINT('',(-1.,-51.2500000000002,51.7499999999999));
#1369=CARTESIAN_POINT('Origin',(5.95551847338047E-44,-51.2500000000002,
51.7499999999999));
#1370=CARTESIAN_POINT('',(-1.,-51.25,78.7499999999999));
#1371=CARTESIAN_POINT('Origin',(5.95551847338047E-44,-51.25,78.7499999999999));
#1372=CARTESIAN_POINT('Origin',(0.,-30.4581889502561,65.25));
#1373=CARTESIAN_POINT('',(-20.25,-20.2081889502561,65.25));
#1374=CARTESIAN_POINT('Origin',(-20.25,-30.4581889502561,65.25));
#1375=CARTESIAN_POINT('',(-11.0028405423327,-20.2081889502561,48.25));
#1376=CARTESIAN_POINT('Origin',(0.,-20.2081889502561,65.25));
#1377=CARTESIAN_POINT('',(11.0028405423327,-20.2081889502561,48.25));
#1378=CARTESIAN_POINT('Ctrl Pts',(-11.0028405423327,-20.2081889502561,48.25));
#1379=CARTESIAN_POINT('Ctrl Pts',(-9.92453971200742,-20.2081889502561,48.25));
#1380=CARTESIAN_POINT('Ctrl Pts',(-8.63206344129715,-20.2701578927222,48.25));
#1381=CARTESIAN_POINT('Ctrl Pts',(-6.37565449207649,-20.4192998029718,48.25));
#1382=CARTESIAN_POINT('Ctrl Pts',(-5.07868120304435,-20.5268647748956,48.25));
#1383=CARTESIAN_POINT('Ctrl Pts',(-2.4825736693777,-20.6890509618338,48.25));
#1384=CARTESIAN_POINT('Ctrl Pts',(-1.18303166524363,-20.7370779026443,48.25));
#1385=CARTESIAN_POINT('Ctrl Pts',(1.18303166524363,-20.7370779026443,48.25));
#1386=CARTESIAN_POINT('Ctrl Pts',(2.4825736693777,-20.6890509618338,48.25));
#1387=CARTESIAN_POINT('Ctrl Pts',(5.07868120304435,-20.5268647748956,48.25));
#1388=CARTESIAN_POINT('Ctrl Pts',(6.37565449207649,-20.4192998029718,48.25));
#1389=CARTESIAN_POINT('Ctrl Pts',(8.63206344129715,-20.2701578927222,48.25));
#1390=CARTESIAN_POINT('Ctrl Pts',(9.92453971200742,-20.2081889502561,48.25));
#1391=CARTESIAN_POINT('Ctrl Pts',(11.0028405423327,-20.2081889502561,48.25));
#1392=CARTESIAN_POINT('',(11.0028405423327,-20.2081889502561,82.25));
#1393=CARTESIAN_POINT('Origin',(0.,-20.2081889502561,65.25));
#1394=CARTESIAN_POINT('',(-11.0028405423327,-20.2081889502561,82.25));
#1395=CARTESIAN_POINT('Ctrl Pts',(11.0028405423327,-20.2081889502561,82.25));
#1396=CARTESIAN_POINT('Ctrl Pts',(9.92453971200742,-20.2081889502561,82.25));
#1397=CARTESIAN_POINT('Ctrl Pts',(8.63206344129715,-20.2701578927222,82.25));
#1398=CARTESIAN_POINT('Ctrl Pts',(6.37565449207649,-20.4192998029718,82.25));
#1399=CARTESIAN_POINT('Ctrl Pts',(5.07868120304435,-20.5268647748956,82.25));
#1400=CARTESIAN_POINT('Ctrl Pts',(2.4825736693777,-20.6890509618338,82.25));
#1401=CARTESIAN_POINT('Ctrl Pts',(1.18303166524363,-20.7370779026443,82.25));
#1402=CARTESIAN_POINT('Ctrl Pts',(-1.18303166524363,-20.7370779026443,82.25));
#1403=CARTESIAN_POINT('Ctrl Pts',(-2.4825736693777,-20.6890509618338,82.25));
#1404=CARTESIAN_POINT('Ctrl Pts',(-5.07868120304435,-20.5268647748956,82.25));
#1405=CARTESIAN_POINT('Ctrl Pts',(-6.37565449207649,-20.4192998029718,82.25));
#1406=CARTESIAN_POINT('Ctrl Pts',(-8.63206344129715,-20.2701578927222,82.25));
#1407=CARTESIAN_POINT('Ctrl Pts',(-9.92453971200742,-20.2081889502561,82.25));
#1408=CARTESIAN_POINT('Ctrl Pts',(-11.0028405423327,-20.2081889502561,82.25));
#1409=CARTESIAN_POINT('Origin',(0.,-20.2081889502561,65.25));
#1410=CARTESIAN_POINT('Origin',(4.44089209850063E-15,-1.77635683940025E-14,
65.25));
#1411=CARTESIAN_POINT('',(20.25,-10.25,65.25));
#1412=CARTESIAN_POINT('Origin',(20.25,-1.77635683940025E-14,65.25));
#1413=CARTESIAN_POINT('',(11.0028405423327,-10.25,48.25));
#1414=CARTESIAN_POINT('Origin',(0.,-10.25,65.25));
#1415=CARTESIAN_POINT('',(-11.0028405423327,-10.25,48.25));
#1416=CARTESIAN_POINT('Ctrl Pts',(11.0028405423327,-10.25,48.25));
#1417=CARTESIAN_POINT('Ctrl Pts',(9.92453971200742,-10.25,48.25));
#1418=CARTESIAN_POINT('Ctrl Pts',(8.63206344129716,-10.1880310575339,48.25));
#1419=CARTESIAN_POINT('Ctrl Pts',(6.3756544920765,-10.0388891472844,48.25));
#1420=CARTESIAN_POINT('Ctrl Pts',(5.07868120304436,-9.93132417536052,48.25));
#1421=CARTESIAN_POINT('Ctrl Pts',(2.48257366937771,-9.7691379884223,48.25));
#1422=CARTESIAN_POINT('Ctrl Pts',(1.18303166524364,-9.72111104761181,48.25));
#1423=CARTESIAN_POINT('Ctrl Pts',(-1.18303166524363,-9.72111104761181,48.25));
#1424=CARTESIAN_POINT('Ctrl Pts',(-2.4825736693777,-9.7691379884223,48.25));
#1425=CARTESIAN_POINT('Ctrl Pts',(-5.07868120304435,-9.93132417536052,48.25));
#1426=CARTESIAN_POINT('Ctrl Pts',(-6.37565449207649,-10.0388891472844,48.25));
#1427=CARTESIAN_POINT('Ctrl Pts',(-8.63206344129715,-10.1880310575339,48.25));
#1428=CARTESIAN_POINT('Ctrl Pts',(-9.92453971200742,-10.25,48.25));
#1429=CARTESIAN_POINT('Ctrl Pts',(-11.0028405423327,-10.25,48.25));
#1430=CARTESIAN_POINT('',(-11.0028405423327,-10.25,82.25));
#1431=CARTESIAN_POINT('Origin',(0.,-10.25,65.25));
#1432=CARTESIAN_POINT('',(11.0028405423327,-10.25,82.25));
#1433=CARTESIAN_POINT('Ctrl Pts',(-11.0028405423327,-10.25,82.25));
#1434=CARTESIAN_POINT('Ctrl Pts',(-9.92453971200741,-10.25,82.25));
#1435=CARTESIAN_POINT('Ctrl Pts',(-8.63206344129714,-10.1880310575339,82.25));
#1436=CARTESIAN_POINT('Ctrl Pts',(-6.37565449207649,-10.0388891472844,82.25));
#1437=CARTESIAN_POINT('Ctrl Pts',(-5.07868120304435,-9.93132417536052,82.25));
#1438=CARTESIAN_POINT('Ctrl Pts',(-2.4825736693777,-9.7691379884223,82.25));
#1439=CARTESIAN_POINT('Ctrl Pts',(-1.18303166524363,-9.72111104761181,82.25));
#1440=CARTESIAN_POINT('Ctrl Pts',(1.18303166524364,-9.72111104761181,82.25));
#1441=CARTESIAN_POINT('Ctrl Pts',(2.48257366937771,-9.7691379884223,82.25));
#1442=CARTESIAN_POINT('Ctrl Pts',(5.07868120304436,-9.93132417536052,82.25));
#1443=CARTESIAN_POINT('Ctrl Pts',(6.3756544920765,-10.0388891472844,82.25));
#1444=CARTESIAN_POINT('Ctrl Pts',(8.63206344129715,-10.1880310575339,82.25));
#1445=CARTESIAN_POINT('Ctrl Pts',(9.92453971200742,-10.25,82.25));
#1446=CARTESIAN_POINT('Ctrl Pts',(11.0028405423327,-10.25,82.25));
#1447=CARTESIAN_POINT('Origin',(0.,-10.25,65.25));
#1448=CARTESIAN_POINT('Origin',(4.44089209850063E-15,20.75,65.25));
#1449=CARTESIAN_POINT('',(-3.89995204977008,20.75,70.2499520497701));
#1450=CARTESIAN_POINT('Origin',(-4.99995204977008,20.75,70.2499520497701));
#1451=CARTESIAN_POINT('Origin',(4.44089209850063E-15,20.75,65.25));
#1452=CARTESIAN_POINT('',(-3.89995204977008,20.75,60.2500479502299));
#1453=CARTESIAN_POINT('Origin',(-4.99995204977008,20.75,60.2500479502299));
#1454=CARTESIAN_POINT('Origin',(4.44089209850063E-15,20.75,65.25));
#1455=CARTESIAN_POINT('',(6.09995204977008,20.75,70.2499520497701));
#1456=CARTESIAN_POINT('Origin',(4.99995204977008,20.75,70.2499520497701));
#1457=CARTESIAN_POINT('Origin',(4.44089209850063E-15,20.75,65.25));
#1458=CARTESIAN_POINT('',(6.09995204977008,20.75,60.2500479502299));
#1459=CARTESIAN_POINT('Origin',(4.99995204977008,20.75,60.2500479502299));
#1460=CARTESIAN_POINT('Origin',(4.44089209850063E-15,20.75,65.25));
#1461=CARTESIAN_POINT('',(2.9,20.75,65.25));
#1462=CARTESIAN_POINT('Origin',(0.,20.75,65.25));
#1463=CARTESIAN_POINT('Origin',(0.,34.75,65.25));
#1464=CARTESIAN_POINT('',(2.9,34.75,65.25));
#1465=CARTESIAN_POINT('Origin',(0.,34.75,65.25));
#1466=CARTESIAN_POINT('',(2.9,34.75,65.25));
#1467=CARTESIAN_POINT('Origin',(4.99995204977008,34.75,60.2500479502299));
#1468=CARTESIAN_POINT('',(6.09995204977008,34.75,60.2500479502299));
#1469=CARTESIAN_POINT('',(6.09995204977008,34.75,60.2500479502299));
#1470=CARTESIAN_POINT('Origin',(4.99995204977008,34.75,60.2500479502299));
#1471=CARTESIAN_POINT('Origin',(4.99995204977008,34.75,70.2499520497701));
#1472=CARTESIAN_POINT('',(6.09995204977008,34.75,70.2499520497701));
#1473=CARTESIAN_POINT('',(6.09995204977008,34.75,70.2499520497701));
#1474=CARTESIAN_POINT('Origin',(4.99995204977008,34.75,70.2499520497701));
#1475=CARTESIAN_POINT('Origin',(-4.99995204977008,34.75,60.2500479502299));
#1476=CARTESIAN_POINT('',(-3.89995204977008,34.75,60.2500479502299));
#1477=CARTESIAN_POINT('',(-3.89995204977008,34.75,60.2500479502299));
#1478=CARTESIAN_POINT('Origin',(-4.99995204977008,34.75,60.2500479502299));
#1479=CARTESIAN_POINT('Origin',(-4.99995204977008,34.75,70.2499520497701));
#1480=CARTESIAN_POINT('',(-3.89995204977008,34.75,70.2499520497701));
#1481=CARTESIAN_POINT('',(-3.89995204977008,34.75,70.2499520497701));
#1482=CARTESIAN_POINT('Origin',(-4.99995204977008,34.75,70.2499520497701));
#1483=CARTESIAN_POINT('Origin',(55.,-65.25,48.25));
#1484=CARTESIAN_POINT('',(11.0028405423327,34.75,48.25));
#1485=CARTESIAN_POINT('',(11.0028405423327,34.75,48.25));
#1486=CARTESIAN_POINT('',(-11.0028405423327,34.75,48.25));
#1487=CARTESIAN_POINT('',(-11.0028405423327,34.75,48.25));
#1488=CARTESIAN_POINT('',(27.5,34.75,48.25));
#1489=CARTESIAN_POINT('Origin',(-55.,-65.25,82.25));
#1490=CARTESIAN_POINT('',(11.0028405423327,34.75,82.25));
#1491=CARTESIAN_POINT('',(11.0028405423327,34.75,82.25));
#1492=CARTESIAN_POINT('',(-11.0028405423327,34.75,82.25));
#1493=CARTESIAN_POINT('',(-27.5,34.75,82.25));
#1494=CARTESIAN_POINT('',(-11.0028405423327,34.75,82.25));
#1495=CARTESIAN_POINT('Origin',(0.,34.75,65.25));
#1496=CARTESIAN_POINT('Origin',(0.,34.75,65.25));
#1497=CARTESIAN_POINT('Origin',(0.,34.75,65.25));
#1498=CARTESIAN_POINT('Origin',(0.,34.75,65.25));
#1499=CARTESIAN_POINT('Origin',(0.,34.75,65.25));
#1500=CARTESIAN_POINT('Origin',(0.,34.75,65.25));
#1501=CARTESIAN_POINT('',(-11.0028405423327,34.75,48.25));
#1502=CARTESIAN_POINT('',(-11.0028405423327,34.75,82.25));
#1503=CARTESIAN_POINT('Origin',(0.,34.75,65.25));
#1504=CARTESIAN_POINT('',(11.0028405423327,34.75,48.25));
#1505=CARTESIAN_POINT('',(11.0028405423327,34.75,82.25));
#1506=CARTESIAN_POINT('Origin',(55.,-65.25,48.25));
#1507=CARTESIAN_POINT('Origin',(-55.,-65.25,82.25));
#1508=CARTESIAN_POINT('Origin',(-19.0463516090877,-57.25,45.25));
#1509=CARTESIAN_POINT('',(-23.7038236723532,-61.032585620961,48.25));
#1510=CARTESIAN_POINT('Origin',(-19.0463516090877,-57.25,48.25));
#1511=CARTESIAN_POINT('',(-23.7038236723532,-61.032585620961,82.25));
#1512=CARTESIAN_POINT('',(-23.7038236723532,-61.032585620961,45.25));
#1513=CARTESIAN_POINT('Origin',(-19.0463516090877,-57.25,82.25));
#1514=CARTESIAN_POINT('Origin',(-55.,-65.25,82.25));
#1515=CARTESIAN_POINT('',(-20.,-65.25,82.25));
#1516=CARTESIAN_POINT('Origin',(32.8309748427673,-15.1176100628931,82.25));
#1517=CARTESIAN_POINT('',(20.,-65.25,82.25));
#1518=CARTESIAN_POINT('',(-27.5,-65.25,82.25));
#1519=CARTESIAN_POINT('',(23.7038236723533,-61.032585620961,82.25));
#1520=CARTESIAN_POINT('Origin',(-32.8309748427673,-15.1176100628931,82.25));
#1521=CARTESIAN_POINT('Origin',(19.0463516090877,-57.25,82.25));
#1522=CARTESIAN_POINT('Origin',(19.0463516090877,-57.25,45.25));
#1523=CARTESIAN_POINT('',(23.7038236723533,-61.032585620961,48.25));
#1524=CARTESIAN_POINT('Origin',(19.0463516090877,-57.25,48.25));
#1525=CARTESIAN_POINT('',(23.7038236723533,-61.032585620961,45.25));
#1526=CARTESIAN_POINT('Origin',(55.,-65.25,48.25));
#1527=CARTESIAN_POINT('',(20.,-65.25,48.25));
#1528=CARTESIAN_POINT('Origin',(-32.8309748427673,-15.1176100628931,48.25));
#1529=CARTESIAN_POINT('',(-20.,-65.25,48.25));
#1530=CARTESIAN_POINT('',(27.5,-65.25,48.25));
#1531=CARTESIAN_POINT('Origin',(32.8309748427673,-15.1176100628931,48.25));
#1532=CARTESIAN_POINT('Origin',(-32.8309748427673,-15.1176100628931,45.25));
#1533=CARTESIAN_POINT('',(20.,-65.25,50.2499997019768));
#1534=CARTESIAN_POINT('Origin',(0.,-65.25,65.25));
#1535=CARTESIAN_POINT('',(-20.,-65.25,45.25));
#1536=CARTESIAN_POINT('',(-1.,-65.25,51.75));
#1537=CARTESIAN_POINT('Origin',(5.95551847338047E-44,-65.2500000000001,
51.75));
#1538=CARTESIAN_POINT('',(-12.691342951,-65.25,72.));
#1539=CARTESIAN_POINT('Origin',(-11.691342951,-65.25,72.));
#1540=CARTESIAN_POINT('',(-1.,-65.25,78.75));
#1541=CARTESIAN_POINT('Origin',(5.95551847338047E-44,-65.2499999999999,
78.75));
#1542=CARTESIAN_POINT('',(-12.691342951,-65.25,58.5));
#1543=CARTESIAN_POINT('Origin',(-11.691342951,-65.2500000000001,58.5));
#1544=CARTESIAN_POINT('',(10.691342951,-65.25,58.5));
#1545=CARTESIAN_POINT('Origin',(11.691342951,-65.2500000000001,58.5));
#1546=CARTESIAN_POINT('',(10.691342951,-65.25,72.));
#1547=CARTESIAN_POINT('Origin',(11.691342951,-65.25,72.));
#1548=CARTESIAN_POINT('Origin',(32.8309748427673,-15.1176100628931,45.25));
#1549=CARTESIAN_POINT('Origin',(5.95551847338047E-44,-67.2500000000001,
51.75));
#1550=CARTESIAN_POINT('',(-1.,-67.2500000000001,51.75));
#1551=CARTESIAN_POINT('Origin',(5.95551847338047E-44,-67.2499999999999,
78.75));
#1552=CARTESIAN_POINT('',(-1.,-67.2499999999999,78.75));
#1553=CARTESIAN_POINT('Origin',(11.691342951,-67.2500000000001,58.5));
#1554=CARTESIAN_POINT('',(10.691342951,-67.2500000000001,58.5));
#1555=CARTESIAN_POINT('Origin',(11.691342951,-67.25,72.));
#1556=CARTESIAN_POINT('',(10.691342951,-67.25,72.));
#1557=CARTESIAN_POINT('Origin',(-11.691342951,-67.2500000000001,58.5));
#1558=CARTESIAN_POINT('',(-12.691342951,-67.2500000000001,58.5));
#1559=CARTESIAN_POINT('Origin',(-11.691342951,-67.25,72.));
#1560=CARTESIAN_POINT('',(-12.691342951,-67.25,72.));
#1561=UNCERTAINTY_MEASURE_WITH_UNIT(LENGTH_MEASURE(0.01),#1565,
'DISTANCE_ACCURACY_VALUE',
'Maximum model space distance between geometric entities at asserted c
onnectivities');
#1562=UNCERTAINTY_MEASURE_WITH_UNIT(LENGTH_MEASURE(0.01),#1565,
'DISTANCE_ACCURACY_VALUE',
'Maximum model space distance between geometric entities at asserted c
onnectivities');
#1563=(
GEOMETRIC_REPRESENTATION_CONTEXT(3)
GLOBAL_UNCERTAINTY_ASSIGNED_CONTEXT((#1561))
GLOBAL_UNIT_ASSIGNED_CONTEXT((#1565,#1567,#1568))
REPRESENTATION_CONTEXT('','3D')
);
#1564=(
GEOMETRIC_REPRESENTATION_CONTEXT(3)
GLOBAL_UNCERTAINTY_ASSIGNED_CONTEXT((#1562))
GLOBAL_UNIT_ASSIGNED_CONTEXT((#1565,#1567,#1568))
REPRESENTATION_CONTEXT('','3D')
);
#1565=(
LENGTH_UNIT()
NAMED_UNIT(*)
SI_UNIT(.MILLI.,.METRE.)
);
#1566=(
LENGTH_UNIT()
NAMED_UNIT(*)
SI_UNIT($,.METRE.)
);
#1567=(
NAMED_UNIT(*)
PLANE_ANGLE_UNIT()
SI_UNIT($,.RADIAN.)
);
#1568=(
NAMED_UNIT(*)
SI_UNIT($,.STERADIAN.)
SOLID_ANGLE_UNIT()
);
#1569=SHAPE_DEFINITION_REPRESENTATION(#1570,#1571);
#1570=PRODUCT_DEFINITION_SHAPE('',$,#1573);
#1571=SHAPE_REPRESENTATION('',(#859),#1563);
#1572=PRODUCT_DEFINITION_CONTEXT('part definition',#1577,'design');
#1573=PRODUCT_DEFINITION('FusionComponent','FusionComponent',#1574,#1572);
#1574=PRODUCT_DEFINITION_FORMATION('',$,#1579);
#1575=PRODUCT_RELATED_PRODUCT_CATEGORY('FusionComponent',
'FusionComponent',(#1579));
#1576=APPLICATION_PROTOCOL_DEFINITION('international standard',
'automotive_design',2009,#1577);
#1577=APPLICATION_CONTEXT(
'Core Data for Automotive Mechanical Design Process');
#1578=PRODUCT_CONTEXT('part definition',#1577,'mechanical');
#1579=PRODUCT('FusionComponent','FusionComponent',$,(#1578));
#1580=PRESENTATION_STYLE_ASSIGNMENT((#1581));
#1581=SURFACE_STYLE_USAGE(.BOTH.,#1582);
#1582=SURFACE_SIDE_STYLE('',(#1583));
#1583=SURFACE_STYLE_FILL_AREA(#1584);
#1584=FILL_AREA_STYLE('Steel - Satin',(#1585));
#1585=FILL_AREA_STYLE_COLOUR('Steel - Satin',#1586);
#1586=COLOUR_RGB('Steel - Satin',0.627450980392157,0.627450980392157,0.627450980392157);
ENDSEC;
END-ISO-10303-21;
