G04 #@! TF.GenerationSoftware,KiCad,Pcbnew,7.0.7*
G04 #@! TF.CreationDate,2024-03-26T20:24:03+05:30*
G04 #@! TF.ProjectId,PDB_Test,5044425f-5465-4737-942e-6b696361645f,rev?*
G04 #@! TF.SameCoordinates,Original*
G04 #@! TF.FileFunction,Copper,L2,Bot*
G04 #@! TF.FilePolarity,Positive*
%FSLAX46Y46*%
G04 Gerber Fmt 4.6, Leading zero omitted, Abs format (unit mm)*
G04 Created by KiCad (PCBNEW 7.0.7) date 2024-03-26 20:24:03*
%MOMM*%
%LPD*%
G01*
G04 APERTURE LIST*
G04 #@! TA.AperFunction,ComponentPad*
%ADD10R,1.980000X3.960000*%
G04 #@! TD*
G04 #@! TA.AperFunction,ComponentPad*
%ADD11O,1.980000X3.960000*%
G04 #@! TD*
G04 #@! TA.AperFunction,ComponentPad*
%ADD12R,3.960000X1.980000*%
G04 #@! TD*
G04 #@! TA.AperFunction,ComponentPad*
%ADD13O,3.960000X1.980000*%
G04 #@! TD*
G04 #@! TA.AperFunction,ComponentPad*
%ADD14R,1.800000X1.800000*%
G04 #@! TD*
G04 #@! TA.AperFunction,ComponentPad*
%ADD15C,1.800000*%
G04 #@! TD*
G04 #@! TA.AperFunction,ComponentPad*
%ADD16R,1.600000X1.600000*%
G04 #@! TD*
G04 #@! TA.AperFunction,ComponentPad*
%ADD17O,1.600000X1.600000*%
G04 #@! TD*
G04 #@! TA.AperFunction,ComponentPad*
%ADD18C,1.400000*%
G04 #@! TD*
G04 #@! TA.AperFunction,ComponentPad*
%ADD19O,1.400000X1.400000*%
G04 #@! TD*
G04 #@! TA.AperFunction,ComponentPad*
%ADD20C,1.600000*%
G04 #@! TD*
G04 #@! TA.AperFunction,ComponentPad*
%ADD21R,1.905000X2.000000*%
G04 #@! TD*
G04 #@! TA.AperFunction,ComponentPad*
%ADD22O,1.905000X2.000000*%
G04 #@! TD*
G04 #@! TA.AperFunction,Conductor*
%ADD23C,2.000000*%
G04 #@! TD*
G04 #@! TA.AperFunction,Conductor*
%ADD24C,1.000000*%
G04 #@! TD*
G04 #@! TA.AperFunction,Conductor*
%ADD25C,1.500000*%
G04 #@! TD*
G04 APERTURE END LIST*
D10*
X56671000Y-33862000D03*
D11*
X61671000Y-33862000D03*
D10*
X61693000Y-72004500D03*
D11*
X56693000Y-72004500D03*
D12*
X32258000Y-55960000D03*
D13*
X32258000Y-50960000D03*
D12*
X105156000Y-67818000D03*
D13*
X105156000Y-72818000D03*
D12*
X106172000Y-33020000D03*
D13*
X106172000Y-38020000D03*
D14*
X90932000Y-71962000D03*
D15*
X88392000Y-71962000D03*
D16*
X79967500Y-68406000D03*
D17*
X72347500Y-68406000D03*
D14*
X107696000Y-50880000D03*
D15*
X105156000Y-50880000D03*
D14*
X46223000Y-71496500D03*
D15*
X48763000Y-71496500D03*
D18*
X99568000Y-56214000D03*
D19*
X91948000Y-56214000D03*
D16*
X33020000Y-75264000D03*
D17*
X33020000Y-67644000D03*
D16*
X76962000Y-43688000D03*
D20*
X73462000Y-43688000D03*
D14*
X46736000Y-33100000D03*
D15*
X49276000Y-33100000D03*
D16*
X84031500Y-56214000D03*
D17*
X76411500Y-56214000D03*
D16*
X33020000Y-29544000D03*
D17*
X33020000Y-37164000D03*
D16*
X52789500Y-53420000D03*
D17*
X45169500Y-53420000D03*
D14*
X69088000Y-55118000D03*
D15*
X66548000Y-55118000D03*
D18*
X40894000Y-75560500D03*
D19*
X40894000Y-67940500D03*
D18*
X79756000Y-77296000D03*
D19*
X72136000Y-77296000D03*
D16*
X88263349Y-43942000D03*
D20*
X91763349Y-43942000D03*
D21*
X80010000Y-31505000D03*
D22*
X82550000Y-31505000D03*
X85090000Y-31505000D03*
D18*
X60198000Y-56976000D03*
D19*
X60198000Y-49356000D03*
D18*
X40894000Y-29290000D03*
D19*
X40894000Y-36910000D03*
D23*
X114554000Y-69088000D02*
X110824000Y-72818000D01*
X110824000Y-72818000D02*
X105156000Y-72818000D01*
X114554000Y-65278000D02*
X114554000Y-69088000D01*
X95758000Y-58166000D02*
X99949000Y-62357000D01*
X95758000Y-47936651D02*
X95758000Y-58166000D01*
X91763349Y-43942000D02*
X95758000Y-47936651D01*
X99949000Y-62357000D02*
X111633000Y-62357000D01*
X111633000Y-62357000D02*
X114554000Y-65278000D01*
X82550000Y-31505000D02*
X82550000Y-27432000D01*
X82550000Y-27432000D02*
X83566000Y-26416000D01*
X83566000Y-26416000D02*
X87122000Y-26416000D01*
X79756000Y-26416000D02*
X83566000Y-26416000D01*
X87122000Y-26416000D02*
X95758000Y-35052000D01*
X95758000Y-35052000D02*
X90424000Y-29718000D01*
X98726000Y-38020000D02*
X95758000Y-35052000D01*
X87122000Y-26416000D02*
X91763349Y-31057349D01*
X78613000Y-27559000D02*
X79756000Y-26416000D01*
X73462000Y-32710000D02*
X73462000Y-43688000D01*
X79756000Y-26416000D02*
X73462000Y-32710000D01*
X76807000Y-29365000D02*
X79756000Y-26416000D01*
X66139000Y-29365000D02*
X76807000Y-29365000D01*
X76807000Y-29365000D02*
X78613000Y-27559000D01*
X61671000Y-33833000D02*
X66139000Y-29365000D01*
X61671000Y-33862000D02*
X61671000Y-33833000D01*
X73462000Y-32710000D02*
X78613000Y-27559000D01*
D24*
X107696000Y-50546000D02*
X112014000Y-46228000D01*
X107696000Y-50880000D02*
X107696000Y-50546000D01*
X112014000Y-46228000D02*
X112014000Y-36068000D01*
D23*
X106172000Y-38020000D02*
X98726000Y-38020000D01*
X91763349Y-43942000D02*
X91763349Y-31057349D01*
X91763349Y-31057349D02*
X90424000Y-29718000D01*
X88646000Y-27940000D02*
X90424000Y-29718000D01*
X88646000Y-27940000D02*
X87122000Y-26416000D01*
X94107000Y-33401000D02*
X88646000Y-27940000D01*
X43434000Y-44450000D02*
X46482000Y-44450000D01*
X36576000Y-44450000D02*
X43434000Y-44450000D01*
X57150000Y-44450000D02*
X43434000Y-44450000D01*
X61671000Y-39929000D02*
X57150000Y-44450000D01*
X52832000Y-44450000D02*
X53797000Y-44450000D01*
X61671000Y-33862000D02*
X61671000Y-39929000D01*
X46482000Y-44450000D02*
X52832000Y-44450000D01*
X46482000Y-44450000D02*
X51054000Y-44450000D01*
X51054000Y-44450000D02*
X54864000Y-44450000D01*
D24*
X105156000Y-67818000D02*
X95076000Y-67818000D01*
X95076000Y-67818000D02*
X90932000Y-71962000D01*
X109220000Y-33020000D02*
X112141000Y-35941000D01*
X112014000Y-36068000D02*
X112141000Y-35941000D01*
X106172000Y-33020000D02*
X109220000Y-33020000D01*
X102282000Y-56214000D02*
X105156000Y-53340000D01*
X105156000Y-53340000D02*
X105156000Y-50880000D01*
X99568000Y-56214000D02*
X102282000Y-56214000D01*
D25*
X88138000Y-43942000D02*
X88263349Y-43942000D01*
X85090000Y-40894000D02*
X88138000Y-43942000D01*
X85090000Y-31505000D02*
X85090000Y-40894000D01*
X86614000Y-43942000D02*
X84328000Y-43942000D01*
X88263349Y-43942000D02*
X86614000Y-43942000D01*
X76411500Y-51858500D02*
X76411500Y-56214000D01*
X84328000Y-43942000D02*
X76411500Y-51858500D01*
D24*
X85090000Y-71962000D02*
X88392000Y-71962000D01*
X79756000Y-77296000D02*
X85090000Y-71962000D01*
X89742000Y-58420000D02*
X91948000Y-56214000D01*
X84836000Y-58420000D02*
X89742000Y-58420000D01*
X84031500Y-57615500D02*
X84836000Y-58420000D01*
X84031500Y-56214000D02*
X84031500Y-57615500D01*
D25*
X72347500Y-60278000D02*
X76411500Y-56214000D01*
X72347500Y-68406000D02*
X72347500Y-60278000D01*
D24*
X79967500Y-71416500D02*
X79967500Y-68406000D01*
X75264000Y-74168000D02*
X77216000Y-74168000D01*
X72136000Y-77296000D02*
X75264000Y-74168000D01*
X77216000Y-74168000D02*
X79967500Y-71416500D01*
D25*
X69088000Y-53467000D02*
X76962000Y-45593000D01*
X69088000Y-55118000D02*
X69088000Y-53467000D01*
X76962000Y-45593000D02*
X76962000Y-43688000D01*
X64690000Y-56976000D02*
X66548000Y-55118000D01*
X60198000Y-56976000D02*
X64690000Y-56976000D01*
D23*
X49022000Y-60706000D02*
X49022000Y-46482000D01*
X49022000Y-46482000D02*
X51054000Y-44450000D01*
X56693000Y-68377000D02*
X49022000Y-60706000D01*
X56693000Y-72004500D02*
X56693000Y-68377000D01*
D25*
X46223000Y-69855000D02*
X46223000Y-71496500D01*
X47752000Y-68326000D02*
X46223000Y-69855000D01*
X52324000Y-75184000D02*
X52324000Y-70104000D01*
X50546000Y-68326000D02*
X47752000Y-68326000D01*
X53848000Y-76708000D02*
X52324000Y-75184000D01*
X52324000Y-70104000D02*
X50546000Y-68326000D01*
X56989500Y-76708000D02*
X53848000Y-76708000D01*
X61693000Y-72004500D02*
X56989500Y-76708000D01*
X46990000Y-77216000D02*
X48763000Y-75443000D01*
X48763000Y-75443000D02*
X48763000Y-71496500D01*
X42549500Y-77216000D02*
X46990000Y-77216000D01*
X40894000Y-75560500D02*
X42549500Y-77216000D01*
X40894000Y-67940500D02*
X39160500Y-66207000D01*
X39160500Y-66207000D02*
X34457000Y-66207000D01*
X33020000Y-67644000D02*
X34457000Y-66207000D01*
D23*
X32258000Y-50960000D02*
X32258000Y-48768000D01*
X32258000Y-48768000D02*
X36576000Y-44450000D01*
D25*
X80010000Y-40640000D02*
X76962000Y-43688000D01*
X80010000Y-31505000D02*
X80010000Y-40640000D01*
X55038000Y-49356000D02*
X60198000Y-49356000D01*
X52789500Y-51604500D02*
X55038000Y-49356000D01*
X52789500Y-53420000D02*
X52789500Y-51604500D01*
X39878000Y-58711500D02*
X39878000Y-58928000D01*
X45169500Y-53420000D02*
X39878000Y-58711500D01*
X35306000Y-58928000D02*
X39878000Y-58928000D01*
X32338000Y-55960000D02*
X35306000Y-58928000D01*
X32258000Y-55960000D02*
X32338000Y-55960000D01*
X32258000Y-55960000D02*
X27512000Y-55960000D01*
X23368000Y-51816000D02*
X23368000Y-68834000D01*
X27512000Y-55960000D02*
X23368000Y-51816000D01*
X23368000Y-36068000D02*
X23368000Y-51816000D01*
X29798000Y-75264000D02*
X33020000Y-75264000D01*
X23368000Y-68834000D02*
X29798000Y-75264000D01*
X33020000Y-29544000D02*
X29892000Y-29544000D01*
X29892000Y-29544000D02*
X23368000Y-36068000D01*
X46736000Y-35052000D02*
X48514000Y-36830000D01*
X46736000Y-33100000D02*
X46736000Y-35052000D01*
X53703000Y-36830000D02*
X48514000Y-36830000D01*
X56671000Y-33862000D02*
X53703000Y-36830000D01*
X47752000Y-27686000D02*
X49276000Y-29210000D01*
X42498000Y-27686000D02*
X47752000Y-27686000D01*
X40894000Y-29290000D02*
X42498000Y-27686000D01*
X49276000Y-29210000D02*
X49276000Y-33100000D01*
X38434000Y-39370000D02*
X40894000Y-36910000D01*
X33020000Y-37164000D02*
X35226000Y-39370000D01*
X35226000Y-39370000D02*
X38434000Y-39370000D01*
M02*
