M48
; DRILL file {KiCad 7.0.7} date Tue Mar 26 20:25:11 2024
; FORMAT={-:-/ absolute / metric / decimal}
; #@! TF.CreationDate,2024-03-26T20:25:11+05:30
; #@! TF.GenerationSoftware,Kicad,Pcbnew,7.0.7
; #@! TF.FileFunction,Plated,1,2,PTH
FMAT,2
METRIC
; #@! TA.AperFunction,Plated,PTH,ComponentDrill
T1C0.700
; #@! TA.AperFunction,Plated,PTH,ComponentDrill
T2C0.800
; #@! TA.AperFunction,Plated,PTH,ComponentDrill
T3C0.900
; #@! TA.AperFunction,Plated,PTH,ComponentDrill
T4C1.100
; #@! TA.AperFunction,Plated,PTH,ComponentDrill
T5C1.320
%
G90
G05
T1
X40.894Y-29.29
X40.894Y-36.91
X40.894Y-67.941
X40.894Y-75.56
X60.198Y-49.356
X60.198Y-56.976
X72.136Y-77.296
X79.756Y-77.296
X91.948Y-56.214
X99.568Y-56.214
T2
X33.02Y-29.544
X33.02Y-37.164
X33.02Y-67.644
X33.02Y-75.264
X45.169Y-53.42
X52.789Y-53.42
X72.347Y-68.406
X73.462Y-43.688
X76.411Y-56.214
X76.962Y-43.688
X79.968Y-68.406
X84.031Y-56.214
X88.263Y-43.942
X91.763Y-43.942
T3
X46.223Y-71.496
X46.736Y-33.1
X48.763Y-71.496
X49.276Y-33.1
X66.548Y-55.118
X69.088Y-55.118
X88.392Y-71.962
X90.932Y-71.962
X105.156Y-50.88
X107.696Y-50.88
T4
X80.01Y-31.505
X82.55Y-31.505
X85.09Y-31.505
T5
X32.258Y-50.96
X32.258Y-55.96
X56.671Y-33.862
X56.693Y-72.004
X61.671Y-33.862
X61.693Y-72.004
X105.156Y-67.818
X105.156Y-72.818
X106.172Y-33.02
X106.172Y-38.02
T0
M30
