%TF.GenerationSoftware,KiCad,Pcbnew,7.0.7*%
%TF.CreationDate,2024-03-26T20:25:31+05:30*%
%TF.ProjectId,PDB_Test,5044425f-5465-4737-942e-6b696361645f,rev?*%
%TF.SameCoordinates,Original*%
%TF.FileFunction,Drillmap*%
%TF.FilePolarity,Positive*%
%FSLAX45Y45*%
G04 Gerber Fmt 4.5, Leading zero omitted, Abs format (unit mm)*
G04 Created by KiCad (PCBNEW 7.0.7) date 2024-03-26 20:25:31*
%MOMM*%
%LPD*%
G01*
G04 APERTURE LIST*
%ADD10C,0.100000*%
%ADD11C,0.200000*%
%ADD12C,0.070000*%
%ADD13C,0.080000*%
%ADD14C,0.090000*%
%ADD15C,0.110000*%
%ADD16C,0.132000*%
G04 APERTURE END LIST*
D10*
X2794000Y-7899400D02*
G75*
G03*
X2794000Y-7899400I-300000J0D01*
G01*
X11577600Y-7970800D02*
G75*
G03*
X11577600Y-7970800I-300000J0D01*
G01*
X2763800Y-2743200D02*
G75*
G03*
X2763800Y-2743200I-300000J0D01*
G01*
X11603000Y-2667000D02*
G75*
G03*
X11603000Y-2667000I-300000J0D01*
G01*
X2032000Y-2286000D02*
X11684000Y-2286000D01*
X11684000Y-8382000D01*
X2032000Y-8382000D01*
X2032000Y-2286000D01*
D11*
D12*
X4054400Y-2894000D02*
X4124400Y-2964000D01*
X4124400Y-2894000D02*
X4054400Y-2964000D01*
X4054400Y-3656000D02*
X4124400Y-3726000D01*
X4124400Y-3656000D02*
X4054400Y-3726000D01*
X4054400Y-6759050D02*
X4124400Y-6829050D01*
X4124400Y-6759050D02*
X4054400Y-6829050D01*
X4054400Y-7521050D02*
X4124400Y-7591050D01*
X4124400Y-7521050D02*
X4054400Y-7591050D01*
X5984800Y-4900600D02*
X6054800Y-4970600D01*
X6054800Y-4900600D02*
X5984800Y-4970600D01*
X5984800Y-5662600D02*
X6054800Y-5732600D01*
X6054800Y-5662600D02*
X5984800Y-5732600D01*
X7178600Y-7694600D02*
X7248600Y-7764600D01*
X7248600Y-7694600D02*
X7178600Y-7764600D01*
X7940600Y-7694600D02*
X8010600Y-7764600D01*
X8010600Y-7694600D02*
X7940600Y-7764600D01*
X9159800Y-5586400D02*
X9229800Y-5656400D01*
X9229800Y-5586400D02*
X9159800Y-5656400D01*
X9921800Y-5586400D02*
X9991800Y-5656400D01*
X9991800Y-5586400D02*
X9921800Y-5656400D01*
D13*
X3342000Y-2954400D02*
G75*
G03*
X3342000Y-2954400I-40000J0D01*
G01*
X3342000Y-3716400D02*
G75*
G03*
X3342000Y-3716400I-40000J0D01*
G01*
X3342000Y-6764400D02*
G75*
G03*
X3342000Y-6764400I-40000J0D01*
G01*
X3342000Y-7526400D02*
G75*
G03*
X3342000Y-7526400I-40000J0D01*
G01*
X4556950Y-5342000D02*
G75*
G03*
X4556950Y-5342000I-40000J0D01*
G01*
X5318950Y-5342000D02*
G75*
G03*
X5318950Y-5342000I-40000J0D01*
G01*
X7274750Y-6840600D02*
G75*
G03*
X7274750Y-6840600I-40000J0D01*
G01*
X7386200Y-4368800D02*
G75*
G03*
X7386200Y-4368800I-40000J0D01*
G01*
X7681150Y-5621400D02*
G75*
G03*
X7681150Y-5621400I-40000J0D01*
G01*
X7736200Y-4368800D02*
G75*
G03*
X7736200Y-4368800I-40000J0D01*
G01*
X8036750Y-6840600D02*
G75*
G03*
X8036750Y-6840600I-40000J0D01*
G01*
X8443150Y-5621400D02*
G75*
G03*
X8443150Y-5621400I-40000J0D01*
G01*
X8866335Y-4394200D02*
G75*
G03*
X8866335Y-4394200I-40000J0D01*
G01*
X9216335Y-4394200D02*
G75*
G03*
X9216335Y-4394200I-40000J0D01*
G01*
D14*
X4622300Y-7104650D02*
X4622300Y-7194650D01*
X4577300Y-7149650D02*
X4667300Y-7149650D01*
X4673600Y-3265000D02*
X4673600Y-3355000D01*
X4628600Y-3310000D02*
X4718600Y-3310000D01*
X4876300Y-7104650D02*
X4876300Y-7194650D01*
X4831300Y-7149650D02*
X4921300Y-7149650D01*
X4927600Y-3265000D02*
X4927600Y-3355000D01*
X4882600Y-3310000D02*
X4972600Y-3310000D01*
X6654800Y-5466800D02*
X6654800Y-5556800D01*
X6609800Y-5511800D02*
X6699800Y-5511800D01*
X6908800Y-5466800D02*
X6908800Y-5556800D01*
X6863800Y-5511800D02*
X6953800Y-5511800D01*
X8839200Y-7151200D02*
X8839200Y-7241200D01*
X8794200Y-7196200D02*
X8884200Y-7196200D01*
X9093200Y-7151200D02*
X9093200Y-7241200D01*
X9048200Y-7196200D02*
X9138200Y-7196200D01*
X10515600Y-5043000D02*
X10515600Y-5133000D01*
X10470600Y-5088000D02*
X10560600Y-5088000D01*
X10769600Y-5043000D02*
X10769600Y-5133000D01*
X10724600Y-5088000D02*
X10814600Y-5088000D01*
D15*
X8039891Y-3189391D02*
X8039891Y-3111609D01*
X7962109Y-3111609D01*
X7962109Y-3189391D01*
X8039891Y-3189391D01*
X8293891Y-3189391D02*
X8293891Y-3111609D01*
X8216109Y-3111609D01*
X8216109Y-3189391D01*
X8293891Y-3189391D01*
X8547891Y-3189391D02*
X8547891Y-3111609D01*
X8470109Y-3111609D01*
X8470109Y-3189391D01*
X8547891Y-3189391D01*
D16*
X3225800Y-5162000D02*
X3291800Y-5096000D01*
X3225800Y-5030000D01*
X3159800Y-5096000D01*
X3225800Y-5162000D01*
X3225800Y-5662000D02*
X3291800Y-5596000D01*
X3225800Y-5530000D01*
X3159800Y-5596000D01*
X3225800Y-5662000D01*
X5667100Y-3452200D02*
X5733100Y-3386200D01*
X5667100Y-3320200D01*
X5601100Y-3386200D01*
X5667100Y-3452200D01*
X5669300Y-7266450D02*
X5735300Y-7200450D01*
X5669300Y-7134450D01*
X5603300Y-7200450D01*
X5669300Y-7266450D01*
X6167100Y-3452200D02*
X6233100Y-3386200D01*
X6167100Y-3320200D01*
X6101100Y-3386200D01*
X6167100Y-3452200D01*
X6169300Y-7266450D02*
X6235300Y-7200450D01*
X6169300Y-7134450D01*
X6103300Y-7200450D01*
X6169300Y-7266450D01*
X10515600Y-6847800D02*
X10581600Y-6781800D01*
X10515600Y-6715800D01*
X10449600Y-6781800D01*
X10515600Y-6847800D01*
X10515600Y-7347800D02*
X10581600Y-7281800D01*
X10515600Y-7215800D01*
X10449600Y-7281800D01*
X10515600Y-7347800D01*
X10617200Y-3368000D02*
X10683200Y-3302000D01*
X10617200Y-3236000D01*
X10551200Y-3302000D01*
X10617200Y-3368000D01*
X10617200Y-3868000D02*
X10683200Y-3802000D01*
X10617200Y-3736000D01*
X10551200Y-3802000D01*
X10617200Y-3868000D01*
D11*
X2287777Y-8698484D02*
X2287777Y-8498484D01*
X2287777Y-8498484D02*
X2335396Y-8498484D01*
X2335396Y-8498484D02*
X2363967Y-8508008D01*
X2363967Y-8508008D02*
X2383015Y-8527055D01*
X2383015Y-8527055D02*
X2392539Y-8546103D01*
X2392539Y-8546103D02*
X2402063Y-8584198D01*
X2402063Y-8584198D02*
X2402063Y-8612770D01*
X2402063Y-8612770D02*
X2392539Y-8650865D01*
X2392539Y-8650865D02*
X2383015Y-8669912D01*
X2383015Y-8669912D02*
X2363967Y-8688960D01*
X2363967Y-8688960D02*
X2335396Y-8698484D01*
X2335396Y-8698484D02*
X2287777Y-8698484D01*
X2487777Y-8698484D02*
X2487777Y-8565150D01*
X2487777Y-8603246D02*
X2497301Y-8584198D01*
X2497301Y-8584198D02*
X2506824Y-8574674D01*
X2506824Y-8574674D02*
X2525872Y-8565150D01*
X2525872Y-8565150D02*
X2544920Y-8565150D01*
X2611586Y-8698484D02*
X2611586Y-8565150D01*
X2611586Y-8498484D02*
X2602063Y-8508008D01*
X2602063Y-8508008D02*
X2611586Y-8517531D01*
X2611586Y-8517531D02*
X2621110Y-8508008D01*
X2621110Y-8508008D02*
X2611586Y-8498484D01*
X2611586Y-8498484D02*
X2611586Y-8517531D01*
X2735396Y-8698484D02*
X2716348Y-8688960D01*
X2716348Y-8688960D02*
X2706824Y-8669912D01*
X2706824Y-8669912D02*
X2706824Y-8498484D01*
X2840158Y-8698484D02*
X2821110Y-8688960D01*
X2821110Y-8688960D02*
X2811586Y-8669912D01*
X2811586Y-8669912D02*
X2811586Y-8498484D01*
X3068729Y-8698484D02*
X3068729Y-8498484D01*
X3068729Y-8498484D02*
X3135396Y-8641341D01*
X3135396Y-8641341D02*
X3202062Y-8498484D01*
X3202062Y-8498484D02*
X3202062Y-8698484D01*
X3383015Y-8698484D02*
X3383015Y-8593722D01*
X3383015Y-8593722D02*
X3373491Y-8574674D01*
X3373491Y-8574674D02*
X3354443Y-8565150D01*
X3354443Y-8565150D02*
X3316348Y-8565150D01*
X3316348Y-8565150D02*
X3297301Y-8574674D01*
X3383015Y-8688960D02*
X3363967Y-8698484D01*
X3363967Y-8698484D02*
X3316348Y-8698484D01*
X3316348Y-8698484D02*
X3297301Y-8688960D01*
X3297301Y-8688960D02*
X3287777Y-8669912D01*
X3287777Y-8669912D02*
X3287777Y-8650865D01*
X3287777Y-8650865D02*
X3297301Y-8631817D01*
X3297301Y-8631817D02*
X3316348Y-8622293D01*
X3316348Y-8622293D02*
X3363967Y-8622293D01*
X3363967Y-8622293D02*
X3383015Y-8612770D01*
X3478253Y-8565150D02*
X3478253Y-8765150D01*
X3478253Y-8574674D02*
X3497301Y-8565150D01*
X3497301Y-8565150D02*
X3535396Y-8565150D01*
X3535396Y-8565150D02*
X3554443Y-8574674D01*
X3554443Y-8574674D02*
X3563967Y-8584198D01*
X3563967Y-8584198D02*
X3573491Y-8603246D01*
X3573491Y-8603246D02*
X3573491Y-8660389D01*
X3573491Y-8660389D02*
X3563967Y-8679436D01*
X3563967Y-8679436D02*
X3554443Y-8688960D01*
X3554443Y-8688960D02*
X3535396Y-8698484D01*
X3535396Y-8698484D02*
X3497301Y-8698484D01*
X3497301Y-8698484D02*
X3478253Y-8688960D01*
X3659205Y-8679436D02*
X3668729Y-8688960D01*
X3668729Y-8688960D02*
X3659205Y-8698484D01*
X3659205Y-8698484D02*
X3649682Y-8688960D01*
X3649682Y-8688960D02*
X3659205Y-8679436D01*
X3659205Y-8679436D02*
X3659205Y-8698484D01*
X3659205Y-8574674D02*
X3668729Y-8584198D01*
X3668729Y-8584198D02*
X3659205Y-8593722D01*
X3659205Y-8593722D02*
X3649682Y-8584198D01*
X3649682Y-8584198D02*
X3659205Y-8574674D01*
X3659205Y-8574674D02*
X3659205Y-8593722D01*
D12*
X1957000Y-8992000D02*
X2027000Y-9062000D01*
X2027000Y-8992000D02*
X1957000Y-9062000D01*
D11*
X2325872Y-8918484D02*
X2344920Y-8918484D01*
X2344920Y-8918484D02*
X2363967Y-8928008D01*
X2363967Y-8928008D02*
X2373491Y-8937531D01*
X2373491Y-8937531D02*
X2383015Y-8956579D01*
X2383015Y-8956579D02*
X2392539Y-8994674D01*
X2392539Y-8994674D02*
X2392539Y-9042293D01*
X2392539Y-9042293D02*
X2383015Y-9080389D01*
X2383015Y-9080389D02*
X2373491Y-9099436D01*
X2373491Y-9099436D02*
X2363967Y-9108960D01*
X2363967Y-9108960D02*
X2344920Y-9118484D01*
X2344920Y-9118484D02*
X2325872Y-9118484D01*
X2325872Y-9118484D02*
X2306824Y-9108960D01*
X2306824Y-9108960D02*
X2297301Y-9099436D01*
X2297301Y-9099436D02*
X2287777Y-9080389D01*
X2287777Y-9080389D02*
X2278253Y-9042293D01*
X2278253Y-9042293D02*
X2278253Y-8994674D01*
X2278253Y-8994674D02*
X2287777Y-8956579D01*
X2287777Y-8956579D02*
X2297301Y-8937531D01*
X2297301Y-8937531D02*
X2306824Y-8928008D01*
X2306824Y-8928008D02*
X2325872Y-8918484D01*
X2478253Y-9099436D02*
X2487777Y-9108960D01*
X2487777Y-9108960D02*
X2478253Y-9118484D01*
X2478253Y-9118484D02*
X2468729Y-9108960D01*
X2468729Y-9108960D02*
X2478253Y-9099436D01*
X2478253Y-9099436D02*
X2478253Y-9118484D01*
X2554444Y-8918484D02*
X2687777Y-8918484D01*
X2687777Y-8918484D02*
X2602063Y-9118484D01*
X2802062Y-8918484D02*
X2821110Y-8918484D01*
X2821110Y-8918484D02*
X2840158Y-8928008D01*
X2840158Y-8928008D02*
X2849682Y-8937531D01*
X2849682Y-8937531D02*
X2859205Y-8956579D01*
X2859205Y-8956579D02*
X2868729Y-8994674D01*
X2868729Y-8994674D02*
X2868729Y-9042293D01*
X2868729Y-9042293D02*
X2859205Y-9080389D01*
X2859205Y-9080389D02*
X2849682Y-9099436D01*
X2849682Y-9099436D02*
X2840158Y-9108960D01*
X2840158Y-9108960D02*
X2821110Y-9118484D01*
X2821110Y-9118484D02*
X2802062Y-9118484D01*
X2802062Y-9118484D02*
X2783015Y-9108960D01*
X2783015Y-9108960D02*
X2773491Y-9099436D01*
X2773491Y-9099436D02*
X2763967Y-9080389D01*
X2763967Y-9080389D02*
X2754444Y-9042293D01*
X2754444Y-9042293D02*
X2754444Y-8994674D01*
X2754444Y-8994674D02*
X2763967Y-8956579D01*
X2763967Y-8956579D02*
X2773491Y-8937531D01*
X2773491Y-8937531D02*
X2783015Y-8928008D01*
X2783015Y-8928008D02*
X2802062Y-8918484D01*
X2992539Y-8918484D02*
X3011586Y-8918484D01*
X3011586Y-8918484D02*
X3030634Y-8928008D01*
X3030634Y-8928008D02*
X3040158Y-8937531D01*
X3040158Y-8937531D02*
X3049682Y-8956579D01*
X3049682Y-8956579D02*
X3059205Y-8994674D01*
X3059205Y-8994674D02*
X3059205Y-9042293D01*
X3059205Y-9042293D02*
X3049682Y-9080389D01*
X3049682Y-9080389D02*
X3040158Y-9099436D01*
X3040158Y-9099436D02*
X3030634Y-9108960D01*
X3030634Y-9108960D02*
X3011586Y-9118484D01*
X3011586Y-9118484D02*
X2992539Y-9118484D01*
X2992539Y-9118484D02*
X2973491Y-9108960D01*
X2973491Y-9108960D02*
X2963967Y-9099436D01*
X2963967Y-9099436D02*
X2954443Y-9080389D01*
X2954443Y-9080389D02*
X2944920Y-9042293D01*
X2944920Y-9042293D02*
X2944920Y-8994674D01*
X2944920Y-8994674D02*
X2954443Y-8956579D01*
X2954443Y-8956579D02*
X2963967Y-8937531D01*
X2963967Y-8937531D02*
X2973491Y-8928008D01*
X2973491Y-8928008D02*
X2992539Y-8918484D01*
X3144920Y-9118484D02*
X3144920Y-8985150D01*
X3144920Y-9004198D02*
X3154443Y-8994674D01*
X3154443Y-8994674D02*
X3173491Y-8985150D01*
X3173491Y-8985150D02*
X3202063Y-8985150D01*
X3202063Y-8985150D02*
X3221110Y-8994674D01*
X3221110Y-8994674D02*
X3230634Y-9013722D01*
X3230634Y-9013722D02*
X3230634Y-9118484D01*
X3230634Y-9013722D02*
X3240158Y-8994674D01*
X3240158Y-8994674D02*
X3259205Y-8985150D01*
X3259205Y-8985150D02*
X3287777Y-8985150D01*
X3287777Y-8985150D02*
X3306824Y-8994674D01*
X3306824Y-8994674D02*
X3316348Y-9013722D01*
X3316348Y-9013722D02*
X3316348Y-9118484D01*
X3411586Y-9118484D02*
X3411586Y-8985150D01*
X3411586Y-9004198D02*
X3421110Y-8994674D01*
X3421110Y-8994674D02*
X3440158Y-8985150D01*
X3440158Y-8985150D02*
X3468729Y-8985150D01*
X3468729Y-8985150D02*
X3487777Y-8994674D01*
X3487777Y-8994674D02*
X3497301Y-9013722D01*
X3497301Y-9013722D02*
X3497301Y-9118484D01*
X3497301Y-9013722D02*
X3506824Y-8994674D01*
X3506824Y-8994674D02*
X3525872Y-8985150D01*
X3525872Y-8985150D02*
X3554443Y-8985150D01*
X3554443Y-8985150D02*
X3573491Y-8994674D01*
X3573491Y-8994674D02*
X3583015Y-9013722D01*
X3583015Y-9013722D02*
X3583015Y-9118484D01*
X3973491Y-8908960D02*
X3802063Y-9166103D01*
X4230634Y-8918484D02*
X4249682Y-8918484D01*
X4249682Y-8918484D02*
X4268729Y-8928008D01*
X4268729Y-8928008D02*
X4278253Y-8937531D01*
X4278253Y-8937531D02*
X4287777Y-8956579D01*
X4287777Y-8956579D02*
X4297301Y-8994674D01*
X4297301Y-8994674D02*
X4297301Y-9042293D01*
X4297301Y-9042293D02*
X4287777Y-9080389D01*
X4287777Y-9080389D02*
X4278253Y-9099436D01*
X4278253Y-9099436D02*
X4268729Y-9108960D01*
X4268729Y-9108960D02*
X4249682Y-9118484D01*
X4249682Y-9118484D02*
X4230634Y-9118484D01*
X4230634Y-9118484D02*
X4211587Y-9108960D01*
X4211587Y-9108960D02*
X4202063Y-9099436D01*
X4202063Y-9099436D02*
X4192539Y-9080389D01*
X4192539Y-9080389D02*
X4183015Y-9042293D01*
X4183015Y-9042293D02*
X4183015Y-8994674D01*
X4183015Y-8994674D02*
X4192539Y-8956579D01*
X4192539Y-8956579D02*
X4202063Y-8937531D01*
X4202063Y-8937531D02*
X4211587Y-8928008D01*
X4211587Y-8928008D02*
X4230634Y-8918484D01*
X4383015Y-9099436D02*
X4392539Y-9108960D01*
X4392539Y-9108960D02*
X4383015Y-9118484D01*
X4383015Y-9118484D02*
X4373491Y-9108960D01*
X4373491Y-9108960D02*
X4383015Y-9099436D01*
X4383015Y-9099436D02*
X4383015Y-9118484D01*
X4516348Y-8918484D02*
X4535396Y-8918484D01*
X4535396Y-8918484D02*
X4554444Y-8928008D01*
X4554444Y-8928008D02*
X4563968Y-8937531D01*
X4563968Y-8937531D02*
X4573491Y-8956579D01*
X4573491Y-8956579D02*
X4583015Y-8994674D01*
X4583015Y-8994674D02*
X4583015Y-9042293D01*
X4583015Y-9042293D02*
X4573491Y-9080389D01*
X4573491Y-9080389D02*
X4563968Y-9099436D01*
X4563968Y-9099436D02*
X4554444Y-9108960D01*
X4554444Y-9108960D02*
X4535396Y-9118484D01*
X4535396Y-9118484D02*
X4516348Y-9118484D01*
X4516348Y-9118484D02*
X4497301Y-9108960D01*
X4497301Y-9108960D02*
X4487777Y-9099436D01*
X4487777Y-9099436D02*
X4478253Y-9080389D01*
X4478253Y-9080389D02*
X4468729Y-9042293D01*
X4468729Y-9042293D02*
X4468729Y-8994674D01*
X4468729Y-8994674D02*
X4478253Y-8956579D01*
X4478253Y-8956579D02*
X4487777Y-8937531D01*
X4487777Y-8937531D02*
X4497301Y-8928008D01*
X4497301Y-8928008D02*
X4516348Y-8918484D01*
X4659206Y-8937531D02*
X4668729Y-8928008D01*
X4668729Y-8928008D02*
X4687777Y-8918484D01*
X4687777Y-8918484D02*
X4735396Y-8918484D01*
X4735396Y-8918484D02*
X4754444Y-8928008D01*
X4754444Y-8928008D02*
X4763968Y-8937531D01*
X4763968Y-8937531D02*
X4773491Y-8956579D01*
X4773491Y-8956579D02*
X4773491Y-8975627D01*
X4773491Y-8975627D02*
X4763968Y-9004198D01*
X4763968Y-9004198D02*
X4649682Y-9118484D01*
X4649682Y-9118484D02*
X4773491Y-9118484D01*
X4840158Y-8918484D02*
X4973491Y-8918484D01*
X4973491Y-8918484D02*
X4887777Y-9118484D01*
X5135396Y-8918484D02*
X5097301Y-8918484D01*
X5097301Y-8918484D02*
X5078253Y-8928008D01*
X5078253Y-8928008D02*
X5068729Y-8937531D01*
X5068729Y-8937531D02*
X5049682Y-8966103D01*
X5049682Y-8966103D02*
X5040158Y-9004198D01*
X5040158Y-9004198D02*
X5040158Y-9080389D01*
X5040158Y-9080389D02*
X5049682Y-9099436D01*
X5049682Y-9099436D02*
X5059206Y-9108960D01*
X5059206Y-9108960D02*
X5078253Y-9118484D01*
X5078253Y-9118484D02*
X5116349Y-9118484D01*
X5116349Y-9118484D02*
X5135396Y-9108960D01*
X5135396Y-9108960D02*
X5144920Y-9099436D01*
X5144920Y-9099436D02*
X5154444Y-9080389D01*
X5154444Y-9080389D02*
X5154444Y-9032770D01*
X5154444Y-9032770D02*
X5144920Y-9013722D01*
X5144920Y-9013722D02*
X5135396Y-9004198D01*
X5135396Y-9004198D02*
X5116349Y-8994674D01*
X5116349Y-8994674D02*
X5078253Y-8994674D01*
X5078253Y-8994674D02*
X5059206Y-9004198D01*
X5059206Y-9004198D02*
X5049682Y-9013722D01*
X5049682Y-9013722D02*
X5040158Y-9032770D01*
X5230634Y-8918484D02*
X5230634Y-8956579D01*
X5306825Y-8918484D02*
X5306825Y-8956579D01*
X5602063Y-9194674D02*
X5592539Y-9185150D01*
X5592539Y-9185150D02*
X5573491Y-9156579D01*
X5573491Y-9156579D02*
X5563968Y-9137531D01*
X5563968Y-9137531D02*
X5554444Y-9108960D01*
X5554444Y-9108960D02*
X5544920Y-9061341D01*
X5544920Y-9061341D02*
X5544920Y-9023246D01*
X5544920Y-9023246D02*
X5554444Y-8975627D01*
X5554444Y-8975627D02*
X5563968Y-8947055D01*
X5563968Y-8947055D02*
X5573491Y-8928008D01*
X5573491Y-8928008D02*
X5592539Y-8899436D01*
X5592539Y-8899436D02*
X5602063Y-8889912D01*
X5783015Y-9118484D02*
X5668729Y-9118484D01*
X5725872Y-9118484D02*
X5725872Y-8918484D01*
X5725872Y-8918484D02*
X5706825Y-8947055D01*
X5706825Y-8947055D02*
X5687777Y-8966103D01*
X5687777Y-8966103D02*
X5668729Y-8975627D01*
X5906825Y-8918484D02*
X5925872Y-8918484D01*
X5925872Y-8918484D02*
X5944920Y-8928008D01*
X5944920Y-8928008D02*
X5954444Y-8937531D01*
X5954444Y-8937531D02*
X5963968Y-8956579D01*
X5963968Y-8956579D02*
X5973491Y-8994674D01*
X5973491Y-8994674D02*
X5973491Y-9042293D01*
X5973491Y-9042293D02*
X5963968Y-9080389D01*
X5963968Y-9080389D02*
X5954444Y-9099436D01*
X5954444Y-9099436D02*
X5944920Y-9108960D01*
X5944920Y-9108960D02*
X5925872Y-9118484D01*
X5925872Y-9118484D02*
X5906825Y-9118484D01*
X5906825Y-9118484D02*
X5887777Y-9108960D01*
X5887777Y-9108960D02*
X5878253Y-9099436D01*
X5878253Y-9099436D02*
X5868729Y-9080389D01*
X5868729Y-9080389D02*
X5859206Y-9042293D01*
X5859206Y-9042293D02*
X5859206Y-8994674D01*
X5859206Y-8994674D02*
X5868729Y-8956579D01*
X5868729Y-8956579D02*
X5878253Y-8937531D01*
X5878253Y-8937531D02*
X5887777Y-8928008D01*
X5887777Y-8928008D02*
X5906825Y-8918484D01*
X6211587Y-9118484D02*
X6211587Y-8918484D01*
X6297301Y-9118484D02*
X6297301Y-9013722D01*
X6297301Y-9013722D02*
X6287777Y-8994674D01*
X6287777Y-8994674D02*
X6268730Y-8985150D01*
X6268730Y-8985150D02*
X6240158Y-8985150D01*
X6240158Y-8985150D02*
X6221110Y-8994674D01*
X6221110Y-8994674D02*
X6211587Y-9004198D01*
X6421110Y-9118484D02*
X6402063Y-9108960D01*
X6402063Y-9108960D02*
X6392539Y-9099436D01*
X6392539Y-9099436D02*
X6383015Y-9080389D01*
X6383015Y-9080389D02*
X6383015Y-9023246D01*
X6383015Y-9023246D02*
X6392539Y-9004198D01*
X6392539Y-9004198D02*
X6402063Y-8994674D01*
X6402063Y-8994674D02*
X6421110Y-8985150D01*
X6421110Y-8985150D02*
X6449682Y-8985150D01*
X6449682Y-8985150D02*
X6468730Y-8994674D01*
X6468730Y-8994674D02*
X6478253Y-9004198D01*
X6478253Y-9004198D02*
X6487777Y-9023246D01*
X6487777Y-9023246D02*
X6487777Y-9080389D01*
X6487777Y-9080389D02*
X6478253Y-9099436D01*
X6478253Y-9099436D02*
X6468730Y-9108960D01*
X6468730Y-9108960D02*
X6449682Y-9118484D01*
X6449682Y-9118484D02*
X6421110Y-9118484D01*
X6602063Y-9118484D02*
X6583015Y-9108960D01*
X6583015Y-9108960D02*
X6573491Y-9089912D01*
X6573491Y-9089912D02*
X6573491Y-8918484D01*
X6754444Y-9108960D02*
X6735396Y-9118484D01*
X6735396Y-9118484D02*
X6697301Y-9118484D01*
X6697301Y-9118484D02*
X6678253Y-9108960D01*
X6678253Y-9108960D02*
X6668730Y-9089912D01*
X6668730Y-9089912D02*
X6668730Y-9013722D01*
X6668730Y-9013722D02*
X6678253Y-8994674D01*
X6678253Y-8994674D02*
X6697301Y-8985150D01*
X6697301Y-8985150D02*
X6735396Y-8985150D01*
X6735396Y-8985150D02*
X6754444Y-8994674D01*
X6754444Y-8994674D02*
X6763968Y-9013722D01*
X6763968Y-9013722D02*
X6763968Y-9032770D01*
X6763968Y-9032770D02*
X6668730Y-9051817D01*
X6840158Y-9108960D02*
X6859206Y-9118484D01*
X6859206Y-9118484D02*
X6897301Y-9118484D01*
X6897301Y-9118484D02*
X6916349Y-9108960D01*
X6916349Y-9108960D02*
X6925872Y-9089912D01*
X6925872Y-9089912D02*
X6925872Y-9080389D01*
X6925872Y-9080389D02*
X6916349Y-9061341D01*
X6916349Y-9061341D02*
X6897301Y-9051817D01*
X6897301Y-9051817D02*
X6868730Y-9051817D01*
X6868730Y-9051817D02*
X6849682Y-9042293D01*
X6849682Y-9042293D02*
X6840158Y-9023246D01*
X6840158Y-9023246D02*
X6840158Y-9013722D01*
X6840158Y-9013722D02*
X6849682Y-8994674D01*
X6849682Y-8994674D02*
X6868730Y-8985150D01*
X6868730Y-8985150D02*
X6897301Y-8985150D01*
X6897301Y-8985150D02*
X6916349Y-8994674D01*
X6992539Y-9194674D02*
X7002063Y-9185150D01*
X7002063Y-9185150D02*
X7021111Y-9156579D01*
X7021111Y-9156579D02*
X7030634Y-9137531D01*
X7030634Y-9137531D02*
X7040158Y-9108960D01*
X7040158Y-9108960D02*
X7049682Y-9061341D01*
X7049682Y-9061341D02*
X7049682Y-9023246D01*
X7049682Y-9023246D02*
X7040158Y-8975627D01*
X7040158Y-8975627D02*
X7030634Y-8947055D01*
X7030634Y-8947055D02*
X7021111Y-8928008D01*
X7021111Y-8928008D02*
X7002063Y-8899436D01*
X7002063Y-8899436D02*
X6992539Y-8889912D01*
D13*
X2027000Y-9291000D02*
G75*
G03*
X2027000Y-9291000I-40000J0D01*
G01*
D11*
X2325872Y-9182484D02*
X2344920Y-9182484D01*
X2344920Y-9182484D02*
X2363967Y-9192008D01*
X2363967Y-9192008D02*
X2373491Y-9201531D01*
X2373491Y-9201531D02*
X2383015Y-9220579D01*
X2383015Y-9220579D02*
X2392539Y-9258674D01*
X2392539Y-9258674D02*
X2392539Y-9306293D01*
X2392539Y-9306293D02*
X2383015Y-9344389D01*
X2383015Y-9344389D02*
X2373491Y-9363436D01*
X2373491Y-9363436D02*
X2363967Y-9372960D01*
X2363967Y-9372960D02*
X2344920Y-9382484D01*
X2344920Y-9382484D02*
X2325872Y-9382484D01*
X2325872Y-9382484D02*
X2306824Y-9372960D01*
X2306824Y-9372960D02*
X2297301Y-9363436D01*
X2297301Y-9363436D02*
X2287777Y-9344389D01*
X2287777Y-9344389D02*
X2278253Y-9306293D01*
X2278253Y-9306293D02*
X2278253Y-9258674D01*
X2278253Y-9258674D02*
X2287777Y-9220579D01*
X2287777Y-9220579D02*
X2297301Y-9201531D01*
X2297301Y-9201531D02*
X2306824Y-9192008D01*
X2306824Y-9192008D02*
X2325872Y-9182484D01*
X2478253Y-9363436D02*
X2487777Y-9372960D01*
X2487777Y-9372960D02*
X2478253Y-9382484D01*
X2478253Y-9382484D02*
X2468729Y-9372960D01*
X2468729Y-9372960D02*
X2478253Y-9363436D01*
X2478253Y-9363436D02*
X2478253Y-9382484D01*
X2602063Y-9268198D02*
X2583015Y-9258674D01*
X2583015Y-9258674D02*
X2573491Y-9249150D01*
X2573491Y-9249150D02*
X2563967Y-9230103D01*
X2563967Y-9230103D02*
X2563967Y-9220579D01*
X2563967Y-9220579D02*
X2573491Y-9201531D01*
X2573491Y-9201531D02*
X2583015Y-9192008D01*
X2583015Y-9192008D02*
X2602063Y-9182484D01*
X2602063Y-9182484D02*
X2640158Y-9182484D01*
X2640158Y-9182484D02*
X2659205Y-9192008D01*
X2659205Y-9192008D02*
X2668729Y-9201531D01*
X2668729Y-9201531D02*
X2678253Y-9220579D01*
X2678253Y-9220579D02*
X2678253Y-9230103D01*
X2678253Y-9230103D02*
X2668729Y-9249150D01*
X2668729Y-9249150D02*
X2659205Y-9258674D01*
X2659205Y-9258674D02*
X2640158Y-9268198D01*
X2640158Y-9268198D02*
X2602063Y-9268198D01*
X2602063Y-9268198D02*
X2583015Y-9277722D01*
X2583015Y-9277722D02*
X2573491Y-9287246D01*
X2573491Y-9287246D02*
X2563967Y-9306293D01*
X2563967Y-9306293D02*
X2563967Y-9344389D01*
X2563967Y-9344389D02*
X2573491Y-9363436D01*
X2573491Y-9363436D02*
X2583015Y-9372960D01*
X2583015Y-9372960D02*
X2602063Y-9382484D01*
X2602063Y-9382484D02*
X2640158Y-9382484D01*
X2640158Y-9382484D02*
X2659205Y-9372960D01*
X2659205Y-9372960D02*
X2668729Y-9363436D01*
X2668729Y-9363436D02*
X2678253Y-9344389D01*
X2678253Y-9344389D02*
X2678253Y-9306293D01*
X2678253Y-9306293D02*
X2668729Y-9287246D01*
X2668729Y-9287246D02*
X2659205Y-9277722D01*
X2659205Y-9277722D02*
X2640158Y-9268198D01*
X2802062Y-9182484D02*
X2821110Y-9182484D01*
X2821110Y-9182484D02*
X2840158Y-9192008D01*
X2840158Y-9192008D02*
X2849682Y-9201531D01*
X2849682Y-9201531D02*
X2859205Y-9220579D01*
X2859205Y-9220579D02*
X2868729Y-9258674D01*
X2868729Y-9258674D02*
X2868729Y-9306293D01*
X2868729Y-9306293D02*
X2859205Y-9344389D01*
X2859205Y-9344389D02*
X2849682Y-9363436D01*
X2849682Y-9363436D02*
X2840158Y-9372960D01*
X2840158Y-9372960D02*
X2821110Y-9382484D01*
X2821110Y-9382484D02*
X2802062Y-9382484D01*
X2802062Y-9382484D02*
X2783015Y-9372960D01*
X2783015Y-9372960D02*
X2773491Y-9363436D01*
X2773491Y-9363436D02*
X2763967Y-9344389D01*
X2763967Y-9344389D02*
X2754444Y-9306293D01*
X2754444Y-9306293D02*
X2754444Y-9258674D01*
X2754444Y-9258674D02*
X2763967Y-9220579D01*
X2763967Y-9220579D02*
X2773491Y-9201531D01*
X2773491Y-9201531D02*
X2783015Y-9192008D01*
X2783015Y-9192008D02*
X2802062Y-9182484D01*
X2992539Y-9182484D02*
X3011586Y-9182484D01*
X3011586Y-9182484D02*
X3030634Y-9192008D01*
X3030634Y-9192008D02*
X3040158Y-9201531D01*
X3040158Y-9201531D02*
X3049682Y-9220579D01*
X3049682Y-9220579D02*
X3059205Y-9258674D01*
X3059205Y-9258674D02*
X3059205Y-9306293D01*
X3059205Y-9306293D02*
X3049682Y-9344389D01*
X3049682Y-9344389D02*
X3040158Y-9363436D01*
X3040158Y-9363436D02*
X3030634Y-9372960D01*
X3030634Y-9372960D02*
X3011586Y-9382484D01*
X3011586Y-9382484D02*
X2992539Y-9382484D01*
X2992539Y-9382484D02*
X2973491Y-9372960D01*
X2973491Y-9372960D02*
X2963967Y-9363436D01*
X2963967Y-9363436D02*
X2954443Y-9344389D01*
X2954443Y-9344389D02*
X2944920Y-9306293D01*
X2944920Y-9306293D02*
X2944920Y-9258674D01*
X2944920Y-9258674D02*
X2954443Y-9220579D01*
X2954443Y-9220579D02*
X2963967Y-9201531D01*
X2963967Y-9201531D02*
X2973491Y-9192008D01*
X2973491Y-9192008D02*
X2992539Y-9182484D01*
X3144920Y-9382484D02*
X3144920Y-9249150D01*
X3144920Y-9268198D02*
X3154443Y-9258674D01*
X3154443Y-9258674D02*
X3173491Y-9249150D01*
X3173491Y-9249150D02*
X3202063Y-9249150D01*
X3202063Y-9249150D02*
X3221110Y-9258674D01*
X3221110Y-9258674D02*
X3230634Y-9277722D01*
X3230634Y-9277722D02*
X3230634Y-9382484D01*
X3230634Y-9277722D02*
X3240158Y-9258674D01*
X3240158Y-9258674D02*
X3259205Y-9249150D01*
X3259205Y-9249150D02*
X3287777Y-9249150D01*
X3287777Y-9249150D02*
X3306824Y-9258674D01*
X3306824Y-9258674D02*
X3316348Y-9277722D01*
X3316348Y-9277722D02*
X3316348Y-9382484D01*
X3411586Y-9382484D02*
X3411586Y-9249150D01*
X3411586Y-9268198D02*
X3421110Y-9258674D01*
X3421110Y-9258674D02*
X3440158Y-9249150D01*
X3440158Y-9249150D02*
X3468729Y-9249150D01*
X3468729Y-9249150D02*
X3487777Y-9258674D01*
X3487777Y-9258674D02*
X3497301Y-9277722D01*
X3497301Y-9277722D02*
X3497301Y-9382484D01*
X3497301Y-9277722D02*
X3506824Y-9258674D01*
X3506824Y-9258674D02*
X3525872Y-9249150D01*
X3525872Y-9249150D02*
X3554443Y-9249150D01*
X3554443Y-9249150D02*
X3573491Y-9258674D01*
X3573491Y-9258674D02*
X3583015Y-9277722D01*
X3583015Y-9277722D02*
X3583015Y-9382484D01*
X3973491Y-9172960D02*
X3802063Y-9430103D01*
X4230634Y-9182484D02*
X4249682Y-9182484D01*
X4249682Y-9182484D02*
X4268729Y-9192008D01*
X4268729Y-9192008D02*
X4278253Y-9201531D01*
X4278253Y-9201531D02*
X4287777Y-9220579D01*
X4287777Y-9220579D02*
X4297301Y-9258674D01*
X4297301Y-9258674D02*
X4297301Y-9306293D01*
X4297301Y-9306293D02*
X4287777Y-9344389D01*
X4287777Y-9344389D02*
X4278253Y-9363436D01*
X4278253Y-9363436D02*
X4268729Y-9372960D01*
X4268729Y-9372960D02*
X4249682Y-9382484D01*
X4249682Y-9382484D02*
X4230634Y-9382484D01*
X4230634Y-9382484D02*
X4211587Y-9372960D01*
X4211587Y-9372960D02*
X4202063Y-9363436D01*
X4202063Y-9363436D02*
X4192539Y-9344389D01*
X4192539Y-9344389D02*
X4183015Y-9306293D01*
X4183015Y-9306293D02*
X4183015Y-9258674D01*
X4183015Y-9258674D02*
X4192539Y-9220579D01*
X4192539Y-9220579D02*
X4202063Y-9201531D01*
X4202063Y-9201531D02*
X4211587Y-9192008D01*
X4211587Y-9192008D02*
X4230634Y-9182484D01*
X4383015Y-9363436D02*
X4392539Y-9372960D01*
X4392539Y-9372960D02*
X4383015Y-9382484D01*
X4383015Y-9382484D02*
X4373491Y-9372960D01*
X4373491Y-9372960D02*
X4383015Y-9363436D01*
X4383015Y-9363436D02*
X4383015Y-9382484D01*
X4516348Y-9182484D02*
X4535396Y-9182484D01*
X4535396Y-9182484D02*
X4554444Y-9192008D01*
X4554444Y-9192008D02*
X4563968Y-9201531D01*
X4563968Y-9201531D02*
X4573491Y-9220579D01*
X4573491Y-9220579D02*
X4583015Y-9258674D01*
X4583015Y-9258674D02*
X4583015Y-9306293D01*
X4583015Y-9306293D02*
X4573491Y-9344389D01*
X4573491Y-9344389D02*
X4563968Y-9363436D01*
X4563968Y-9363436D02*
X4554444Y-9372960D01*
X4554444Y-9372960D02*
X4535396Y-9382484D01*
X4535396Y-9382484D02*
X4516348Y-9382484D01*
X4516348Y-9382484D02*
X4497301Y-9372960D01*
X4497301Y-9372960D02*
X4487777Y-9363436D01*
X4487777Y-9363436D02*
X4478253Y-9344389D01*
X4478253Y-9344389D02*
X4468729Y-9306293D01*
X4468729Y-9306293D02*
X4468729Y-9258674D01*
X4468729Y-9258674D02*
X4478253Y-9220579D01*
X4478253Y-9220579D02*
X4487777Y-9201531D01*
X4487777Y-9201531D02*
X4497301Y-9192008D01*
X4497301Y-9192008D02*
X4516348Y-9182484D01*
X4649682Y-9182484D02*
X4773491Y-9182484D01*
X4773491Y-9182484D02*
X4706825Y-9258674D01*
X4706825Y-9258674D02*
X4735396Y-9258674D01*
X4735396Y-9258674D02*
X4754444Y-9268198D01*
X4754444Y-9268198D02*
X4763968Y-9277722D01*
X4763968Y-9277722D02*
X4773491Y-9296770D01*
X4773491Y-9296770D02*
X4773491Y-9344389D01*
X4773491Y-9344389D02*
X4763968Y-9363436D01*
X4763968Y-9363436D02*
X4754444Y-9372960D01*
X4754444Y-9372960D02*
X4735396Y-9382484D01*
X4735396Y-9382484D02*
X4678253Y-9382484D01*
X4678253Y-9382484D02*
X4659206Y-9372960D01*
X4659206Y-9372960D02*
X4649682Y-9363436D01*
X4963968Y-9382484D02*
X4849682Y-9382484D01*
X4906825Y-9382484D02*
X4906825Y-9182484D01*
X4906825Y-9182484D02*
X4887777Y-9211055D01*
X4887777Y-9211055D02*
X4868729Y-9230103D01*
X4868729Y-9230103D02*
X4849682Y-9239627D01*
X5144920Y-9182484D02*
X5049682Y-9182484D01*
X5049682Y-9182484D02*
X5040158Y-9277722D01*
X5040158Y-9277722D02*
X5049682Y-9268198D01*
X5049682Y-9268198D02*
X5068729Y-9258674D01*
X5068729Y-9258674D02*
X5116349Y-9258674D01*
X5116349Y-9258674D02*
X5135396Y-9268198D01*
X5135396Y-9268198D02*
X5144920Y-9277722D01*
X5144920Y-9277722D02*
X5154444Y-9296770D01*
X5154444Y-9296770D02*
X5154444Y-9344389D01*
X5154444Y-9344389D02*
X5144920Y-9363436D01*
X5144920Y-9363436D02*
X5135396Y-9372960D01*
X5135396Y-9372960D02*
X5116349Y-9382484D01*
X5116349Y-9382484D02*
X5068729Y-9382484D01*
X5068729Y-9382484D02*
X5049682Y-9372960D01*
X5049682Y-9372960D02*
X5040158Y-9363436D01*
X5230634Y-9182484D02*
X5230634Y-9220579D01*
X5306825Y-9182484D02*
X5306825Y-9220579D01*
X5602063Y-9458674D02*
X5592539Y-9449150D01*
X5592539Y-9449150D02*
X5573491Y-9420579D01*
X5573491Y-9420579D02*
X5563968Y-9401531D01*
X5563968Y-9401531D02*
X5554444Y-9372960D01*
X5554444Y-9372960D02*
X5544920Y-9325341D01*
X5544920Y-9325341D02*
X5544920Y-9287246D01*
X5544920Y-9287246D02*
X5554444Y-9239627D01*
X5554444Y-9239627D02*
X5563968Y-9211055D01*
X5563968Y-9211055D02*
X5573491Y-9192008D01*
X5573491Y-9192008D02*
X5592539Y-9163436D01*
X5592539Y-9163436D02*
X5602063Y-9153912D01*
X5783015Y-9382484D02*
X5668729Y-9382484D01*
X5725872Y-9382484D02*
X5725872Y-9182484D01*
X5725872Y-9182484D02*
X5706825Y-9211055D01*
X5706825Y-9211055D02*
X5687777Y-9230103D01*
X5687777Y-9230103D02*
X5668729Y-9239627D01*
X5954444Y-9249150D02*
X5954444Y-9382484D01*
X5906825Y-9172960D02*
X5859206Y-9315817D01*
X5859206Y-9315817D02*
X5983015Y-9315817D01*
X6211587Y-9382484D02*
X6211587Y-9182484D01*
X6297301Y-9382484D02*
X6297301Y-9277722D01*
X6297301Y-9277722D02*
X6287777Y-9258674D01*
X6287777Y-9258674D02*
X6268730Y-9249150D01*
X6268730Y-9249150D02*
X6240158Y-9249150D01*
X6240158Y-9249150D02*
X6221110Y-9258674D01*
X6221110Y-9258674D02*
X6211587Y-9268198D01*
X6421110Y-9382484D02*
X6402063Y-9372960D01*
X6402063Y-9372960D02*
X6392539Y-9363436D01*
X6392539Y-9363436D02*
X6383015Y-9344389D01*
X6383015Y-9344389D02*
X6383015Y-9287246D01*
X6383015Y-9287246D02*
X6392539Y-9268198D01*
X6392539Y-9268198D02*
X6402063Y-9258674D01*
X6402063Y-9258674D02*
X6421110Y-9249150D01*
X6421110Y-9249150D02*
X6449682Y-9249150D01*
X6449682Y-9249150D02*
X6468730Y-9258674D01*
X6468730Y-9258674D02*
X6478253Y-9268198D01*
X6478253Y-9268198D02*
X6487777Y-9287246D01*
X6487777Y-9287246D02*
X6487777Y-9344389D01*
X6487777Y-9344389D02*
X6478253Y-9363436D01*
X6478253Y-9363436D02*
X6468730Y-9372960D01*
X6468730Y-9372960D02*
X6449682Y-9382484D01*
X6449682Y-9382484D02*
X6421110Y-9382484D01*
X6602063Y-9382484D02*
X6583015Y-9372960D01*
X6583015Y-9372960D02*
X6573491Y-9353912D01*
X6573491Y-9353912D02*
X6573491Y-9182484D01*
X6754444Y-9372960D02*
X6735396Y-9382484D01*
X6735396Y-9382484D02*
X6697301Y-9382484D01*
X6697301Y-9382484D02*
X6678253Y-9372960D01*
X6678253Y-9372960D02*
X6668730Y-9353912D01*
X6668730Y-9353912D02*
X6668730Y-9277722D01*
X6668730Y-9277722D02*
X6678253Y-9258674D01*
X6678253Y-9258674D02*
X6697301Y-9249150D01*
X6697301Y-9249150D02*
X6735396Y-9249150D01*
X6735396Y-9249150D02*
X6754444Y-9258674D01*
X6754444Y-9258674D02*
X6763968Y-9277722D01*
X6763968Y-9277722D02*
X6763968Y-9296770D01*
X6763968Y-9296770D02*
X6668730Y-9315817D01*
X6840158Y-9372960D02*
X6859206Y-9382484D01*
X6859206Y-9382484D02*
X6897301Y-9382484D01*
X6897301Y-9382484D02*
X6916349Y-9372960D01*
X6916349Y-9372960D02*
X6925872Y-9353912D01*
X6925872Y-9353912D02*
X6925872Y-9344389D01*
X6925872Y-9344389D02*
X6916349Y-9325341D01*
X6916349Y-9325341D02*
X6897301Y-9315817D01*
X6897301Y-9315817D02*
X6868730Y-9315817D01*
X6868730Y-9315817D02*
X6849682Y-9306293D01*
X6849682Y-9306293D02*
X6840158Y-9287246D01*
X6840158Y-9287246D02*
X6840158Y-9277722D01*
X6840158Y-9277722D02*
X6849682Y-9258674D01*
X6849682Y-9258674D02*
X6868730Y-9249150D01*
X6868730Y-9249150D02*
X6897301Y-9249150D01*
X6897301Y-9249150D02*
X6916349Y-9258674D01*
X6992539Y-9458674D02*
X7002063Y-9449150D01*
X7002063Y-9449150D02*
X7021111Y-9420579D01*
X7021111Y-9420579D02*
X7030634Y-9401531D01*
X7030634Y-9401531D02*
X7040158Y-9372960D01*
X7040158Y-9372960D02*
X7049682Y-9325341D01*
X7049682Y-9325341D02*
X7049682Y-9287246D01*
X7049682Y-9287246D02*
X7040158Y-9239627D01*
X7040158Y-9239627D02*
X7030634Y-9211055D01*
X7030634Y-9211055D02*
X7021111Y-9192008D01*
X7021111Y-9192008D02*
X7002063Y-9163436D01*
X7002063Y-9163436D02*
X6992539Y-9153912D01*
D14*
X1982000Y-9510000D02*
X1982000Y-9600000D01*
X1937000Y-9555000D02*
X2027000Y-9555000D01*
D11*
X2325872Y-9446484D02*
X2344920Y-9446484D01*
X2344920Y-9446484D02*
X2363967Y-9456008D01*
X2363967Y-9456008D02*
X2373491Y-9465531D01*
X2373491Y-9465531D02*
X2383015Y-9484579D01*
X2383015Y-9484579D02*
X2392539Y-9522674D01*
X2392539Y-9522674D02*
X2392539Y-9570293D01*
X2392539Y-9570293D02*
X2383015Y-9608389D01*
X2383015Y-9608389D02*
X2373491Y-9627436D01*
X2373491Y-9627436D02*
X2363967Y-9636960D01*
X2363967Y-9636960D02*
X2344920Y-9646484D01*
X2344920Y-9646484D02*
X2325872Y-9646484D01*
X2325872Y-9646484D02*
X2306824Y-9636960D01*
X2306824Y-9636960D02*
X2297301Y-9627436D01*
X2297301Y-9627436D02*
X2287777Y-9608389D01*
X2287777Y-9608389D02*
X2278253Y-9570293D01*
X2278253Y-9570293D02*
X2278253Y-9522674D01*
X2278253Y-9522674D02*
X2287777Y-9484579D01*
X2287777Y-9484579D02*
X2297301Y-9465531D01*
X2297301Y-9465531D02*
X2306824Y-9456008D01*
X2306824Y-9456008D02*
X2325872Y-9446484D01*
X2478253Y-9627436D02*
X2487777Y-9636960D01*
X2487777Y-9636960D02*
X2478253Y-9646484D01*
X2478253Y-9646484D02*
X2468729Y-9636960D01*
X2468729Y-9636960D02*
X2478253Y-9627436D01*
X2478253Y-9627436D02*
X2478253Y-9646484D01*
X2583015Y-9646484D02*
X2621110Y-9646484D01*
X2621110Y-9646484D02*
X2640158Y-9636960D01*
X2640158Y-9636960D02*
X2649682Y-9627436D01*
X2649682Y-9627436D02*
X2668729Y-9598865D01*
X2668729Y-9598865D02*
X2678253Y-9560770D01*
X2678253Y-9560770D02*
X2678253Y-9484579D01*
X2678253Y-9484579D02*
X2668729Y-9465531D01*
X2668729Y-9465531D02*
X2659205Y-9456008D01*
X2659205Y-9456008D02*
X2640158Y-9446484D01*
X2640158Y-9446484D02*
X2602063Y-9446484D01*
X2602063Y-9446484D02*
X2583015Y-9456008D01*
X2583015Y-9456008D02*
X2573491Y-9465531D01*
X2573491Y-9465531D02*
X2563967Y-9484579D01*
X2563967Y-9484579D02*
X2563967Y-9532198D01*
X2563967Y-9532198D02*
X2573491Y-9551246D01*
X2573491Y-9551246D02*
X2583015Y-9560770D01*
X2583015Y-9560770D02*
X2602063Y-9570293D01*
X2602063Y-9570293D02*
X2640158Y-9570293D01*
X2640158Y-9570293D02*
X2659205Y-9560770D01*
X2659205Y-9560770D02*
X2668729Y-9551246D01*
X2668729Y-9551246D02*
X2678253Y-9532198D01*
X2802062Y-9446484D02*
X2821110Y-9446484D01*
X2821110Y-9446484D02*
X2840158Y-9456008D01*
X2840158Y-9456008D02*
X2849682Y-9465531D01*
X2849682Y-9465531D02*
X2859205Y-9484579D01*
X2859205Y-9484579D02*
X2868729Y-9522674D01*
X2868729Y-9522674D02*
X2868729Y-9570293D01*
X2868729Y-9570293D02*
X2859205Y-9608389D01*
X2859205Y-9608389D02*
X2849682Y-9627436D01*
X2849682Y-9627436D02*
X2840158Y-9636960D01*
X2840158Y-9636960D02*
X2821110Y-9646484D01*
X2821110Y-9646484D02*
X2802062Y-9646484D01*
X2802062Y-9646484D02*
X2783015Y-9636960D01*
X2783015Y-9636960D02*
X2773491Y-9627436D01*
X2773491Y-9627436D02*
X2763967Y-9608389D01*
X2763967Y-9608389D02*
X2754444Y-9570293D01*
X2754444Y-9570293D02*
X2754444Y-9522674D01*
X2754444Y-9522674D02*
X2763967Y-9484579D01*
X2763967Y-9484579D02*
X2773491Y-9465531D01*
X2773491Y-9465531D02*
X2783015Y-9456008D01*
X2783015Y-9456008D02*
X2802062Y-9446484D01*
X2992539Y-9446484D02*
X3011586Y-9446484D01*
X3011586Y-9446484D02*
X3030634Y-9456008D01*
X3030634Y-9456008D02*
X3040158Y-9465531D01*
X3040158Y-9465531D02*
X3049682Y-9484579D01*
X3049682Y-9484579D02*
X3059205Y-9522674D01*
X3059205Y-9522674D02*
X3059205Y-9570293D01*
X3059205Y-9570293D02*
X3049682Y-9608389D01*
X3049682Y-9608389D02*
X3040158Y-9627436D01*
X3040158Y-9627436D02*
X3030634Y-9636960D01*
X3030634Y-9636960D02*
X3011586Y-9646484D01*
X3011586Y-9646484D02*
X2992539Y-9646484D01*
X2992539Y-9646484D02*
X2973491Y-9636960D01*
X2973491Y-9636960D02*
X2963967Y-9627436D01*
X2963967Y-9627436D02*
X2954443Y-9608389D01*
X2954443Y-9608389D02*
X2944920Y-9570293D01*
X2944920Y-9570293D02*
X2944920Y-9522674D01*
X2944920Y-9522674D02*
X2954443Y-9484579D01*
X2954443Y-9484579D02*
X2963967Y-9465531D01*
X2963967Y-9465531D02*
X2973491Y-9456008D01*
X2973491Y-9456008D02*
X2992539Y-9446484D01*
X3144920Y-9646484D02*
X3144920Y-9513150D01*
X3144920Y-9532198D02*
X3154443Y-9522674D01*
X3154443Y-9522674D02*
X3173491Y-9513150D01*
X3173491Y-9513150D02*
X3202063Y-9513150D01*
X3202063Y-9513150D02*
X3221110Y-9522674D01*
X3221110Y-9522674D02*
X3230634Y-9541722D01*
X3230634Y-9541722D02*
X3230634Y-9646484D01*
X3230634Y-9541722D02*
X3240158Y-9522674D01*
X3240158Y-9522674D02*
X3259205Y-9513150D01*
X3259205Y-9513150D02*
X3287777Y-9513150D01*
X3287777Y-9513150D02*
X3306824Y-9522674D01*
X3306824Y-9522674D02*
X3316348Y-9541722D01*
X3316348Y-9541722D02*
X3316348Y-9646484D01*
X3411586Y-9646484D02*
X3411586Y-9513150D01*
X3411586Y-9532198D02*
X3421110Y-9522674D01*
X3421110Y-9522674D02*
X3440158Y-9513150D01*
X3440158Y-9513150D02*
X3468729Y-9513150D01*
X3468729Y-9513150D02*
X3487777Y-9522674D01*
X3487777Y-9522674D02*
X3497301Y-9541722D01*
X3497301Y-9541722D02*
X3497301Y-9646484D01*
X3497301Y-9541722D02*
X3506824Y-9522674D01*
X3506824Y-9522674D02*
X3525872Y-9513150D01*
X3525872Y-9513150D02*
X3554443Y-9513150D01*
X3554443Y-9513150D02*
X3573491Y-9522674D01*
X3573491Y-9522674D02*
X3583015Y-9541722D01*
X3583015Y-9541722D02*
X3583015Y-9646484D01*
X3973491Y-9436960D02*
X3802063Y-9694103D01*
X4230634Y-9446484D02*
X4249682Y-9446484D01*
X4249682Y-9446484D02*
X4268729Y-9456008D01*
X4268729Y-9456008D02*
X4278253Y-9465531D01*
X4278253Y-9465531D02*
X4287777Y-9484579D01*
X4287777Y-9484579D02*
X4297301Y-9522674D01*
X4297301Y-9522674D02*
X4297301Y-9570293D01*
X4297301Y-9570293D02*
X4287777Y-9608389D01*
X4287777Y-9608389D02*
X4278253Y-9627436D01*
X4278253Y-9627436D02*
X4268729Y-9636960D01*
X4268729Y-9636960D02*
X4249682Y-9646484D01*
X4249682Y-9646484D02*
X4230634Y-9646484D01*
X4230634Y-9646484D02*
X4211587Y-9636960D01*
X4211587Y-9636960D02*
X4202063Y-9627436D01*
X4202063Y-9627436D02*
X4192539Y-9608389D01*
X4192539Y-9608389D02*
X4183015Y-9570293D01*
X4183015Y-9570293D02*
X4183015Y-9522674D01*
X4183015Y-9522674D02*
X4192539Y-9484579D01*
X4192539Y-9484579D02*
X4202063Y-9465531D01*
X4202063Y-9465531D02*
X4211587Y-9456008D01*
X4211587Y-9456008D02*
X4230634Y-9446484D01*
X4383015Y-9627436D02*
X4392539Y-9636960D01*
X4392539Y-9636960D02*
X4383015Y-9646484D01*
X4383015Y-9646484D02*
X4373491Y-9636960D01*
X4373491Y-9636960D02*
X4383015Y-9627436D01*
X4383015Y-9627436D02*
X4383015Y-9646484D01*
X4516348Y-9446484D02*
X4535396Y-9446484D01*
X4535396Y-9446484D02*
X4554444Y-9456008D01*
X4554444Y-9456008D02*
X4563968Y-9465531D01*
X4563968Y-9465531D02*
X4573491Y-9484579D01*
X4573491Y-9484579D02*
X4583015Y-9522674D01*
X4583015Y-9522674D02*
X4583015Y-9570293D01*
X4583015Y-9570293D02*
X4573491Y-9608389D01*
X4573491Y-9608389D02*
X4563968Y-9627436D01*
X4563968Y-9627436D02*
X4554444Y-9636960D01*
X4554444Y-9636960D02*
X4535396Y-9646484D01*
X4535396Y-9646484D02*
X4516348Y-9646484D01*
X4516348Y-9646484D02*
X4497301Y-9636960D01*
X4497301Y-9636960D02*
X4487777Y-9627436D01*
X4487777Y-9627436D02*
X4478253Y-9608389D01*
X4478253Y-9608389D02*
X4468729Y-9570293D01*
X4468729Y-9570293D02*
X4468729Y-9522674D01*
X4468729Y-9522674D02*
X4478253Y-9484579D01*
X4478253Y-9484579D02*
X4487777Y-9465531D01*
X4487777Y-9465531D02*
X4497301Y-9456008D01*
X4497301Y-9456008D02*
X4516348Y-9446484D01*
X4649682Y-9446484D02*
X4773491Y-9446484D01*
X4773491Y-9446484D02*
X4706825Y-9522674D01*
X4706825Y-9522674D02*
X4735396Y-9522674D01*
X4735396Y-9522674D02*
X4754444Y-9532198D01*
X4754444Y-9532198D02*
X4763968Y-9541722D01*
X4763968Y-9541722D02*
X4773491Y-9560770D01*
X4773491Y-9560770D02*
X4773491Y-9608389D01*
X4773491Y-9608389D02*
X4763968Y-9627436D01*
X4763968Y-9627436D02*
X4754444Y-9636960D01*
X4754444Y-9636960D02*
X4735396Y-9646484D01*
X4735396Y-9646484D02*
X4678253Y-9646484D01*
X4678253Y-9646484D02*
X4659206Y-9636960D01*
X4659206Y-9636960D02*
X4649682Y-9627436D01*
X4954444Y-9446484D02*
X4859206Y-9446484D01*
X4859206Y-9446484D02*
X4849682Y-9541722D01*
X4849682Y-9541722D02*
X4859206Y-9532198D01*
X4859206Y-9532198D02*
X4878253Y-9522674D01*
X4878253Y-9522674D02*
X4925872Y-9522674D01*
X4925872Y-9522674D02*
X4944920Y-9532198D01*
X4944920Y-9532198D02*
X4954444Y-9541722D01*
X4954444Y-9541722D02*
X4963968Y-9560770D01*
X4963968Y-9560770D02*
X4963968Y-9608389D01*
X4963968Y-9608389D02*
X4954444Y-9627436D01*
X4954444Y-9627436D02*
X4944920Y-9636960D01*
X4944920Y-9636960D02*
X4925872Y-9646484D01*
X4925872Y-9646484D02*
X4878253Y-9646484D01*
X4878253Y-9646484D02*
X4859206Y-9636960D01*
X4859206Y-9636960D02*
X4849682Y-9627436D01*
X5135396Y-9513150D02*
X5135396Y-9646484D01*
X5087777Y-9436960D02*
X5040158Y-9579817D01*
X5040158Y-9579817D02*
X5163968Y-9579817D01*
X5230634Y-9446484D02*
X5230634Y-9484579D01*
X5306825Y-9446484D02*
X5306825Y-9484579D01*
X5602063Y-9722674D02*
X5592539Y-9713150D01*
X5592539Y-9713150D02*
X5573491Y-9684579D01*
X5573491Y-9684579D02*
X5563968Y-9665531D01*
X5563968Y-9665531D02*
X5554444Y-9636960D01*
X5554444Y-9636960D02*
X5544920Y-9589341D01*
X5544920Y-9589341D02*
X5544920Y-9551246D01*
X5544920Y-9551246D02*
X5554444Y-9503627D01*
X5554444Y-9503627D02*
X5563968Y-9475055D01*
X5563968Y-9475055D02*
X5573491Y-9456008D01*
X5573491Y-9456008D02*
X5592539Y-9427436D01*
X5592539Y-9427436D02*
X5602063Y-9417912D01*
X5783015Y-9646484D02*
X5668729Y-9646484D01*
X5725872Y-9646484D02*
X5725872Y-9446484D01*
X5725872Y-9446484D02*
X5706825Y-9475055D01*
X5706825Y-9475055D02*
X5687777Y-9494103D01*
X5687777Y-9494103D02*
X5668729Y-9503627D01*
X5906825Y-9446484D02*
X5925872Y-9446484D01*
X5925872Y-9446484D02*
X5944920Y-9456008D01*
X5944920Y-9456008D02*
X5954444Y-9465531D01*
X5954444Y-9465531D02*
X5963968Y-9484579D01*
X5963968Y-9484579D02*
X5973491Y-9522674D01*
X5973491Y-9522674D02*
X5973491Y-9570293D01*
X5973491Y-9570293D02*
X5963968Y-9608389D01*
X5963968Y-9608389D02*
X5954444Y-9627436D01*
X5954444Y-9627436D02*
X5944920Y-9636960D01*
X5944920Y-9636960D02*
X5925872Y-9646484D01*
X5925872Y-9646484D02*
X5906825Y-9646484D01*
X5906825Y-9646484D02*
X5887777Y-9636960D01*
X5887777Y-9636960D02*
X5878253Y-9627436D01*
X5878253Y-9627436D02*
X5868729Y-9608389D01*
X5868729Y-9608389D02*
X5859206Y-9570293D01*
X5859206Y-9570293D02*
X5859206Y-9522674D01*
X5859206Y-9522674D02*
X5868729Y-9484579D01*
X5868729Y-9484579D02*
X5878253Y-9465531D01*
X5878253Y-9465531D02*
X5887777Y-9456008D01*
X5887777Y-9456008D02*
X5906825Y-9446484D01*
X6211587Y-9646484D02*
X6211587Y-9446484D01*
X6297301Y-9646484D02*
X6297301Y-9541722D01*
X6297301Y-9541722D02*
X6287777Y-9522674D01*
X6287777Y-9522674D02*
X6268730Y-9513150D01*
X6268730Y-9513150D02*
X6240158Y-9513150D01*
X6240158Y-9513150D02*
X6221110Y-9522674D01*
X6221110Y-9522674D02*
X6211587Y-9532198D01*
X6421110Y-9646484D02*
X6402063Y-9636960D01*
X6402063Y-9636960D02*
X6392539Y-9627436D01*
X6392539Y-9627436D02*
X6383015Y-9608389D01*
X6383015Y-9608389D02*
X6383015Y-9551246D01*
X6383015Y-9551246D02*
X6392539Y-9532198D01*
X6392539Y-9532198D02*
X6402063Y-9522674D01*
X6402063Y-9522674D02*
X6421110Y-9513150D01*
X6421110Y-9513150D02*
X6449682Y-9513150D01*
X6449682Y-9513150D02*
X6468730Y-9522674D01*
X6468730Y-9522674D02*
X6478253Y-9532198D01*
X6478253Y-9532198D02*
X6487777Y-9551246D01*
X6487777Y-9551246D02*
X6487777Y-9608389D01*
X6487777Y-9608389D02*
X6478253Y-9627436D01*
X6478253Y-9627436D02*
X6468730Y-9636960D01*
X6468730Y-9636960D02*
X6449682Y-9646484D01*
X6449682Y-9646484D02*
X6421110Y-9646484D01*
X6602063Y-9646484D02*
X6583015Y-9636960D01*
X6583015Y-9636960D02*
X6573491Y-9617912D01*
X6573491Y-9617912D02*
X6573491Y-9446484D01*
X6754444Y-9636960D02*
X6735396Y-9646484D01*
X6735396Y-9646484D02*
X6697301Y-9646484D01*
X6697301Y-9646484D02*
X6678253Y-9636960D01*
X6678253Y-9636960D02*
X6668730Y-9617912D01*
X6668730Y-9617912D02*
X6668730Y-9541722D01*
X6668730Y-9541722D02*
X6678253Y-9522674D01*
X6678253Y-9522674D02*
X6697301Y-9513150D01*
X6697301Y-9513150D02*
X6735396Y-9513150D01*
X6735396Y-9513150D02*
X6754444Y-9522674D01*
X6754444Y-9522674D02*
X6763968Y-9541722D01*
X6763968Y-9541722D02*
X6763968Y-9560770D01*
X6763968Y-9560770D02*
X6668730Y-9579817D01*
X6840158Y-9636960D02*
X6859206Y-9646484D01*
X6859206Y-9646484D02*
X6897301Y-9646484D01*
X6897301Y-9646484D02*
X6916349Y-9636960D01*
X6916349Y-9636960D02*
X6925872Y-9617912D01*
X6925872Y-9617912D02*
X6925872Y-9608389D01*
X6925872Y-9608389D02*
X6916349Y-9589341D01*
X6916349Y-9589341D02*
X6897301Y-9579817D01*
X6897301Y-9579817D02*
X6868730Y-9579817D01*
X6868730Y-9579817D02*
X6849682Y-9570293D01*
X6849682Y-9570293D02*
X6840158Y-9551246D01*
X6840158Y-9551246D02*
X6840158Y-9541722D01*
X6840158Y-9541722D02*
X6849682Y-9522674D01*
X6849682Y-9522674D02*
X6868730Y-9513150D01*
X6868730Y-9513150D02*
X6897301Y-9513150D01*
X6897301Y-9513150D02*
X6916349Y-9522674D01*
X6992539Y-9722674D02*
X7002063Y-9713150D01*
X7002063Y-9713150D02*
X7021111Y-9684579D01*
X7021111Y-9684579D02*
X7030634Y-9665531D01*
X7030634Y-9665531D02*
X7040158Y-9636960D01*
X7040158Y-9636960D02*
X7049682Y-9589341D01*
X7049682Y-9589341D02*
X7049682Y-9551246D01*
X7049682Y-9551246D02*
X7040158Y-9503627D01*
X7040158Y-9503627D02*
X7030634Y-9475055D01*
X7030634Y-9475055D02*
X7021111Y-9456008D01*
X7021111Y-9456008D02*
X7002063Y-9427436D01*
X7002063Y-9427436D02*
X6992539Y-9417912D01*
D15*
X2010891Y-9857891D02*
X2010891Y-9780109D01*
X1933109Y-9780109D01*
X1933109Y-9857891D01*
X2010891Y-9857891D01*
D11*
X2392539Y-9910484D02*
X2278253Y-9910484D01*
X2335396Y-9910484D02*
X2335396Y-9710484D01*
X2335396Y-9710484D02*
X2316348Y-9739055D01*
X2316348Y-9739055D02*
X2297301Y-9758103D01*
X2297301Y-9758103D02*
X2278253Y-9767627D01*
X2478253Y-9891436D02*
X2487777Y-9900960D01*
X2487777Y-9900960D02*
X2478253Y-9910484D01*
X2478253Y-9910484D02*
X2468729Y-9900960D01*
X2468729Y-9900960D02*
X2478253Y-9891436D01*
X2478253Y-9891436D02*
X2478253Y-9910484D01*
X2678253Y-9910484D02*
X2563967Y-9910484D01*
X2621110Y-9910484D02*
X2621110Y-9710484D01*
X2621110Y-9710484D02*
X2602063Y-9739055D01*
X2602063Y-9739055D02*
X2583015Y-9758103D01*
X2583015Y-9758103D02*
X2563967Y-9767627D01*
X2802062Y-9710484D02*
X2821110Y-9710484D01*
X2821110Y-9710484D02*
X2840158Y-9720008D01*
X2840158Y-9720008D02*
X2849682Y-9729531D01*
X2849682Y-9729531D02*
X2859205Y-9748579D01*
X2859205Y-9748579D02*
X2868729Y-9786674D01*
X2868729Y-9786674D02*
X2868729Y-9834293D01*
X2868729Y-9834293D02*
X2859205Y-9872389D01*
X2859205Y-9872389D02*
X2849682Y-9891436D01*
X2849682Y-9891436D02*
X2840158Y-9900960D01*
X2840158Y-9900960D02*
X2821110Y-9910484D01*
X2821110Y-9910484D02*
X2802062Y-9910484D01*
X2802062Y-9910484D02*
X2783015Y-9900960D01*
X2783015Y-9900960D02*
X2773491Y-9891436D01*
X2773491Y-9891436D02*
X2763967Y-9872389D01*
X2763967Y-9872389D02*
X2754444Y-9834293D01*
X2754444Y-9834293D02*
X2754444Y-9786674D01*
X2754444Y-9786674D02*
X2763967Y-9748579D01*
X2763967Y-9748579D02*
X2773491Y-9729531D01*
X2773491Y-9729531D02*
X2783015Y-9720008D01*
X2783015Y-9720008D02*
X2802062Y-9710484D01*
X2992539Y-9710484D02*
X3011586Y-9710484D01*
X3011586Y-9710484D02*
X3030634Y-9720008D01*
X3030634Y-9720008D02*
X3040158Y-9729531D01*
X3040158Y-9729531D02*
X3049682Y-9748579D01*
X3049682Y-9748579D02*
X3059205Y-9786674D01*
X3059205Y-9786674D02*
X3059205Y-9834293D01*
X3059205Y-9834293D02*
X3049682Y-9872389D01*
X3049682Y-9872389D02*
X3040158Y-9891436D01*
X3040158Y-9891436D02*
X3030634Y-9900960D01*
X3030634Y-9900960D02*
X3011586Y-9910484D01*
X3011586Y-9910484D02*
X2992539Y-9910484D01*
X2992539Y-9910484D02*
X2973491Y-9900960D01*
X2973491Y-9900960D02*
X2963967Y-9891436D01*
X2963967Y-9891436D02*
X2954443Y-9872389D01*
X2954443Y-9872389D02*
X2944920Y-9834293D01*
X2944920Y-9834293D02*
X2944920Y-9786674D01*
X2944920Y-9786674D02*
X2954443Y-9748579D01*
X2954443Y-9748579D02*
X2963967Y-9729531D01*
X2963967Y-9729531D02*
X2973491Y-9720008D01*
X2973491Y-9720008D02*
X2992539Y-9710484D01*
X3144920Y-9910484D02*
X3144920Y-9777150D01*
X3144920Y-9796198D02*
X3154443Y-9786674D01*
X3154443Y-9786674D02*
X3173491Y-9777150D01*
X3173491Y-9777150D02*
X3202063Y-9777150D01*
X3202063Y-9777150D02*
X3221110Y-9786674D01*
X3221110Y-9786674D02*
X3230634Y-9805722D01*
X3230634Y-9805722D02*
X3230634Y-9910484D01*
X3230634Y-9805722D02*
X3240158Y-9786674D01*
X3240158Y-9786674D02*
X3259205Y-9777150D01*
X3259205Y-9777150D02*
X3287777Y-9777150D01*
X3287777Y-9777150D02*
X3306824Y-9786674D01*
X3306824Y-9786674D02*
X3316348Y-9805722D01*
X3316348Y-9805722D02*
X3316348Y-9910484D01*
X3411586Y-9910484D02*
X3411586Y-9777150D01*
X3411586Y-9796198D02*
X3421110Y-9786674D01*
X3421110Y-9786674D02*
X3440158Y-9777150D01*
X3440158Y-9777150D02*
X3468729Y-9777150D01*
X3468729Y-9777150D02*
X3487777Y-9786674D01*
X3487777Y-9786674D02*
X3497301Y-9805722D01*
X3497301Y-9805722D02*
X3497301Y-9910484D01*
X3497301Y-9805722D02*
X3506824Y-9786674D01*
X3506824Y-9786674D02*
X3525872Y-9777150D01*
X3525872Y-9777150D02*
X3554443Y-9777150D01*
X3554443Y-9777150D02*
X3573491Y-9786674D01*
X3573491Y-9786674D02*
X3583015Y-9805722D01*
X3583015Y-9805722D02*
X3583015Y-9910484D01*
X3973491Y-9700960D02*
X3802063Y-9958103D01*
X4230634Y-9710484D02*
X4249682Y-9710484D01*
X4249682Y-9710484D02*
X4268729Y-9720008D01*
X4268729Y-9720008D02*
X4278253Y-9729531D01*
X4278253Y-9729531D02*
X4287777Y-9748579D01*
X4287777Y-9748579D02*
X4297301Y-9786674D01*
X4297301Y-9786674D02*
X4297301Y-9834293D01*
X4297301Y-9834293D02*
X4287777Y-9872389D01*
X4287777Y-9872389D02*
X4278253Y-9891436D01*
X4278253Y-9891436D02*
X4268729Y-9900960D01*
X4268729Y-9900960D02*
X4249682Y-9910484D01*
X4249682Y-9910484D02*
X4230634Y-9910484D01*
X4230634Y-9910484D02*
X4211587Y-9900960D01*
X4211587Y-9900960D02*
X4202063Y-9891436D01*
X4202063Y-9891436D02*
X4192539Y-9872389D01*
X4192539Y-9872389D02*
X4183015Y-9834293D01*
X4183015Y-9834293D02*
X4183015Y-9786674D01*
X4183015Y-9786674D02*
X4192539Y-9748579D01*
X4192539Y-9748579D02*
X4202063Y-9729531D01*
X4202063Y-9729531D02*
X4211587Y-9720008D01*
X4211587Y-9720008D02*
X4230634Y-9710484D01*
X4383015Y-9891436D02*
X4392539Y-9900960D01*
X4392539Y-9900960D02*
X4383015Y-9910484D01*
X4383015Y-9910484D02*
X4373491Y-9900960D01*
X4373491Y-9900960D02*
X4383015Y-9891436D01*
X4383015Y-9891436D02*
X4383015Y-9910484D01*
X4516348Y-9710484D02*
X4535396Y-9710484D01*
X4535396Y-9710484D02*
X4554444Y-9720008D01*
X4554444Y-9720008D02*
X4563968Y-9729531D01*
X4563968Y-9729531D02*
X4573491Y-9748579D01*
X4573491Y-9748579D02*
X4583015Y-9786674D01*
X4583015Y-9786674D02*
X4583015Y-9834293D01*
X4583015Y-9834293D02*
X4573491Y-9872389D01*
X4573491Y-9872389D02*
X4563968Y-9891436D01*
X4563968Y-9891436D02*
X4554444Y-9900960D01*
X4554444Y-9900960D02*
X4535396Y-9910484D01*
X4535396Y-9910484D02*
X4516348Y-9910484D01*
X4516348Y-9910484D02*
X4497301Y-9900960D01*
X4497301Y-9900960D02*
X4487777Y-9891436D01*
X4487777Y-9891436D02*
X4478253Y-9872389D01*
X4478253Y-9872389D02*
X4468729Y-9834293D01*
X4468729Y-9834293D02*
X4468729Y-9786674D01*
X4468729Y-9786674D02*
X4478253Y-9748579D01*
X4478253Y-9748579D02*
X4487777Y-9729531D01*
X4487777Y-9729531D02*
X4497301Y-9720008D01*
X4497301Y-9720008D02*
X4516348Y-9710484D01*
X4754444Y-9777150D02*
X4754444Y-9910484D01*
X4706825Y-9700960D02*
X4659206Y-9843817D01*
X4659206Y-9843817D02*
X4783015Y-9843817D01*
X4840158Y-9710484D02*
X4963968Y-9710484D01*
X4963968Y-9710484D02*
X4897301Y-9786674D01*
X4897301Y-9786674D02*
X4925872Y-9786674D01*
X4925872Y-9786674D02*
X4944920Y-9796198D01*
X4944920Y-9796198D02*
X4954444Y-9805722D01*
X4954444Y-9805722D02*
X4963968Y-9824770D01*
X4963968Y-9824770D02*
X4963968Y-9872389D01*
X4963968Y-9872389D02*
X4954444Y-9891436D01*
X4954444Y-9891436D02*
X4944920Y-9900960D01*
X4944920Y-9900960D02*
X4925872Y-9910484D01*
X4925872Y-9910484D02*
X4868729Y-9910484D01*
X4868729Y-9910484D02*
X4849682Y-9900960D01*
X4849682Y-9900960D02*
X4840158Y-9891436D01*
X5030634Y-9710484D02*
X5154444Y-9710484D01*
X5154444Y-9710484D02*
X5087777Y-9786674D01*
X5087777Y-9786674D02*
X5116349Y-9786674D01*
X5116349Y-9786674D02*
X5135396Y-9796198D01*
X5135396Y-9796198D02*
X5144920Y-9805722D01*
X5144920Y-9805722D02*
X5154444Y-9824770D01*
X5154444Y-9824770D02*
X5154444Y-9872389D01*
X5154444Y-9872389D02*
X5144920Y-9891436D01*
X5144920Y-9891436D02*
X5135396Y-9900960D01*
X5135396Y-9900960D02*
X5116349Y-9910484D01*
X5116349Y-9910484D02*
X5059206Y-9910484D01*
X5059206Y-9910484D02*
X5040158Y-9900960D01*
X5040158Y-9900960D02*
X5030634Y-9891436D01*
X5230634Y-9710484D02*
X5230634Y-9748579D01*
X5306825Y-9710484D02*
X5306825Y-9748579D01*
X5602063Y-9986674D02*
X5592539Y-9977150D01*
X5592539Y-9977150D02*
X5573491Y-9948579D01*
X5573491Y-9948579D02*
X5563968Y-9929531D01*
X5563968Y-9929531D02*
X5554444Y-9900960D01*
X5554444Y-9900960D02*
X5544920Y-9853341D01*
X5544920Y-9853341D02*
X5544920Y-9815246D01*
X5544920Y-9815246D02*
X5554444Y-9767627D01*
X5554444Y-9767627D02*
X5563968Y-9739055D01*
X5563968Y-9739055D02*
X5573491Y-9720008D01*
X5573491Y-9720008D02*
X5592539Y-9691436D01*
X5592539Y-9691436D02*
X5602063Y-9681912D01*
X5659206Y-9710484D02*
X5783015Y-9710484D01*
X5783015Y-9710484D02*
X5716348Y-9786674D01*
X5716348Y-9786674D02*
X5744920Y-9786674D01*
X5744920Y-9786674D02*
X5763968Y-9796198D01*
X5763968Y-9796198D02*
X5773491Y-9805722D01*
X5773491Y-9805722D02*
X5783015Y-9824770D01*
X5783015Y-9824770D02*
X5783015Y-9872389D01*
X5783015Y-9872389D02*
X5773491Y-9891436D01*
X5773491Y-9891436D02*
X5763968Y-9900960D01*
X5763968Y-9900960D02*
X5744920Y-9910484D01*
X5744920Y-9910484D02*
X5687777Y-9910484D01*
X5687777Y-9910484D02*
X5668729Y-9900960D01*
X5668729Y-9900960D02*
X5659206Y-9891436D01*
X6021110Y-9910484D02*
X6021110Y-9710484D01*
X6106825Y-9910484D02*
X6106825Y-9805722D01*
X6106825Y-9805722D02*
X6097301Y-9786674D01*
X6097301Y-9786674D02*
X6078253Y-9777150D01*
X6078253Y-9777150D02*
X6049682Y-9777150D01*
X6049682Y-9777150D02*
X6030634Y-9786674D01*
X6030634Y-9786674D02*
X6021110Y-9796198D01*
X6230634Y-9910484D02*
X6211587Y-9900960D01*
X6211587Y-9900960D02*
X6202063Y-9891436D01*
X6202063Y-9891436D02*
X6192539Y-9872389D01*
X6192539Y-9872389D02*
X6192539Y-9815246D01*
X6192539Y-9815246D02*
X6202063Y-9796198D01*
X6202063Y-9796198D02*
X6211587Y-9786674D01*
X6211587Y-9786674D02*
X6230634Y-9777150D01*
X6230634Y-9777150D02*
X6259206Y-9777150D01*
X6259206Y-9777150D02*
X6278253Y-9786674D01*
X6278253Y-9786674D02*
X6287777Y-9796198D01*
X6287777Y-9796198D02*
X6297301Y-9815246D01*
X6297301Y-9815246D02*
X6297301Y-9872389D01*
X6297301Y-9872389D02*
X6287777Y-9891436D01*
X6287777Y-9891436D02*
X6278253Y-9900960D01*
X6278253Y-9900960D02*
X6259206Y-9910484D01*
X6259206Y-9910484D02*
X6230634Y-9910484D01*
X6411587Y-9910484D02*
X6392539Y-9900960D01*
X6392539Y-9900960D02*
X6383015Y-9881912D01*
X6383015Y-9881912D02*
X6383015Y-9710484D01*
X6563968Y-9900960D02*
X6544920Y-9910484D01*
X6544920Y-9910484D02*
X6506825Y-9910484D01*
X6506825Y-9910484D02*
X6487777Y-9900960D01*
X6487777Y-9900960D02*
X6478253Y-9881912D01*
X6478253Y-9881912D02*
X6478253Y-9805722D01*
X6478253Y-9805722D02*
X6487777Y-9786674D01*
X6487777Y-9786674D02*
X6506825Y-9777150D01*
X6506825Y-9777150D02*
X6544920Y-9777150D01*
X6544920Y-9777150D02*
X6563968Y-9786674D01*
X6563968Y-9786674D02*
X6573491Y-9805722D01*
X6573491Y-9805722D02*
X6573491Y-9824770D01*
X6573491Y-9824770D02*
X6478253Y-9843817D01*
X6649682Y-9900960D02*
X6668730Y-9910484D01*
X6668730Y-9910484D02*
X6706825Y-9910484D01*
X6706825Y-9910484D02*
X6725872Y-9900960D01*
X6725872Y-9900960D02*
X6735396Y-9881912D01*
X6735396Y-9881912D02*
X6735396Y-9872389D01*
X6735396Y-9872389D02*
X6725872Y-9853341D01*
X6725872Y-9853341D02*
X6706825Y-9843817D01*
X6706825Y-9843817D02*
X6678253Y-9843817D01*
X6678253Y-9843817D02*
X6659206Y-9834293D01*
X6659206Y-9834293D02*
X6649682Y-9815246D01*
X6649682Y-9815246D02*
X6649682Y-9805722D01*
X6649682Y-9805722D02*
X6659206Y-9786674D01*
X6659206Y-9786674D02*
X6678253Y-9777150D01*
X6678253Y-9777150D02*
X6706825Y-9777150D01*
X6706825Y-9777150D02*
X6725872Y-9786674D01*
X6802063Y-9986674D02*
X6811587Y-9977150D01*
X6811587Y-9977150D02*
X6830634Y-9948579D01*
X6830634Y-9948579D02*
X6840158Y-9929531D01*
X6840158Y-9929531D02*
X6849682Y-9900960D01*
X6849682Y-9900960D02*
X6859206Y-9853341D01*
X6859206Y-9853341D02*
X6859206Y-9815246D01*
X6859206Y-9815246D02*
X6849682Y-9767627D01*
X6849682Y-9767627D02*
X6840158Y-9739055D01*
X6840158Y-9739055D02*
X6830634Y-9720008D01*
X6830634Y-9720008D02*
X6811587Y-9691436D01*
X6811587Y-9691436D02*
X6802063Y-9681912D01*
D16*
X1961000Y-10149000D02*
X2027000Y-10083000D01*
X1961000Y-10017000D01*
X1895000Y-10083000D01*
X1961000Y-10149000D01*
D11*
X2392539Y-10174484D02*
X2278253Y-10174484D01*
X2335396Y-10174484D02*
X2335396Y-9974484D01*
X2335396Y-9974484D02*
X2316348Y-10003055D01*
X2316348Y-10003055D02*
X2297301Y-10022103D01*
X2297301Y-10022103D02*
X2278253Y-10031627D01*
X2478253Y-10155436D02*
X2487777Y-10164960D01*
X2487777Y-10164960D02*
X2478253Y-10174484D01*
X2478253Y-10174484D02*
X2468729Y-10164960D01*
X2468729Y-10164960D02*
X2478253Y-10155436D01*
X2478253Y-10155436D02*
X2478253Y-10174484D01*
X2554444Y-9974484D02*
X2678253Y-9974484D01*
X2678253Y-9974484D02*
X2611586Y-10050674D01*
X2611586Y-10050674D02*
X2640158Y-10050674D01*
X2640158Y-10050674D02*
X2659205Y-10060198D01*
X2659205Y-10060198D02*
X2668729Y-10069722D01*
X2668729Y-10069722D02*
X2678253Y-10088770D01*
X2678253Y-10088770D02*
X2678253Y-10136389D01*
X2678253Y-10136389D02*
X2668729Y-10155436D01*
X2668729Y-10155436D02*
X2659205Y-10164960D01*
X2659205Y-10164960D02*
X2640158Y-10174484D01*
X2640158Y-10174484D02*
X2583015Y-10174484D01*
X2583015Y-10174484D02*
X2563967Y-10164960D01*
X2563967Y-10164960D02*
X2554444Y-10155436D01*
X2754444Y-9993531D02*
X2763967Y-9984008D01*
X2763967Y-9984008D02*
X2783015Y-9974484D01*
X2783015Y-9974484D02*
X2830634Y-9974484D01*
X2830634Y-9974484D02*
X2849682Y-9984008D01*
X2849682Y-9984008D02*
X2859205Y-9993531D01*
X2859205Y-9993531D02*
X2868729Y-10012579D01*
X2868729Y-10012579D02*
X2868729Y-10031627D01*
X2868729Y-10031627D02*
X2859205Y-10060198D01*
X2859205Y-10060198D02*
X2744920Y-10174484D01*
X2744920Y-10174484D02*
X2868729Y-10174484D01*
X2992539Y-9974484D02*
X3011586Y-9974484D01*
X3011586Y-9974484D02*
X3030634Y-9984008D01*
X3030634Y-9984008D02*
X3040158Y-9993531D01*
X3040158Y-9993531D02*
X3049682Y-10012579D01*
X3049682Y-10012579D02*
X3059205Y-10050674D01*
X3059205Y-10050674D02*
X3059205Y-10098293D01*
X3059205Y-10098293D02*
X3049682Y-10136389D01*
X3049682Y-10136389D02*
X3040158Y-10155436D01*
X3040158Y-10155436D02*
X3030634Y-10164960D01*
X3030634Y-10164960D02*
X3011586Y-10174484D01*
X3011586Y-10174484D02*
X2992539Y-10174484D01*
X2992539Y-10174484D02*
X2973491Y-10164960D01*
X2973491Y-10164960D02*
X2963967Y-10155436D01*
X2963967Y-10155436D02*
X2954443Y-10136389D01*
X2954443Y-10136389D02*
X2944920Y-10098293D01*
X2944920Y-10098293D02*
X2944920Y-10050674D01*
X2944920Y-10050674D02*
X2954443Y-10012579D01*
X2954443Y-10012579D02*
X2963967Y-9993531D01*
X2963967Y-9993531D02*
X2973491Y-9984008D01*
X2973491Y-9984008D02*
X2992539Y-9974484D01*
X3144920Y-10174484D02*
X3144920Y-10041150D01*
X3144920Y-10060198D02*
X3154443Y-10050674D01*
X3154443Y-10050674D02*
X3173491Y-10041150D01*
X3173491Y-10041150D02*
X3202063Y-10041150D01*
X3202063Y-10041150D02*
X3221110Y-10050674D01*
X3221110Y-10050674D02*
X3230634Y-10069722D01*
X3230634Y-10069722D02*
X3230634Y-10174484D01*
X3230634Y-10069722D02*
X3240158Y-10050674D01*
X3240158Y-10050674D02*
X3259205Y-10041150D01*
X3259205Y-10041150D02*
X3287777Y-10041150D01*
X3287777Y-10041150D02*
X3306824Y-10050674D01*
X3306824Y-10050674D02*
X3316348Y-10069722D01*
X3316348Y-10069722D02*
X3316348Y-10174484D01*
X3411586Y-10174484D02*
X3411586Y-10041150D01*
X3411586Y-10060198D02*
X3421110Y-10050674D01*
X3421110Y-10050674D02*
X3440158Y-10041150D01*
X3440158Y-10041150D02*
X3468729Y-10041150D01*
X3468729Y-10041150D02*
X3487777Y-10050674D01*
X3487777Y-10050674D02*
X3497301Y-10069722D01*
X3497301Y-10069722D02*
X3497301Y-10174484D01*
X3497301Y-10069722D02*
X3506824Y-10050674D01*
X3506824Y-10050674D02*
X3525872Y-10041150D01*
X3525872Y-10041150D02*
X3554443Y-10041150D01*
X3554443Y-10041150D02*
X3573491Y-10050674D01*
X3573491Y-10050674D02*
X3583015Y-10069722D01*
X3583015Y-10069722D02*
X3583015Y-10174484D01*
X3973491Y-9964960D02*
X3802063Y-10222103D01*
X4230634Y-9974484D02*
X4249682Y-9974484D01*
X4249682Y-9974484D02*
X4268729Y-9984008D01*
X4268729Y-9984008D02*
X4278253Y-9993531D01*
X4278253Y-9993531D02*
X4287777Y-10012579D01*
X4287777Y-10012579D02*
X4297301Y-10050674D01*
X4297301Y-10050674D02*
X4297301Y-10098293D01*
X4297301Y-10098293D02*
X4287777Y-10136389D01*
X4287777Y-10136389D02*
X4278253Y-10155436D01*
X4278253Y-10155436D02*
X4268729Y-10164960D01*
X4268729Y-10164960D02*
X4249682Y-10174484D01*
X4249682Y-10174484D02*
X4230634Y-10174484D01*
X4230634Y-10174484D02*
X4211587Y-10164960D01*
X4211587Y-10164960D02*
X4202063Y-10155436D01*
X4202063Y-10155436D02*
X4192539Y-10136389D01*
X4192539Y-10136389D02*
X4183015Y-10098293D01*
X4183015Y-10098293D02*
X4183015Y-10050674D01*
X4183015Y-10050674D02*
X4192539Y-10012579D01*
X4192539Y-10012579D02*
X4202063Y-9993531D01*
X4202063Y-9993531D02*
X4211587Y-9984008D01*
X4211587Y-9984008D02*
X4230634Y-9974484D01*
X4383015Y-10155436D02*
X4392539Y-10164960D01*
X4392539Y-10164960D02*
X4383015Y-10174484D01*
X4383015Y-10174484D02*
X4373491Y-10164960D01*
X4373491Y-10164960D02*
X4383015Y-10155436D01*
X4383015Y-10155436D02*
X4383015Y-10174484D01*
X4516348Y-9974484D02*
X4535396Y-9974484D01*
X4535396Y-9974484D02*
X4554444Y-9984008D01*
X4554444Y-9984008D02*
X4563968Y-9993531D01*
X4563968Y-9993531D02*
X4573491Y-10012579D01*
X4573491Y-10012579D02*
X4583015Y-10050674D01*
X4583015Y-10050674D02*
X4583015Y-10098293D01*
X4583015Y-10098293D02*
X4573491Y-10136389D01*
X4573491Y-10136389D02*
X4563968Y-10155436D01*
X4563968Y-10155436D02*
X4554444Y-10164960D01*
X4554444Y-10164960D02*
X4535396Y-10174484D01*
X4535396Y-10174484D02*
X4516348Y-10174484D01*
X4516348Y-10174484D02*
X4497301Y-10164960D01*
X4497301Y-10164960D02*
X4487777Y-10155436D01*
X4487777Y-10155436D02*
X4478253Y-10136389D01*
X4478253Y-10136389D02*
X4468729Y-10098293D01*
X4468729Y-10098293D02*
X4468729Y-10050674D01*
X4468729Y-10050674D02*
X4478253Y-10012579D01*
X4478253Y-10012579D02*
X4487777Y-9993531D01*
X4487777Y-9993531D02*
X4497301Y-9984008D01*
X4497301Y-9984008D02*
X4516348Y-9974484D01*
X4763968Y-9974484D02*
X4668729Y-9974484D01*
X4668729Y-9974484D02*
X4659206Y-10069722D01*
X4659206Y-10069722D02*
X4668729Y-10060198D01*
X4668729Y-10060198D02*
X4687777Y-10050674D01*
X4687777Y-10050674D02*
X4735396Y-10050674D01*
X4735396Y-10050674D02*
X4754444Y-10060198D01*
X4754444Y-10060198D02*
X4763968Y-10069722D01*
X4763968Y-10069722D02*
X4773491Y-10088770D01*
X4773491Y-10088770D02*
X4773491Y-10136389D01*
X4773491Y-10136389D02*
X4763968Y-10155436D01*
X4763968Y-10155436D02*
X4754444Y-10164960D01*
X4754444Y-10164960D02*
X4735396Y-10174484D01*
X4735396Y-10174484D02*
X4687777Y-10174484D01*
X4687777Y-10174484D02*
X4668729Y-10164960D01*
X4668729Y-10164960D02*
X4659206Y-10155436D01*
X4849682Y-9993531D02*
X4859206Y-9984008D01*
X4859206Y-9984008D02*
X4878253Y-9974484D01*
X4878253Y-9974484D02*
X4925872Y-9974484D01*
X4925872Y-9974484D02*
X4944920Y-9984008D01*
X4944920Y-9984008D02*
X4954444Y-9993531D01*
X4954444Y-9993531D02*
X4963968Y-10012579D01*
X4963968Y-10012579D02*
X4963968Y-10031627D01*
X4963968Y-10031627D02*
X4954444Y-10060198D01*
X4954444Y-10060198D02*
X4840158Y-10174484D01*
X4840158Y-10174484D02*
X4963968Y-10174484D01*
X5087777Y-9974484D02*
X5106825Y-9974484D01*
X5106825Y-9974484D02*
X5125872Y-9984008D01*
X5125872Y-9984008D02*
X5135396Y-9993531D01*
X5135396Y-9993531D02*
X5144920Y-10012579D01*
X5144920Y-10012579D02*
X5154444Y-10050674D01*
X5154444Y-10050674D02*
X5154444Y-10098293D01*
X5154444Y-10098293D02*
X5144920Y-10136389D01*
X5144920Y-10136389D02*
X5135396Y-10155436D01*
X5135396Y-10155436D02*
X5125872Y-10164960D01*
X5125872Y-10164960D02*
X5106825Y-10174484D01*
X5106825Y-10174484D02*
X5087777Y-10174484D01*
X5087777Y-10174484D02*
X5068729Y-10164960D01*
X5068729Y-10164960D02*
X5059206Y-10155436D01*
X5059206Y-10155436D02*
X5049682Y-10136389D01*
X5049682Y-10136389D02*
X5040158Y-10098293D01*
X5040158Y-10098293D02*
X5040158Y-10050674D01*
X5040158Y-10050674D02*
X5049682Y-10012579D01*
X5049682Y-10012579D02*
X5059206Y-9993531D01*
X5059206Y-9993531D02*
X5068729Y-9984008D01*
X5068729Y-9984008D02*
X5087777Y-9974484D01*
X5230634Y-9974484D02*
X5230634Y-10012579D01*
X5306825Y-9974484D02*
X5306825Y-10012579D01*
X5602063Y-10250674D02*
X5592539Y-10241150D01*
X5592539Y-10241150D02*
X5573491Y-10212579D01*
X5573491Y-10212579D02*
X5563968Y-10193531D01*
X5563968Y-10193531D02*
X5554444Y-10164960D01*
X5554444Y-10164960D02*
X5544920Y-10117341D01*
X5544920Y-10117341D02*
X5544920Y-10079246D01*
X5544920Y-10079246D02*
X5554444Y-10031627D01*
X5554444Y-10031627D02*
X5563968Y-10003055D01*
X5563968Y-10003055D02*
X5573491Y-9984008D01*
X5573491Y-9984008D02*
X5592539Y-9955436D01*
X5592539Y-9955436D02*
X5602063Y-9945912D01*
X5783015Y-10174484D02*
X5668729Y-10174484D01*
X5725872Y-10174484D02*
X5725872Y-9974484D01*
X5725872Y-9974484D02*
X5706825Y-10003055D01*
X5706825Y-10003055D02*
X5687777Y-10022103D01*
X5687777Y-10022103D02*
X5668729Y-10031627D01*
X5906825Y-9974484D02*
X5925872Y-9974484D01*
X5925872Y-9974484D02*
X5944920Y-9984008D01*
X5944920Y-9984008D02*
X5954444Y-9993531D01*
X5954444Y-9993531D02*
X5963968Y-10012579D01*
X5963968Y-10012579D02*
X5973491Y-10050674D01*
X5973491Y-10050674D02*
X5973491Y-10098293D01*
X5973491Y-10098293D02*
X5963968Y-10136389D01*
X5963968Y-10136389D02*
X5954444Y-10155436D01*
X5954444Y-10155436D02*
X5944920Y-10164960D01*
X5944920Y-10164960D02*
X5925872Y-10174484D01*
X5925872Y-10174484D02*
X5906825Y-10174484D01*
X5906825Y-10174484D02*
X5887777Y-10164960D01*
X5887777Y-10164960D02*
X5878253Y-10155436D01*
X5878253Y-10155436D02*
X5868729Y-10136389D01*
X5868729Y-10136389D02*
X5859206Y-10098293D01*
X5859206Y-10098293D02*
X5859206Y-10050674D01*
X5859206Y-10050674D02*
X5868729Y-10012579D01*
X5868729Y-10012579D02*
X5878253Y-9993531D01*
X5878253Y-9993531D02*
X5887777Y-9984008D01*
X5887777Y-9984008D02*
X5906825Y-9974484D01*
X6211587Y-10174484D02*
X6211587Y-9974484D01*
X6297301Y-10174484D02*
X6297301Y-10069722D01*
X6297301Y-10069722D02*
X6287777Y-10050674D01*
X6287777Y-10050674D02*
X6268730Y-10041150D01*
X6268730Y-10041150D02*
X6240158Y-10041150D01*
X6240158Y-10041150D02*
X6221110Y-10050674D01*
X6221110Y-10050674D02*
X6211587Y-10060198D01*
X6421110Y-10174484D02*
X6402063Y-10164960D01*
X6402063Y-10164960D02*
X6392539Y-10155436D01*
X6392539Y-10155436D02*
X6383015Y-10136389D01*
X6383015Y-10136389D02*
X6383015Y-10079246D01*
X6383015Y-10079246D02*
X6392539Y-10060198D01*
X6392539Y-10060198D02*
X6402063Y-10050674D01*
X6402063Y-10050674D02*
X6421110Y-10041150D01*
X6421110Y-10041150D02*
X6449682Y-10041150D01*
X6449682Y-10041150D02*
X6468730Y-10050674D01*
X6468730Y-10050674D02*
X6478253Y-10060198D01*
X6478253Y-10060198D02*
X6487777Y-10079246D01*
X6487777Y-10079246D02*
X6487777Y-10136389D01*
X6487777Y-10136389D02*
X6478253Y-10155436D01*
X6478253Y-10155436D02*
X6468730Y-10164960D01*
X6468730Y-10164960D02*
X6449682Y-10174484D01*
X6449682Y-10174484D02*
X6421110Y-10174484D01*
X6602063Y-10174484D02*
X6583015Y-10164960D01*
X6583015Y-10164960D02*
X6573491Y-10145912D01*
X6573491Y-10145912D02*
X6573491Y-9974484D01*
X6754444Y-10164960D02*
X6735396Y-10174484D01*
X6735396Y-10174484D02*
X6697301Y-10174484D01*
X6697301Y-10174484D02*
X6678253Y-10164960D01*
X6678253Y-10164960D02*
X6668730Y-10145912D01*
X6668730Y-10145912D02*
X6668730Y-10069722D01*
X6668730Y-10069722D02*
X6678253Y-10050674D01*
X6678253Y-10050674D02*
X6697301Y-10041150D01*
X6697301Y-10041150D02*
X6735396Y-10041150D01*
X6735396Y-10041150D02*
X6754444Y-10050674D01*
X6754444Y-10050674D02*
X6763968Y-10069722D01*
X6763968Y-10069722D02*
X6763968Y-10088770D01*
X6763968Y-10088770D02*
X6668730Y-10107817D01*
X6840158Y-10164960D02*
X6859206Y-10174484D01*
X6859206Y-10174484D02*
X6897301Y-10174484D01*
X6897301Y-10174484D02*
X6916349Y-10164960D01*
X6916349Y-10164960D02*
X6925872Y-10145912D01*
X6925872Y-10145912D02*
X6925872Y-10136389D01*
X6925872Y-10136389D02*
X6916349Y-10117341D01*
X6916349Y-10117341D02*
X6897301Y-10107817D01*
X6897301Y-10107817D02*
X6868730Y-10107817D01*
X6868730Y-10107817D02*
X6849682Y-10098293D01*
X6849682Y-10098293D02*
X6840158Y-10079246D01*
X6840158Y-10079246D02*
X6840158Y-10069722D01*
X6840158Y-10069722D02*
X6849682Y-10050674D01*
X6849682Y-10050674D02*
X6868730Y-10041150D01*
X6868730Y-10041150D02*
X6897301Y-10041150D01*
X6897301Y-10041150D02*
X6916349Y-10050674D01*
X6992539Y-10250674D02*
X7002063Y-10241150D01*
X7002063Y-10241150D02*
X7021111Y-10212579D01*
X7021111Y-10212579D02*
X7030634Y-10193531D01*
X7030634Y-10193531D02*
X7040158Y-10164960D01*
X7040158Y-10164960D02*
X7049682Y-10117341D01*
X7049682Y-10117341D02*
X7049682Y-10079246D01*
X7049682Y-10079246D02*
X7040158Y-10031627D01*
X7040158Y-10031627D02*
X7030634Y-10003055D01*
X7030634Y-10003055D02*
X7021111Y-9984008D01*
X7021111Y-9984008D02*
X7002063Y-9955436D01*
X7002063Y-9955436D02*
X6992539Y-9945912D01*
M02*
